<svg xmlns="http://www.w3.org/2000/svg" width="30" height="30" viewBox="0 0 30 30">
  <defs>
    <style>
      .cls-1 {
        fill: #72bcb2;
        fill-rule: evenodd;
      }
    </style>
  </defs>
  <path id="inst" class="cls-1" d="M1379.65,45h0.67v0.05h0.96V45.1h0.51v0.05h0.41V45.2h0.3v0.052h0.31V45.3h0.25v0.052h0.21V45.4l0.46,0.052v0.05h0.15v0.05l0.41,0.051v0.051h0.15v0.05h0.15v0.051h0.15v0.05h0.16v0.051l0.3,0.051v0.05h0.1v0.051l0.31,0.05v0.051c0.07,0.017.14,0.033,0.2,0.051v0.05h0.16v0.051c0.06,0.017.13,0.034,0.2,0.051v0.05h0.1v0.052h0.15v0.05c0.11,0.034.21,0.068,0.31,0.1v0.051h0.1v0.052l0.21,0.05a0.449,0.449,0,0,0,.05.1h0.1v0.052h0.1v0.05h0.1V46.98h0.1a0.463,0.463,0,0,1,.05.1l0.21,0.052c0.02,0.033.03,0.067,0.05,0.1,0.07,0.018.14,0.034,0.2,0.05v0.051c0.05,0.018.1,0.035,0.16,0.052a0.489,0.489,0,0,0,.05.1h0.1v0.051l0.15,0.05a0.467,0.467,0,0,1,.05.1h0.1c0.04,0.05.07,0.1,0.11,0.153h0.1a0.5,0.5,0,0,0,.05.1h0.1c0.03,0.05.07,0.1,0.1,0.153h0.1c0.05,0.068.11,0.135,0.16,0.2h0.1c0.07,0.084.13,0.169,0.2,0.253h0.1c0.11,0.119.21,0.238,0.31,0.355h0.1c0.1,0.119.2,0.238,0.31,0.355l0.66,0.611v0.1c0.12,0.1.24,0.2,0.35,0.306v0.1c0.09,0.067.17,0.135,0.26,0.2v0.1l0.15,0.1v0.1l0.15,0.1v0.1c0.06,0.034.11,0.067,0.16,0.1v0.1l0.15,0.1v0.1c0.03,0.017.07,0.033,0.1,0.051a0.885,0.885,0,0,1,.05.152h0.05v0.1c0.04,0.016.07,0.033,0.11,0.05a1.487,1.487,0,0,0,.05.2,0.926,0.926,0,0,0,.1.05c0.02,0.051.03,0.1,0.05,0.153h0.05c0.03,0.1.07,0.2,0.1,0.3a1.068,1.068,0,0,1,.1.051v0.1h0.05v0.1h0.06v0.1h0.05v0.1a1.067,1.067,0,0,0,.1.051c0.02,0.067.03,0.135,0.05,0.2h0.05c0.02,0.067.03,0.136,0.05,0.2h0.05v0.152h0.05c0.04,0.1.07,0.2,0.1,0.3h0.06v0.1h0.05v0.152h0.05v0.1h0.05v0.153a14.554,14.554,0,0,1,.41,9.906v0.2h-0.06V64.71h-0.05v0.153h-0.05v0.153h-0.05v0.1h-0.05c-0.02.1-.03,0.2-0.05,0.305h-0.05v0.1h-0.05v0.153c-0.32.643-.65,1.287-0.97,1.93-0.03.017-.07,0.035-0.1,0.052-0.02.067-.03,0.135-0.05,0.2h-0.05a0.891,0.891,0,0,0-.05.153c-0.04.016-.07,0.033-0.11,0.05a1.484,1.484,0,0,1-.05.2l-0.15.1c-0.02.05-.03,0.1-0.05,0.151h-0.05v0.1c-0.03.017-.07,0.034-0.1,0.052v0.1c-0.05.034-.1,0.067-0.16,0.1v0.1l-0.15.1v0.1c-0.07.05-.13,0.1-0.2,0.153v0.1c-0.09.068-.17,0.135-0.26,0.2v0.1l-0.3.254v0.05a0.935,0.935,0,0,0-.1.052v0.1l-0.51.457c-0.09.1-.17,0.2-0.26,0.305h-0.1l-0.36.406h-0.1c-0.06.084-.13,0.169-0.2,0.254h-0.1c-0.05.067-.1,0.134-0.16,0.2h-0.1a1.387,1.387,0,0,1-.1.153l-0.15.05a0.491,0.491,0,0,0-.05.1h-0.1v0.051c-0.06.018-.11,0.034-0.16,0.05a0.479,0.479,0,0,1-.05.1h-0.1c-0.03.051-.07,0.1-0.1,0.152l-0.21.052v0.05l-0.15.052a0.493,0.493,0,0,1-.05.1h-0.1v0.051h-0.1a0.477,0.477,0,0,0-.05.1l-0.21.05a0.48,0.48,0,0,1-.05.1h-0.1v0.05h-0.1v0.051h-0.1v0.051h-0.11v0.05h-0.1V73.3h-0.1v0.05h-0.1V73.4h-0.1v0.051h-0.1V73.5h-0.11v0.051c-0.06.017-.13,0.034-0.2,0.051v0.05h-0.1V73.7h-0.15v0.05l-0.21.051v0.05h-0.15V73.9h-0.1v0.052l-0.31.05v0.052h-0.1v0.05l-0.66.153v0.051h-0.15v0.05h-0.16v0.052l-0.4.05v0.051c-0.14.018-.28,0.033-0.41,0.05v0.051h-0.26v0.051h-0.25v0.051h-0.31v0.05h-0.3v0.051h-0.41v0.05l-1.12.051v0.051c-0.03-.018-0.07-0.035-0.1-0.051v0.051a3.909,3.909,0,0,1-1.12-.051h-0.56V74.87h-0.56l-1.53-.254c-0.59-.169-1.19-0.338-1.78-0.508v-0.05h-0.1V74.006l-0.31-.05V73.9c-0.08-.016-0.17-0.033-0.25-0.051V73.8h-0.1V73.752h-0.16V73.7l-0.3-.1V73.549h-0.1V73.5h-0.11v-0.05h-0.15V73.4c-0.07-.016-0.13-0.033-0.2-0.051V73.3h-0.1a0.476,0.476,0,0,1-.05-0.1h-0.11V73.143h-0.1V73.092h-0.1v-0.05h-0.1a0.48,0.48,0,0,1-.05-0.1c-0.1-.033-0.21-0.067-0.31-0.1a0.463,0.463,0,0,0-.05-0.1c-0.07-.017-0.13-0.035-0.2-0.051v-0.05c-0.05-.018-0.1-0.034-0.16-0.052a0.509,0.509,0,0,0-.05-0.1h-0.1v-0.05l-0.15-.05c-0.02-.034-0.03-0.068-0.05-0.1h-0.1c-0.04-.052-0.07-0.1-0.11-0.153h-0.1a0.491,0.491,0,0,0-.05-0.1h-0.1l-0.15-.2a14.92,14.92,0,0,1-4.84-6.248c-0.2-.626-0.41-1.254-0.61-1.879-0.02-.153-0.03-0.3-0.05-0.457a9.275,9.275,0,0,1-.36-2.59,3.845,3.845,0,0,1,0-1.017V58.715h0.05V58.208h0.05V57.8h0.06V57.5h0.05V57.191h0.05V56.937h0.05V56.683h0.05v-0.2h0.05v-0.2h0.05v-0.2l0.66-1.93h0.05a1.541,1.541,0,0,0,.05-0.2h0.06v-0.1h0.05V53.686h0.05c0.03-.1.07-0.2,0.1-0.3h0.05v-0.1h0.05v-0.1h0.05c0.04-.1.07-0.2,0.1-0.306,0.04-.016.07-0.033,0.11-0.05,0.03-.1.06-0.2,0.1-0.306,0.03-.016.07-0.034,0.1-0.05,0.03-.1.07-0.2,0.1-0.306h0.05a0.9,0.9,0,0,0,.05-0.152,0.814,0.814,0,0,0,.1-0.05v-0.1c0.04-.017.07-0.034,0.11-0.05V51.7a1.044,1.044,0,0,1,.1-0.051v-0.1h0.05c0.02-.051.03-0.1,0.05-0.153,0.03-.017.07-0.034,0.1-0.051v-0.1l0.15-.1v-0.1c0.06-.035.11-0.068,0.16-0.1v-0.1l0.15-.1v-0.1l0.15-.1v-0.05a0.808,0.808,0,0,0,.1-0.052v-0.1c0.11-.084.21-0.169,0.31-0.254v-0.1c0.1-.084.2-0.169,0.31-0.254,0.28-.3.57-0.609,0.86-0.915h0.1c0.09-.1.17-0.2,0.26-0.3h0.1c0.07-.084.14-0.17,0.2-0.255h0.1c0.04-.05.07-0.1,0.11-0.152h0.1c0.03-.051.07-0.1,0.1-0.153h0.1a1.276,1.276,0,0,0,.1-0.152h0.11a0.475,0.475,0,0,1,.05-0.1h0.1c0.02-.035.03-0.068,0.05-0.1h0.1a0.461,0.461,0,0,0,.05-0.1h0.1a0.489,0.489,0,0,0,.05-0.1h0.11a0.5,0.5,0,0,1,.05-0.1c0.07-.016.13-0.033,0.2-0.05a0.5,0.5,0,0,0,.05-0.1l0.21-.052a0.463,0.463,0,0,1,.05-0.1l0.3-.1a0.5,0.5,0,0,0,.05-0.1c0.6-.272,1.19-0.542,1.78-0.813,0.16-.033.31-0.067,0.46-0.1V45.811h0.16v-0.05h0.15V45.71h0.15v-0.05h0.15V45.608l0.36-.051v-0.05l0.61-.1v-0.05h0.26c0.24-.076.61-0.129,0.86-0.2l1.17-.1A1.446,1.446,0,0,0,1379.65,45ZM1374,51.146a1.347,1.347,0,0,1-.46.1V51.3h-0.15v0.05h-0.1V51.4l-0.25.05V51.5h-0.11a0.477,0.477,0,0,1-.05.1c-0.06.017-.13,0.034-0.2,0.051-0.02.035-.03,0.067-0.05,0.1h-0.1c-0.04.052-.07,0.1-0.11,0.153h-0.1a1.327,1.327,0,0,1-.1.152l-0.3.254v0.1c-0.06.035-.11,0.067-0.16,0.1v0.1a0.8,0.8,0,0,1-.1.05v0.1c-0.03.018-.07,0.034-0.1,0.052-0.02.067-.03,0.135-0.05,0.2h-0.05v0.1h-0.05c-0.42.927-.26,2.7-0.26,4.013v0.914h-0.05v5.08a11.953,11.953,0,0,0,.05,2.337v0.559h0.05c0.02,0.135.04,0.271,0.05,0.407h0.05V66.59h0.06a2.3,2.3,0,0,0,.05.254h0.05a1.55,1.55,0,0,0,.05.2h0.05v0.1c0.03,0.018.07,0.035,0.1,0.051v0.1a1.068,1.068,0,0,1,.1.051v0.1c0.05,0.033.1,0.068,0.16,0.1v0.1c0.03,0.016.06,0.033,0.1,0.05,0.08,0.1.17,0.2,0.25,0.306h0.1c0.05,0.067.11,0.134,0.16,0.2h0.1c0.02,0.033.03,0.068,0.05,0.1a5.059,5.059,0,0,0,1.32.508h11.97v-0.05h0.25V68.723h0.2v-0.05h0.16V68.621h0.15v-0.05c0.1-.034.2-0.068,0.31-0.1v-0.05c0.06-.018.13-0.035,0.2-0.05V68.317l0.15-.051a0.461,0.461,0,0,0,.05-0.1h0.1l0.21-.254h0.1V67.859l0.15-.1v-0.1l0.21-.153V67.4a0.94,0.94,0,0,1,.1-0.051c0.02-.051.03-0.1,0.05-0.152h0.05c0.02-.067.03-0.135,0.05-0.2h0.05c0.04-.1.07-0.2,0.1-0.3h0.05V66.538h0.06V66.386h0.05v-0.2h0.05V65.929h0.05v-9.45a12.344,12.344,0,0,0-.1-2.895h-0.05l-0.06-.3h-0.05v-0.1h-0.05V53.025a0.828,0.828,0,0,0-.1-0.05v-0.1h-0.05c-0.02-.067-0.03-0.134-0.05-0.2-0.03-.016-0.07-0.033-0.1-0.05v-0.1l-0.21-.152v-0.1c-0.08-.069-0.17-0.135-0.25-0.2-0.02-.033-0.03-0.067-0.05-0.1h-0.1c-0.05-.067-0.11-0.136-0.16-0.2h-0.1a0.479,0.479,0,0,0-.05-0.1l-0.2-.051a0.477,0.477,0,0,1-.05-0.1c-0.36-.118-0.72-0.237-1.07-0.355H1374Zm9.83,2.033h3v3h-3v-3Zm-3.92,3.657a3.023,3.023,0,0,1,2.54,1.271c0.05,0.033.11,0.067,0.16,0.1v0.1a0.908,0.908,0,0,0,.1.05c0.02,0.068.03,0.136,0.05,0.2h0.05c0.02,0.067.03,0.135,0.05,0.2h0.05v0.152h0.05v0.153h0.05v0.152h0.05v0.254h0.06a5.27,5.27,0,0,1-.06,1.27h-0.05V60.9h-0.05v0.152h-0.05V61.2h-0.05c-0.02.067-.03,0.136-0.05,0.2h-0.05c-0.02.068-.03,0.136-0.05,0.2a0.749,0.749,0,0,0-.1.05v0.1c-0.05.035-.11,0.068-0.16,0.1a3.055,3.055,0,0,1-1.93,1.219,5.113,5.113,0,0,1-1.27-.051v-0.05h-0.16V62.932h-0.15v-0.05h-0.15v-0.05l-0.21-.052v-0.05c-0.06-.018-0.13-0.034-0.2-0.052-0.02-.033-0.03-0.067-0.05-0.1h-0.1a0.446,0.446,0,0,1-.05-0.1h-0.1l-0.21-.254c-0.12-.1-0.24-0.2-0.35-0.3v-0.1c-0.04-.016-0.07-0.033-0.11-0.051a0.917,0.917,0,0,0-.05-0.152h-0.05a1.513,1.513,0,0,0-.05-0.2h-0.05c-0.03-.1-0.07-0.2-0.1-0.3h-0.05c-0.02-.119-0.04-0.236-0.05-0.355h-0.05v-0.2a2.127,2.127,0,0,1,.05-1.321c0.01-.118.03-0.238,0.05-0.355h0.05v-0.1h0.05v-0.1h0.05v-0.1h0.05v-0.1h0.05v-0.1a0.908,0.908,0,0,0,.1-0.05v-0.1c0.04-.017.07-0.034,0.11-0.052v-0.1c0.06-.05.13-0.1,0.2-0.153l0.36-.406h0.1a0.481,0.481,0,0,1,.05-0.1h0.1c0.02-.033.03-0.068,0.05-0.1,0.07-.016.14-0.033,0.2-0.051V57.191c0.11-.033.21-0.067,0.31-0.1v-0.05h0.15V56.988h0.16v-0.05h0.25V56.886A1.4,1.4,0,0,0,1379.91,56.835Zm-7.03,1.321h2.6a1.662,1.662,0,0,1-.15.457v0.2h-0.05v0.2h-0.06v0.3h-0.05a5.706,5.706,0,0,0,.05,1.322l0.06,0.506h0.05q0.075,0.332.15,0.661h0.05c0.02,0.067.03,0.136,0.05,0.2h0.05v0.1h0.05v0.1h0.05v0.1h0.05v0.1h0.06v0.1a0.8,0.8,0,0,0,.1.05v0.1c0.03,0.018.07,0.034,0.1,0.052v0.1l0.15,0.1v0.1c0.1,0.084.21,0.17,0.31,0.255,0.13,0.152.27,0.3,0.4,0.457a7.016,7.016,0,0,0,1.74.914l0.45,0.051a4.344,4.344,0,0,0,2.7-.254h0.15v-0.05c0.11-.034.21-0.068,0.31-0.1v-0.05c0.07-.017.14-0.034,0.2-0.052a0.461,0.461,0,0,0,.05-0.1h0.11V64.05l0.15-.052c0.02-.033.03-0.067,0.05-0.1h0.1l0.15-.2h0.11c0.06-.085.13-0.17,0.2-0.255,0.14-.118.27-0.236,0.41-0.355v-0.1l0.15-.1v-0.1c0.03-.016.07-0.033,0.1-0.05v-0.1a1.037,1.037,0,0,0,.1-0.052v-0.1c0.04-.017.07-0.033,0.11-0.05a1.535,1.535,0,0,1,.05-0.2h0.05c0.03-.1.07-0.2,0.1-0.3h0.05V61.763h0.05v-0.1h0.05V61.509h0.05v-0.2h0.05V61.153h0.05V60.9a3.307,3.307,0,0,0,.06-1.474V59.071c-0.11-.3-0.21-0.61-0.31-0.915h2.65V63.9a5.324,5.324,0,0,1-.26,2.489c-0.06.05-.13,0.1-0.2,0.152-0.09.1-.17,0.2-0.26,0.306l-0.3.1V67h-0.1v0.05h-0.21a10.118,10.118,0,0,1-2.13.051h-9.47V67.047H1374V67l-0.3-.1v-0.05h-0.1c-0.04-.051-0.07-0.1-0.11-0.152h-0.1a0.465,0.465,0,0,0-.05-0.1h-0.05v-0.1l-0.15-.1v-0.1a1.059,1.059,0,0,1-.1-0.05,1.693,1.693,0,0,1-.11-0.407h-0.05V58.156Z" transform="translate(-1365 -45)"/>
</svg>
