<svg xmlns="http://www.w3.org/2000/svg" width="18" height="11" viewBox="0 0 18 11">
  <defs>
    <style>
      .cls-1 {
        fill: #72bcb2;
        fill-rule: evenodd;
      }
    </style>
  </defs>
  <path id="Фигура_1" data-name="Фигура 1" class="cls-1" d="M392.684,10460.7c0.1,0.4.21,0.9,0.316,1.3h-4.289c-0.267-.7-0.49-1.4-0.774-2.1v-0.1H387.9c-0.011-.1-0.023-0.1-0.035-0.2h-0.035v-0.1H387.8v-0.1h-0.035c-0.012-.1-0.024-0.1-0.035-0.2h-0.036v-0.1h-0.035c-0.023-.1-0.047-0.2-0.07-0.3h-0.035v-0.1h-0.035c-0.024-.1-0.047-0.2-0.071-0.3H387.41v-0.1h-0.035c-0.024-.1-0.047-0.2-0.07-0.3h-0.036v-0.1h-0.035a0.737,0.737,0,0,1-.035-0.2h-0.035c-0.047-.1-0.094-0.3-0.141-0.4h-0.035a1.428,1.428,0,0,0-.14.2c-0.024,0-.047,0-0.071.1h0c-0.035.1-.07,0.1-0.1,0.1v0.1H386.6v0.1H386.5v0.1c-0.023,0-.047,0-0.07.1h0c-0.035.1-.071,0.1-0.106,0.1v0.1h-0.07v0.1c-0.035,0-.07,0-0.106.1h0c-0.023,0-.046,0-0.07.1h0c-0.035.1-.07,0.1-0.105,0.1v0.1H385.9v0.1c-0.035,0-.07,0-0.105.1h0c-0.024,0-.047,0-0.07.1h0c-0.036.1-.071,0.1-0.106,0.1v0.1h-0.07v0.1c-0.035,0-.071,0-0.106.1h0c-0.023,0-.047.1-0.07,0.1h0c-0.035.1-.07,0.1-0.1,0.1v0.1H385.2v0.1c-0.035,0-.07,0-0.105.1h0c-0.024,0-.047.1-0.071,0.1h0c-0.035.1-.07,0.1-0.105,0.1v0.1h-0.07v0.1c-0.035,0-.071,0-0.106.1h0c-0.023,0-.047.1-0.07,0.1h0c-0.035.1-.07,0.1-0.106,0.1v0.1h-0.07v0.1c-0.035,0-.07,0-0.105.1h0c-0.024,0-.047.1-0.071,0.1h0c-0.035.1-.07,0.1-0.1,0.1v0.1h-0.07c-0.012.1-.024,0.1-0.036,0.1h-0.07a1.629,1.629,0,0,1-.141-0.2c-0.035,0-.07-0.1-0.105-0.1v-0.1h-0.1v-0.1h-0.071c-0.012-.1-0.023-0.1-0.035-0.2h-0.1v-0.1H383.4c-0.011-.1-0.023-0.1-0.035-0.1-0.035-.1-0.07-0.1-0.105-0.1v-0.1c-0.036,0-.071,0-0.106-0.1h0c-0.035-.1-0.07-0.1-0.105-0.1v-0.1h-0.106v-0.1c-0.035,0-.07-0.1-0.105-0.1v-0.1h-0.106v-0.1c-0.035,0-.07,0-0.1-0.1h0c-0.035-.1-0.071-0.1-0.106-0.1v-0.1h-0.07c-0.012-.1-0.023-0.1-0.035-0.1-0.035-.1-0.07-0.1-0.106-0.1v-0.1h-0.07c-0.012,0-.023-0.1-0.035-0.1-0.035,0-.07-0.1-0.105-0.1v-0.1H382v-0.1c-0.035,0-.07-0.1-0.1-0.1h0c-0.036-.1-0.071-0.1-0.106-0.1v-0.1c-0.035,0-.07,0-0.105-0.1h0c-0.036-.1-0.071-0.1-0.106-0.1v-0.1c-0.035,0-.07,0-0.105-0.1h0c-0.035,0-.071-0.1-0.106-0.1v-0.1h-0.105v-0.1c-0.035,0-.071-0.1-0.106-0.1v-0.1h-0.07c-0.023,0-.047-0.1-0.07-0.1h-0.071c-0.011.1-.023,0.2-0.035,0.3h-0.07c-0.024.1-.047,0.2-0.07,0.3H380.73v0.1H380.7c-0.023.1-.047,0.2-0.07,0.3-0.335.8-.58,1.7-0.914,2.5-0.023.1-.047,0.2-0.07,0.3h-0.036v0.1H379.57a0.737,0.737,0,0,0-.035.2H379.5v0.1h-0.035v0.1H379.43v0.1h-0.036v0.1h-0.035a0.423,0.423,0,0,1-.07.2H375c0.105-.4.211-0.9,0.316-1.3h1.125c0.253-.6.451-1.4,0.7-2,0.07-.2.14-0.5,0.21-0.8h0.071c0.023-.1.047-0.2,0.07-0.3h0.035c0.012-.1.024-0.2,0.035-0.3H377.6v-0.1h0.036v-0.1h0.035v-0.1h0.035v-0.1h0.035v-0.1h0.035c0.024-.1.047-0.2,0.071-0.3h0.035v-0.1h0.035c0.012-.1.023-0.1,0.035-0.2h0.035v-0.1h0.035v-0.1h0.036v-0.1h0.035v-0.1h0.035v-0.1h0.035v-0.2H378.2a0.659,0.659,0,0,0,.035-0.2h0.035c0.024-.1.047-0.2,0.071-0.3h0.035v-0.1h0.035v-0.1h0.035v-0.1h0.035v-0.1h0.036v-0.1h0.035v-0.1h0.035v-0.1h0.035v-0.1h0.035v-0.1h0.035v-0.1h0.036v-0.1h0.035v-0.1H378.8c0.011-.1.023-0.2,0.035-0.3h0.07a3.047,3.047,0,0,0,.071-0.4h0.035v-0.1h0.035v-0.1h0.035v-0.1h0.035v-0.1h0.035v-0.1h0.036c0.023-.1.046-0.2,0.07-0.3h0.035a0.7,0.7,0,0,1,.035-0.2h0.035v-0.1h0.035v-0.1h0.036c0.023-.1.046-0.2,0.07-0.3h0.035a3.256,3.256,0,0,1,.141-0.5h0.07a1.34,1.34,0,0,1,.211.3c0.035,0.1.07,0.1,0.105,0.1v0.1h0.106v0.1c0.023,0,.047,0,0.07.1,0.012,0,.024,0,0.035.1h0.106v0.1h0.07c0.012,0.1.024,0.1,0.035,0.1,0.035,0.1.071,0.1,0.106,0.1v0.1c0.035,0,.07,0,0.105.1h0c0.035,0.1.071,0.1,0.106,0.1v0.1h0.105v0.1c0.035,0,.071.1,0.106,0.1v0.1h0.105v0.1h0.07v0.1c0.036,0,.071.1,0.106,0.1v0.1H381.4v0.1c0.036,0,.071,0,0.106.1h0c0.035,0.1.07,0.1,0.1,0.1v0.1c0.035,0,.071,0,0.106.1h0c0.035,0.1.07,0.1,0.105,0.1v0.1h0.106v0.1c0.035,0,.07.1,0.105,0.1v0.1h0.106v0.1h0.07c0.012,0.1.023,0.1,0.035,0.1,0.035,0.1.07,0.1,0.106,0.1v0.1h0.07c0.012,0.1.023,0.1,0.035,0.1,0.035,0.1.07,0.1,0.105,0.1v0.1h0.106v0.1c0.035,0,.07.1,0.106,0.1v0.1h0.105v0.1c0.035,0,.07.1,0.105,0.1h0c0.036,0.1.071,0.1,0.106,0.1v0.1c0.035,0,.07,0,0.1.1h0c0.035,0.1.071,0.1,0.106,0.1v0.1c0.035,0,.07,0,0.1.1h0c0.035,0,.071.1,0.106,0.1v0.1h0.105v0.1c0.035,0,.071.1,0.106,0.1v0.1h0.105v0.1h0.07c0.024,0.1.047,0.1,0.071,0.2,0.07,0,.03,0,0.07-0.1,1.324-1.9,2.649-3.9,3.973-5.8h0.035c1.16,3.2,2.32,6.4,3.48,9.7h1.161Z" transform="translate(-375 -10451)"/>
</svg>
