<svg xmlns="http://www.w3.org/2000/svg" width="14.03" height="6" viewBox="0 0 14.03 6">
  <defs>
    <style>
      .cls-1 {
        fill: #6686b3;
        fill-rule: evenodd;
      }
    </style>
  </defs>
  <path id="arrow" class="cls-1" d="M1220.38,913.022a10.963,10.963,0,0,0,.05,1.921,1.151,1.151,0,0,0,.28.079V915h0.08c0.04-.045.07-0.088,0.11-0.131h0.05c0.09-.089.17-0.176,0.25-0.264h0.06l0.27-.289h0.06c0.06-.07.12-0.14,0.19-0.21h0.02l0.03-.054h0.06c0.08-.086.16-0.175,0.24-0.262h0.06c0.08-.088.16-0.177,0.24-0.263h0.06l0.27-.29h0.06c0.08-.088.16-0.175,0.25-0.263h0.05c0.06-.07.13-0.14,0.19-0.21h0.03l0.03-.054h0.05c0.09-.1.18-0.192,0.28-0.289h0.05l0.27-.29v-0.158a0.261,0.261,0,0,1-.05-0.1c-0.04-.027-0.07-0.053-0.11-0.079v-0.027h-0.05c-0.11-.105-0.21-0.21-0.31-0.315h-0.05l-0.3-.316h-0.06c-0.07-.079-0.14-0.158-0.22-0.238a0.8,0.8,0,0,0-.08-0.052v-0.026h-0.05c-0.1-.105-0.2-0.211-0.31-0.316h-0.05c-0.07-.079-0.15-0.158-0.22-0.237-0.04-.026-0.07-0.052-0.11-0.079v-0.026H1222c-0.1-.106-0.2-0.21-0.31-0.316h-0.05c-0.07-.08-0.15-0.157-0.22-0.237-0.03-.018-0.05-0.035-0.08-0.053v-0.026h-0.06l-0.3-.315h-0.05l-0.03-.053a0.4,0.4,0,0,0-.3-0.132v0.027h-0.08l-0.09.105a0.97,0.97,0,0,0-.05.5v1.369h-9.29a3.594,3.594,0,0,0-1.02.052,4.133,4.133,0,0,0-.08,1.395,0.549,0.549,0,0,0,.11.5,1.507,1.507,0,0,0,.69.052h9.59Z" transform="translate(-1210 -909.031)"/>
</svg>
