<svg xmlns="http://www.w3.org/2000/svg" width="40" height="40" viewBox="0 0 40 40">
  <defs>
    <style>
      .cls-1 {
        fill: #fff;
        fill-rule: evenodd;
      }
    </style>
  </defs>
  <path id="_" data-name="+" class="cls-1" d="M955.879,9514a15.808,15.808,0,0,1,9.447,2.43c0.1,0.02.208,0.05,0.312,0.07,0.026,0.06.052,0.11,0.078,0.16h0.156c0.027,0.05.052,0.1,0.079,0.16h0.156c0.052,0.08.1,0.15,0.156,0.23h0.156l0.156,0.24h0.156c0.052,0.07.1,0.15,0.157,0.23h0.156c0.13,0.16.26,0.31,0.39,0.47h0.156c0.286,0.31.573,0.62,0.859,0.94l0.468,0.39v0.15c0.131,0.11.261,0.21,0.391,0.32v0.15l0.312,0.24c0.026,0.08.052,0.15,0.078,0.23,0.052,0.03.1,0.05,0.156,0.08v0.16a1.163,1.163,0,0,1,.157.08v0.15c0.078,0.05.156,0.11,0.234,0.16,0.026,0.1.052,0.21,0.078,0.31,0.052,0.03.1,0.05,0.156,0.08,0.026,0.08.052,0.16,0.078,0.23h0.078c0.026,0.11.052,0.21,0.078,0.32,0.052,0.02.1,0.05,0.156,0.07,0.052,0.16.105,0.32,0.157,0.47H971.1v0.16h0.078v0.15h0.078v0.16h0.078c0.052,0.16.1,0.31,0.156,0.47h0.078v0.23h0.078v0.16h0.078v0.23h0.078v0.16h0.078c0.026,0.16.052,0.31,0.079,0.47h0.078v0.16h0.078v0.31H972.2v0.23h0.078v0.24h0.078v0.31h0.078v0.31h0.078v0.39h0.078v0.4h0.078v0.46h0.078c0.026,0.5.052,0.99,0.078,1.49H972.9a5.84,5.84,0,0,1-.078,1.87c-0.026.5-.052,0.99-0.078,1.49h-0.078v0.47h-0.078v0.39h-0.078v0.39h-0.078v0.31h-0.078v0.32h-0.078v0.23H972.2v0.23h-0.078v0.24h-0.078v0.23h-0.078c-0.027.16-.053,0.32-0.079,0.47h-0.078v0.16h-0.078v0.23H971.65v0.16h-0.078v0.23h-0.078c-0.052.16-.1,0.32-0.156,0.47H971.26v0.16h-0.078v0.16H971.1v0.15h-0.078v0.16h-0.078v0.15a1.225,1.225,0,0,1-.157.08c-0.052.16-.1,0.32-0.156,0.47-0.052.03-.1,0.05-0.156,0.08v0.16c-0.052.02-.1,0.05-0.156,0.07v0.16c-0.052.03-.1,0.05-0.156,0.08v0.15h-0.078l-0.078.24c-0.052.03-.105,0.05-0.157,0.08v0.15a1.153,1.153,0,0,1-.156.08l-0.078.24h-0.078a0.794,0.794,0,0,0-.234.39,5.707,5.707,0,0,1,1.015,1.01l0.312,0.24c0.6,0.62,1.2,1.25,1.8,1.87l6.012,5.94,1.327,1.41c0.234,0.21.469,0.42,0.7,0.62l0.468,0.63a2.016,2.016,0,0,1,0,.94v0.31h-0.078a1.891,1.891,0,0,1-.78.86,1.977,1.977,0,0,1-.937,0h-0.313v-0.08a2.136,2.136,0,0,1-.937-0.78c-0.572-.57-1.145-1.15-1.717-1.72q-3.318-3.285-6.637-6.56l-1.8-1.8a2.032,2.032,0,0,0-.78-0.71,1.8,1.8,0,0,1-.7.55c-0.026.05-.052,0.11-0.078,0.16h-0.156l-0.078.15h-0.157c-0.026.06-.052,0.11-0.078,0.16H965.56c-0.026.05-.052,0.1-0.078,0.16a2.156,2.156,0,0,0-.234.08v0.07c-0.1.03-.208,0.06-0.313,0.08-0.025.05-.052,0.11-0.078,0.16H964.7v0.08h-0.156v0.07h-0.156v0.08h-0.156v0.08h-0.156v0.08h-0.156v0.08l-0.469.15v0.08c-0.937.31-1.874,0.63-2.811,0.94h-0.39v0.08H959.86v0.08h-0.468v0.07h-0.625v0.08c-0.91.03-1.821,0.05-2.732,0.08v-0.08H955.1v-0.08h-0.547v-0.07h-0.468v-0.08h-0.391v-0.08H953.3c-0.937-.31-1.874-0.63-2.811-0.94v-0.08l-0.468-.15v-0.08h-0.156v-0.08H949.71v-0.08h-0.156v-0.08H949.4v-0.07h-0.156v-0.08h-0.156c-0.026-.05-0.052-0.11-0.078-0.16-0.1-.02-0.208-0.05-0.313-0.08v-0.07a2.156,2.156,0,0,0-.234-0.08c-0.026-.06-0.052-0.11-0.078-0.16-0.1-.02-0.208-0.05-0.312-0.08-0.052-.08-0.1-0.15-0.156-0.23h-0.157c-0.025-.05-0.052-0.11-0.078-0.16h-0.156c-0.052-.08-0.1-0.15-0.156-0.23h-0.156c-0.026-.06-0.052-0.11-0.078-0.16h-0.078c-0.026-.05-0.052-0.1-0.078-0.16h-0.156l-0.313-.39h-0.156c-0.208-.23-0.416-0.46-0.624-0.7-0.235-.21-0.469-0.42-0.7-0.62v-0.16l-0.469-.39v-0.16l-0.234-.15-0.078-.24a1.153,1.153,0,0,1-.156-0.08v-0.15c-0.052-.03-0.1-0.05-0.156-0.08v-0.16l-0.235-.15v-0.16c-0.052-.03-0.1-0.05-0.156-0.08-0.026-.1-0.052-0.21-0.078-0.31-0.052-.03-0.1-0.05-0.156-0.08-0.026-.1-0.052-0.21-0.078-0.31-0.052-.03-0.1-0.05-0.156-0.08v-0.16H943v-0.15h-0.078v-0.16H942.84v-0.15h-0.078v-0.16h-0.079v-0.16h-0.078c-0.052-.15-0.1-0.31-0.156-0.47h-0.078l-0.078-.39h-0.078v-0.15h-0.078v-0.24h-0.078v-0.23h-0.078v-0.16H941.9v-0.23h-0.078c-0.026-.19-0.052-0.37-0.078-0.55h-0.078v-0.23H941.59v-0.32h-0.078v-0.31h-0.078v-0.31h-0.078v-0.39h-0.078v-0.47H941.2l-0.078-1.41h-0.078a8.658,8.658,0,0,1,.078-2.19c0.026-.47.052-0.94,0.078-1.4h0.078v-0.47c0.122-.41.259-0.94,0.391-1.33v-0.31h0.078v-0.24h0.078v-0.23H941.9v-0.24h0.078v-0.15h0.078c0.026-.16.052-0.32,0.078-0.47h0.078v-0.16h0.078v-0.23h0.078c0.052-.16.1-0.32,0.156-0.47h0.078v-0.16h0.078v-0.16h0.079v-0.15h0.078v-0.16h0.078v-0.15H943v-0.16h0.078v-0.16h0.078v-0.15h0.078l0.078-.24a1.153,1.153,0,0,0,.156-0.08c0.026-.1.052-0.2,0.078-0.31h0.078c0.026-.08.052-0.15,0.078-0.23,0.053-.03.105-0.05,0.157-0.08v-0.16c0.052-.02.1-0.05,0.156-0.07l0.078-.24c0.078-.05.156-0.1,0.234-0.16v-0.15c0.052-.03.1-0.05,0.156-0.08,0.026-.08.052-0.16,0.078-0.23,0.156-.13.313-0.27,0.469-0.4v-0.15l0.7-.63c0.208-.23.416-0.47,0.624-0.7h0.156c0.13-.16.261-0.31,0.391-0.47h0.156c0.052-.08.1-0.16,0.156-0.23h0.156l0.156-.24h0.156c0.053-.08.105-0.15,0.157-0.23h0.156c0.026-.06.052-0.11,0.078-0.16,0.078-.03.156-0.05,0.234-0.08v-0.08c0.1-.02.208-0.05,0.312-0.07,0.026-.06.052-0.11,0.078-0.16,0.1-.03.209-0.05,0.313-0.08l0.078-.15h0.156v-0.08H949.4v-0.08h0.156v-0.08h0.156v-0.08h0.157v-0.08h0.156v-0.07c0.156-.06.312-0.11,0.468-0.16v-0.08h0.234v-0.08c0.105-.02.209-0.05,0.313-0.07v-0.08c0.156-.03.312-0.05,0.468-0.08v-0.08h0.156v-0.08H951.9v-0.08h0.234v-0.07h0.234v-0.08h0.312c0.391-.13.919-0.27,1.328-0.39h0.468v-0.08H955.1v-0.08A2.294,2.294,0,0,0,955.879,9514Zm0.078,3.13a4.953,4.953,0,0,1-1.172.16v0.07h-0.468c-0.755.24-1.51,0.47-2.264,0.71v0.08H951.9v0.07h-0.235v0.08c-0.156.05-.312,0.11-0.468,0.16v0.08c-0.1.02-.208,0.05-0.312,0.07-0.026.06-.052,0.11-0.078,0.16-0.157.05-.313,0.11-0.469,0.16l-0.078.15H950.1v0.08h-0.156l-0.156.24h-0.157l-0.078.15H949.4c-0.026.05-.052,0.11-0.078,0.16-0.078.03-.156,0.05-0.234,0.08-0.078.1-.156,0.2-0.234,0.31H948.7c-0.208.23-.416,0.47-0.624,0.7h-0.156c-0.026.05-.052,0.11-0.078,0.16h-0.079v0.16c-0.234.2-.468,0.41-0.7,0.62v0.16l-0.234.15v0.16c-0.078.05-.157,0.1-0.235,0.16v0.15c-0.078.05-.156,0.11-0.234,0.16v0.15a1.153,1.153,0,0,1-.156.08c-0.026.11-.052,0.21-0.078,0.32-0.052.02-.1,0.05-0.156,0.07-0.026.11-.052,0.21-0.078,0.32-0.052.02-.1,0.05-0.156,0.07-0.027.11-.053,0.21-0.079,0.32h-0.078v0.15h-0.078c-0.052.16-.1,0.32-0.156,0.47H945.26v0.24h-0.078c-0.026.1-.052,0.21-0.078,0.31h-0.078c-0.234.83-.469,1.67-0.7,2.5v0.55a10.2,10.2,0,0,0,.234,4.69c0.026,0.21.052,0.41,0.078,0.62h0.078v0.24h0.079v0.23h0.078v0.24h0.078v0.23h0.078v0.16H945.1v0.23h0.078v0.16h0.078v0.23h0.078c0.052,0.16.1,0.31,0.156,0.47h0.078c0.026,0.1.052,0.21,0.078,0.31a1.163,1.163,0,0,0,.157.08c0.052,0.16.1,0.31,0.156,0.47h0.078c0.026,0.08.052,0.16,0.078,0.23a1.153,1.153,0,0,0,.156.08v0.16h0.078c0.026,0.08.052,0.16,0.078,0.23a1.153,1.153,0,0,0,.156.08v0.16a1.225,1.225,0,0,1,.157.08c0.025,0.07.052,0.15,0.078,0.23l0.312,0.24v0.15c0.26,0.24.52,0.47,0.781,0.7,0.234,0.27.468,0.53,0.7,0.79h0.156l0.313,0.39h0.156c0.052,0.07.1,0.15,0.156,0.23h0.156c0.026,0.05.052,0.11,0.078,0.16a2.172,2.172,0,0,1,.235.08v0.07h0.156c0.026,0.06.052,0.11,0.078,0.16h0.156c0.026,0.05.052,0.1,0.078,0.16l0.469,0.15c0.026,0.05.052,0.11,0.078,0.16,0.1,0.03.208,0.05,0.312,0.08v0.08c0.1,0.02.208,0.05,0.312,0.07v0.08h0.234v0.08c0.105,0.03.209,0.05,0.313,0.08v0.08c0.156,0.02.312,0.05,0.468,0.07v0.08h0.156v0.08h0.235v0.08h0.234v0.08h0.234v0.07h0.312v0.08h0.313v0.08h0.39v0.08h0.39v0.08c0.443,0.02.885,0.05,1.328,0.08a5.369,5.369,0,0,0,1.718.07v-0.07h0.78v-0.08h0.547v-0.08c0.26-.03.52-0.05,0.781-0.08v-0.08h0.312v-0.08c0.182-.02.364-0.05,0.546-0.07v-0.08h0.235v-0.08h0.234v-0.08H961.5a12.333,12.333,0,0,0,5.231-3.83c0.13-.1.261-0.21,0.391-0.31,0.026-.08.052-0.16,0.078-0.23a1.153,1.153,0,0,1,.156-0.08v-0.16a1.153,1.153,0,0,0,.156-0.08c0.026-.07.052-0.15,0.078-0.23h0.078v-0.16a1.153,1.153,0,0,0,.156-0.08c0.026-.1.052-0.2,0.078-0.31a1.107,1.107,0,0,0,.157-0.08c0.052-.15.1-0.31,0.156-0.47,0.052-.02.1-0.05,0.156-0.07v-0.16h0.078c0.026-.1.052-0.21,0.078-0.31h0.078v-0.24h0.078c0.026-.1.052-0.21,0.078-0.31h0.078l0.078-.39H969v-0.23h0.078v-0.24h0.078v-0.23h0.078c0.026-.19.052-0.37,0.078-0.55h0.078v-0.31h0.078l0.078-.78h0.078c0.026-.45.052-0.89,0.078-1.33h0.078a5.245,5.245,0,0,0-.078-1.72c-0.026-.45-0.052-0.89-0.078-1.33h-0.078l-0.078-.78h-0.078l-0.078-.63H969.23v-0.23h-0.078v-0.24h-0.078v-0.23H969v-0.24h-0.079v-0.15h-0.078v-0.24h-0.078c-0.026-.1-0.052-0.21-0.078-0.31h-0.078v-0.23h-0.078c-0.026-.11-0.052-0.21-0.078-0.32h-0.078c-0.026-.1-0.052-0.2-0.078-0.31a12.845,12.845,0,0,0-3.2-3.75c-0.078-.11-0.157-0.21-0.235-0.31-0.078-.03-0.156-0.05-0.234-0.08-0.026-.05-0.052-0.11-0.078-0.16h-0.156l-0.078-.15a2.156,2.156,0,0,0-.234-0.08v-0.08h-0.156c-0.026-.05-0.053-0.1-0.079-0.16-0.078-.02-0.156-0.05-0.234-0.07v-0.08c-0.1-.03-0.208-0.05-0.312-0.08-0.026-.05-0.052-0.11-0.078-0.16-0.1-.02-0.208-0.05-0.312-0.08v-0.07h-0.157v-0.08c-0.156-.05-0.312-0.11-0.468-0.16v-0.08h-0.234v-0.07c-0.1-.03-0.209-0.06-0.313-0.08v-0.08c-0.832-.24-1.665-0.47-2.5-0.7h-0.547A10.784,10.784,0,0,0,955.957,9517.13Zm2.576,11.25h4.841a4.832,4.832,0,0,1,2.03.16,1.812,1.812,0,0,1,.781,1.72h-0.078l-0.078.39h-0.078v0.16c-0.052.02-.105,0.05-0.157,0.07v0.16c-0.078.03-.156,0.05-0.234,0.08-0.026.05-.052,0.1-0.078,0.16-0.1.02-.208,0.05-0.312,0.07v0.08a6.417,6.417,0,0,1-2.03.08h-4.607v4.77a4.753,4.753,0,0,1-.234,2.19c-0.052.02-.1,0.05-0.156,0.07v0.16c-0.078.03-.156,0.05-0.234,0.08-0.027.05-.052,0.1-0.078,0.15h-0.157v0.08a2.078,2.078,0,0,1-1.015.16v-0.08c-0.156-.03-0.312-0.05-0.468-0.08l-0.078-.15h-0.156l-0.469-.63a6.388,6.388,0,0,1-.078-2.03v-4.69h-6.4v-0.08h-0.235v-0.08h-0.234l-0.078-.15h-0.156l-0.156-.24h-0.078v-0.15h-0.078a1.073,1.073,0,0,0-.156-0.24,2.017,2.017,0,0,1,0-.94v-0.31h0.078a1.45,1.45,0,0,1,.39-0.62h0.156c0.026-.06.052-0.11,0.078-0.16a4.42,4.42,0,0,1,1.874-.16h5v-6.48h0.078v-0.24c0.156-.21.312-0.41,0.469-0.62h0.156v-0.08a1.128,1.128,0,0,0,.234-0.16,1.978,1.978,0,0,1,.937,0H957.6v0.08c0.926,0.23.937,1.24,0.937,2.42v5.08Z" transform="translate(-941 -9514)"/>
</svg>
