<?xml version="1.0" standalone="no"?>
<!DOCTYPE svg PUBLIC "-//W3C//DTD SVG 20010904//EN"
 "http://www.w3.org/TR/2001/REC-SVG-20010904/DTD/svg10.dtd">
<svg version="1.0" xmlns="http://www.w3.org/2000/svg"
 width="152.000000pt" height="152.000000pt" viewBox="0 0 152.000000 152.000000"
 preserveAspectRatio="xMidYMid meet">
<metadata>
Created by potrace 1.11, written by Peter Selinger 2001-2013
</metadata>
<g transform="translate(0.000000,152.000000) scale(0.100000,-0.100000)"
fill="#000000" stroke="none">
<path d="M437 1483 c-2 -4 -8 -44 -12 -88 -7 -87 -11 -131 -19 -215 -3 -30 -8
-84 -11 -120 -9 -113 -16 -184 -20 -230 -2 -25 -7 -74 -10 -110 -3 -36 -8 -85
-10 -110 -5 -52 -11 -116 -25 -290 -6 -69 -13 -141 -15 -160 -12 -111 -11
-125 13 -128 78 -11 192 94 192 178 0 18 6 20 53 19 59 -2 91 11 124 48 21 24
28 50 37 148 17 172 18 177 45 206 22 25 36 30 91 35 134 11 227 57 281 139
35 54 49 109 49 191 0 113 -53 199 -142 233 -22 8 -29 19 -34 49 -15 95 -85
166 -192 193 -71 18 -386 28 -395 12z m439 -282 c15 -29 1 -77 -26 -91 -72
-38 -136 46 -78 100 31 29 88 24 104 -9z m166 -67 c-1 -120 -85 -215 -279
-314 -180 -91 -228 -179 -240 -440 l-7 -135 -13 55 c-19 79 -22 233 -8 317 25
139 104 265 197 310 24 12 77 35 119 52 42 18 95 48 119 68 44 38 89 119 91
163 l0 25 11 -25 c5 -14 10 -48 10 -76z"/>
</g>
</svg>
