<svg xmlns="http://www.w3.org/2000/svg" width="20" height="20" viewBox="0 0 20 20">
  <defs>
    <style>
      .cls-1 {
        fill: #6686b3;
        fill-rule: evenodd;
      }
    </style>
  </defs>
  <path id="Фигура_4" data-name="Фигура 4" class="cls-1" d="M405.312,3428a1.914,1.914,0,0,1,.313.31c0.247,0.24.5,0.47,0.742,0.7a0.6,0.6,0,0,0,.039.08l1.6,1.56c0.26,0.28.521,0.55,0.781,0.83,0.26,0.24.521,0.49,0.781,0.74a1.047,1.047,0,0,0,.078.11,1.481,1.481,0,0,1,.352.36c-0.208.19-.417,0.39-0.625,0.58l-0.195.24-1.953-1.92-0.86.9,0.313,0.27c0.208,0.23.416,0.45,0.625,0.67a0.961,0.961,0,0,1,.351.39,1.553,1.553,0,0,0-.312.31c-0.248.25-.5,0.5-0.743,0.74a1.114,1.114,0,0,0-.39.43c0.195,0.18.39,0.37,0.586,0.55a0.132,0.132,0,0,1-.039.04,3.109,3.109,0,0,1-.547.54,0.548,0.548,0,0,1-.273.24c-0.131-.14-0.261-0.29-0.391-0.43-0.044.03-.006-0.01-0.039,0.04q-3.144,3.12-6.289,6.25c-0.443.45-.886,0.91-1.328,1.36-0.079.07-.157,0.13-0.235,0.2-0.169.18-.338,0.36-0.508,0.55h-0.234a0.923,0.923,0,0,0-.391-0.08v-0.04h-0.2c-0.283-.09-0.651-0.15-0.937-0.24h-0.2a2.091,2.091,0,0,0-.547-0.11c-1.262,1.27-2.526,2.55-3.789,3.82-0.044-.03,0,0.01-0.039-0.03a2.662,2.662,0,0,1-.39-0.39,2.535,2.535,0,0,1-.43-0.43,1.606,1.606,0,0,0,.273-0.28l0.665-.66,1.6-1.56c0.13-.15.26-0.29,0.391-0.43,0.3-.29.6-0.58,0.9-0.86v-0.2a0.8,0.8,0,0,1-.078-0.35h-0.039v-0.19h-0.039v-0.2c-0.07-.22-0.127-0.52-0.2-0.74v-0.2a2.137,2.137,0,0,1-.117-0.62,1.3,1.3,0,0,0,.274-0.28c0.195-.19.39-0.39,0.586-0.58,0.117-.11.234-0.21,0.351-0.31,0.508-.52,1.016-1.04,1.524-1.57,0.442-.43.885-0.85,1.328-1.28,0.859-.88,1.719-1.75,2.578-2.62,0.3-.29.6-0.57,0.9-0.86,0.1-.12.209-0.23,0.313-0.35a3.234,3.234,0,0,0,.547-0.55,1.218,1.218,0,0,1-.43-0.47,1.979,1.979,0,0,0,.391-0.39,2.249,2.249,0,0,0,.39-0.39,0.07,0.07,0,0,1,.039.04,4.561,4.561,0,0,0,.625.55c0.469-.48.938-0.97,1.407-1.45a0.861,0.861,0,0,1,.351.31c0.339,0.33.677,0.66,1.016,0.98,0.169-.18.338-0.36,0.508-0.55,0.117-.1.234-0.2,0.351-0.31a0.227,0.227,0,0,0-.117-0.12c-0.115-.12-0.233-0.23-0.351-0.35l-1.016-1.05-0.43-.39C404.766,3428.57,405.039,3428.29,405.312,3428Zm-1.132,3.98c-0.144.16-.287,0.32-0.43,0.47-0.065.05-.13,0.11-0.195,0.16a0.305,0.305,0,0,0,.156.15c0.155,0.16.312,0.32,0.469,0.47,0.221,0.24.442,0.47,0.664,0.71l0.195,0.15a1.3,1.3,0,0,0,.352.35l0.351-.39a0.7,0.7,0,0,0,.274-0.31l-1.329-1.29A1.7,1.7,0,0,0,404.18,3431.98Zm-9.219,11.06c0.6,0.11,1.2.23,1.8,0.35l5.9-5.94c0.43-.42.86-0.83,1.289-1.25,0.052-.06.1-0.13,0.157-0.19a2.464,2.464,0,0,0,.585-0.63c-0.52-.51-1.041-1.01-1.562-1.52a2.117,2.117,0,0,0-.586-0.55c-0.443.46-.885,0.91-1.328,1.37a1.81,1.81,0,0,0-.508.54c0.234,0.23.469,0.45,0.7,0.67a0.132,0.132,0,0,1-.039.04c-0.26.27-.521,0.54-0.781,0.82a0.132,0.132,0,0,1-.039-0.04c-0.169-.16-0.339-0.31-0.508-0.47a0.494,0.494,0,0,0-.234-0.2l-0.86.9a0.852,0.852,0,0,0-.312.35,1.236,1.236,0,0,1,.234.24c0.2,0.19.391,0.39,0.586,0.58a0.822,0.822,0,0,1,.313.36,1.952,1.952,0,0,0-.391.39,1.927,1.927,0,0,0-.391.39,0.145,0.145,0,0,1-.039-0.04l-0.82-.78a0.679,0.679,0,0,0-.391-0.32l-0.859.9a0.852,0.852,0,0,0-.312.35c0.234,0.23.468,0.45,0.7,0.67a0.126,0.126,0,0,1-.04.04,3.1,3.1,0,0,1-.546.54,0.546,0.546,0,0,1-.274.24,2.373,2.373,0,0,0-.742-0.67c-0.247.26-.5,0.52-0.742,0.79a0.649,0.649,0,0,0-.313.39,1.015,1.015,0,0,1,.078.39h0.04v0.19h0.039C394.831,3442.31,394.9,3442.67,394.961,3443.04Z" transform="translate(-390 -3428)"/>
</svg>
