<svg xmlns="http://www.w3.org/2000/svg" width="30" height="30" viewBox="0 0 30 30">
  <defs>
    <style>
      .cls-1 {
        fill: #72bcb2;
        fill-rule: evenodd;
      }
    </style>
  </defs>
  <path id="facebook" class="cls-1" d="M324.065,135l2.572,0.058v0.059l0.876,0.058v0.058h0.293v0.059H328.1v0.059h0.234v0.058l0.526,0.059,1.753,0.585v0.058l0.234,0.059v0.059h0.175v0.058l0.351,0.117v0.059h0.117v0.058h0.117v0.058h0.117v0.059h0.117V136.7h0.117v0.058h0.117v0.059h0.116v0.058h0.117l0.059,0.117,0.35,0.117v0.059l0.176,0.059c0.019,0.039.039,0.078,0.058,0.116l0.234,0.059v0.059l0.175,0.058,0.059,0.117h0.117l0.117,0.176h0.117l0.116,0.175H334l0.117,0.176h0.117l0.176,0.234h0.116l0.234,0.292h0.117l0.994,1.054,0.351,0.292v0.118l0.35,0.292v0.117l0.234,0.176v0.117l0.175,0.117v0.117l0.176,0.117v0.117l0.117,0.059V141.5c0.058,0.038.117,0.077,0.175,0.117,0.019,0.078.039,0.155,0.058,0.234l0.117,0.058v0.117l0.117,0.059V142.2l0.117,0.059c0.02,0.077.039,0.156,0.059,0.233l0.117,0.059v0.117h0.058v0.117h0.058V142.9h0.059v0.117h0.058v0.117h0.059v0.117h0.058v0.117h0.059v0.117H338.5V143.6h0.059l0.116,0.352h0.059v0.175h0.058c0.02,0.078.039,0.156,0.059,0.234h0.058q0.322,0.995.643,1.99l0.351,1.99v0.7h0.058a7.759,7.759,0,0,1-.058,1.873v0.7h-0.058v0.468h-0.059v0.351H339.73v0.352h-0.059v0.292h-0.058c-0.02.175-.039,0.351-0.059,0.527H339.5v0.175h-0.059v0.234h-0.058v0.234H339.32v0.176h-0.058V154.6H339.2v0.175h-0.059c-0.019.117-.039,0.234-0.058,0.351h-0.059v0.117H338.97v0.176h-0.059v0.117h-0.058v0.175h-0.059v0.118h-0.058v0.175h-0.059c-0.039.117-.077,0.235-0.116,0.351H338.5v0.117h-0.058v0.117h-0.059v0.117h-0.058v0.117h-0.059v0.118H338.21v0.116h-0.059v0.118h-0.058V157.3l-0.117.059-0.117.351-0.117.059v0.117l-0.117.059v0.116l-0.117.059c-0.019.078-.039,0.156-0.058,0.234l-0.175.117v0.117l-0.117.059v0.116l-0.117.059-0.059.176-0.175.117v0.117l-0.175.117c-0.02.059-.039,0.117-0.059,0.175l-0.35.293v0.117l-0.351.293-0.994,1.053h-0.117l-0.234.293h-0.116l-0.176.234h-0.117l-0.117.175h-0.117c-0.038.059-.077,0.117-0.116,0.176h-0.117l-0.117.175h-0.117l-0.059.118h-0.116c-0.02.039-.039,0.078-0.059,0.116l-0.234.059-0.058.117-0.176.058v0.059l-0.35.117-0.059.117h-0.117v0.059h-0.116v0.058h-0.117v0.059h-0.117v0.058h-0.117v0.059h-0.117v0.059h-0.117V163.5h-0.117v0.058l-0.351.118v0.058h-0.175v0.058l-0.234.059v0.059l-0.351.058v0.059h-0.116v0.058l-0.351.059V164.2h-0.175v0.059h-0.176v0.058h-0.175v0.059l-0.643.117v0.058l-0.526.059v0.058h-0.292v0.059h-0.351v0.058H327.1v0.059h-0.467v0.059h-0.7v0.058a7.785,7.785,0,0,1-1.87-.058h-0.7v-0.059H322.9v-0.059h-0.351v-0.058h-0.351V164.67H321.9v-0.058h-0.234v-0.059h-0.234V164.5h-0.292v-0.058h-0.175v-0.059h-0.234v-0.059h-0.175v-0.058h-0.176V164.2h-0.175v-0.058h-0.175v-0.059h-0.176v-0.058h-0.117v-0.059h-0.175V163.91h-0.117v-0.059h-0.175v-0.059h-0.117v-0.058h-0.176v-0.058l-0.35-.118V163.5h-0.117v-0.058H318.4v-0.059h-0.117v-0.059h-0.117v-0.058h-0.117v-0.059h-0.117v-0.058H317.81V163.09h-0.116l-0.059-.117h-0.117v-0.058l-0.234-.059-0.058-.117h-0.117l-0.058-.117h-0.117l-0.059-.117-0.234-.058-0.117-.176h-0.116l-0.059-.117h-0.117l-0.117-.176H316c-0.04-.058-0.078-0.117-0.117-0.175h-0.117l-0.176-.234h-0.117l-0.292-.352h-0.117l-0.292-.35-0.994-.937v-0.117l-0.35-.293c-0.02-.058-0.039-0.116-0.059-0.175l-0.175-.117v-0.117l-0.176-.117c-0.019-.059-0.038-0.117-0.058-0.176l-0.117-.059v-0.116l-0.117-.059v-0.117l-0.175-.117c-0.02-.078-0.039-0.156-0.059-0.234l-0.117-.059v-0.116l-0.116-.059v-0.117l-0.117-.059-0.117-.351-0.117-.059V157.18h-0.059v-0.118H311.79v-0.116h-0.058v-0.118h-0.059v-0.117h-0.058v-0.117h-0.059v-0.117H311.5V156.36h-0.059c-0.039-.116-0.078-0.234-0.117-0.351h-0.058v-0.175h-0.059c-0.019-.079-0.039-0.157-0.058-0.235h-0.058c-0.02-.116-0.039-0.234-0.059-0.351h-0.058v-0.117h-0.059c-0.019-.117-0.039-0.234-0.058-0.351H310.8V154.6h-0.058v-0.176h-0.059v-0.176h-0.058c-0.02-.136-0.039-0.273-0.058-0.409H310.5c-0.019-.176-0.039-0.351-0.058-0.527h-0.059v-0.234h-0.058v-0.292H310.27v-0.352h-0.058v-0.351h-0.059V151.62H310.1v-0.7h-0.059a7.807,7.807,0,0,1,.059-1.873v-0.527l0.117-1h0.058v-0.351h0.059V146.88h0.058v-0.234h0.059c0.019-.176.039-0.351,0.058-0.527h0.059c0.019-.137.038-0.273,0.058-0.409h0.058v-0.176h0.059v-0.176H310.8v-0.176h0.059c0.019-.117.039-0.233,0.058-0.351h0.059v-0.117h0.058c0.02-.117.039-0.234,0.059-0.351q0.525-1.053,1.052-2.106l0.117-.059c0.019-.078.039-0.156,0.058-0.234h0.058l0.059-.176,0.117-.059v-0.116c0.058-.04.117-0.079,0.175-0.117v-0.117h0.059c0.019-.059.039-0.117,0.058-0.176l0.117-.058v-0.118l0.234-.175v-0.117l0.234-.176v-0.117l0.292-.234v-0.117l1.052-1,0.292-.351h0.117l0.292-.351h0.117l0.176-.234h0.117l0.175-.234h0.117l0.058-.117,0.176-.059v-0.058h0.116l0.117-.176h0.117l0.059-.117,0.234-.059v-0.058l0.175-.058c0.019-.04.039-0.079,0.058-0.118l0.234-.058,0.059-.117h0.117v-0.059h0.116v-0.058h0.117v-0.059h0.117V136.7h0.117v-0.059h0.117v-0.059H318.4v-0.058h0.117v-0.058h0.117V136.4l0.35-.117v-0.058h0.176V136.17h0.117v-0.059h0.175v-0.058h0.117v-0.059h0.175v-0.058h0.117v-0.059l0.351-.058v-0.058h0.175V135.7h0.176v-0.059h0.175v-0.058h0.234v-0.059h0.175v-0.058h0.234v-0.059l0.526-.058v-0.059h0.292v-0.059h0.351v-0.058H322.9v-0.058h0.467v-0.059A2.254,2.254,0,0,0,324.065,135Zm-1.4,12.465h-1.695v3.043h1.695v8.661h3.624v-8.661h2.455q0.146-1.521.292-3.043h-2.747v-2.107h0.058c0.02-.1.039-0.195,0.059-0.293,0.11-.059.24-0.189,0.35-0.234a9.931,9.931,0,0,1,2.222-.058v-2.926a3.548,3.548,0,0,0-.994-0.059h-1.987a3.6,3.6,0,0,1-.819.117v0.059l-0.526.117v0.058l-0.35.118v0.058h-0.117l-0.059.117h-0.117l-0.175.234h-0.117l-0.058.117H323.6V142.9l-0.234.175v0.118l-0.117.058c-0.019.078-.039,0.156-0.058,0.234H323.13V143.6h-0.059l-0.117.352H322.9c-0.02.136-.039,0.272-0.059,0.409h-0.058v0.293A11.453,11.453,0,0,0,322.662,147.465Z" transform="translate(-310 -135)"/>
</svg>
