<svg xmlns="http://www.w3.org/2000/svg" width="30" height="30" viewBox="0 0 30 30">
  <defs>
    <style>
      .cls-1 {
        fill: #72bcb2;
        fill-rule: evenodd;
      }
    </style>
  </defs>
  <path id="link" class="cls-1" d="M285.574,160.638h-0.117l-0.644.7H284.7l-0.234.293h-0.117c-0.019.038-.039,0.077-0.058,0.116h-0.059l-0.058.117h-0.117l-0.117.175h-0.117l-0.059.117h-0.117l-0.117.176h-0.117l-0.059.117h-0.117l-0.058.117-0.176.058v0.058l-0.234.059-0.058.117-0.235.058-0.058.117H282.3v0.059H282.18v0.058h-0.117v0.059h-0.117c-0.02.038-.039,0.077-0.059,0.116H281.77v0.059h-0.117v0.058h-0.175V163.5h-0.117v0.058l-0.352.117v0.059h-0.175v0.058l-0.234.058v0.059h-0.176v0.058h-0.117v0.059l-0.351.058v0.059H279.78V164.2h-0.175v0.059h-0.176v0.058h-0.175v0.059l-0.41.058V164.5H278.61v0.059h-0.234v0.058h-0.293v0.059h-0.292v0.058H277.5v0.058h-0.41v0.059H276.62v0.059h-0.7v0.058a7.862,7.862,0,0,1-1.873-.058h-0.526l-1-.118v-0.058h-0.351v-0.058H271.88v-0.059h-0.293v-0.058l-0.468-.059v-0.058l-0.409-.058V164.32h-0.176v-0.058h-0.176V164.2h-0.175v-0.058l-0.351-.059v-0.058h-0.117v-0.059l-0.352-.058v-0.059h-0.117v-0.058h-0.175v-0.058l-0.351-.117V163.56H268.6V163.5h-0.117v-0.059l-0.937-.409-0.058-.117-0.234-.058-0.059-.117h-0.117v-0.059h-0.117l-0.058-.116h-0.117v-0.059l-0.176-.058-0.059-.117h-0.117l-0.117-.176H266.2l-0.058-.117h-0.117c-0.059-.077-0.117-0.155-0.176-0.233h-0.117l-0.117-.175H265.5l-0.293-.351h-0.117l-0.058-.117-0.234-.176a1.08,1.08,0,0,0-.468-0.409v-0.116l-0.7-.644V159.7l-0.292-.234v-0.117l-0.117-.059v-0.058l-0.117-.059V159.06l-0.176-.118v-0.116l-0.117-.059V158.65l-0.176-.116v-0.117l-0.117-.059v-0.117l-0.117-.058c-0.019-.059-0.039-0.117-0.058-0.176h-0.059l-0.058-.233-0.117-.059c-0.02-.078-0.039-0.156-0.059-0.234l-0.117-.058v-0.117h-0.058v-0.117h-0.059v-0.117h-0.058v-0.117H261.7v-0.117l-0.117-.058v-0.117h-0.058v-0.117h-0.059v-0.175H261.4v-0.117h-0.058l-0.117-.351H261.17v-0.175h-0.058v-0.117h-0.059v-0.175H261v-0.117h-0.059c-0.019-.117-0.039-0.234-0.058-0.351h-0.059v-0.175h-0.058v-0.176H260.7v-0.175h-0.058v-0.176h-0.059v-0.233h-0.058v-0.175h-0.059v-0.234H260.41V153.39h-0.059V153.1h-0.058v-0.292h-0.059c-0.019-.233-0.039-0.468-0.059-0.7a8.495,8.495,0,0,1-.175-2.162v-0.878h0.058v-0.7q0.147-.876.293-1.754l0.7-2.221h0.059v-0.116h0.058V144.1h0.059l0.117-.351H261.4v-0.117h0.059l0.176-.525,0.117-.059v-0.117h0.058V142.81h0.059v-0.117h0.058v-0.117l0.117-.058c0.02-.078.039-0.156,0.059-0.234l0.117-.059c0.019-.077.039-0.155,0.058-0.233l0.117-.059v-0.117h0.059c0.019-.058.039-0.116,0.058-0.175l0.117-.059v-0.116l0.176-.117v-0.117l0.117-.058v-0.117c0.059-.039.117-0.079,0.176-0.117v-0.117l0.234-.176v-0.116l0.292-.234V140.18l0.586-.526,0.117-.234h0.117l0.7-.76h0.117l0.234-.292h0.117l0.059-.117h0.058l0.059-.117h0.117l0.117-.175h0.117l0.058-.117h0.117l0.117-.176h0.117l0.059-.117h0.117l0.059-.116,0.175-.059v-0.058h0.117v-0.058H267.2c0.02-.04.039-0.079,0.059-0.117l0.234-.059,0.058-.117h0.117v-0.059h0.117v-0.058H267.9V136.79h0.117v-0.059h0.117c0.02-.039.04-0.078,0.059-0.117h0.117v-0.058h0.117V136.5H268.6v-0.059h0.117V136.38l0.351-.116v-0.059h0.175v-0.058h0.117v-0.059h0.176V136.03h0.117v-0.059h0.176v-0.058h0.175v-0.058h0.176V135.8h0.175v-0.059h0.176v-0.058h0.176v-0.058l0.409-.059V135.5l0.468-.059v-0.058h0.293c0.279-.086.707-0.152,1-0.234l1.17-.058v-0.059a7.807,7.807,0,0,1,1.873.059h0.7l1.756,0.292a29.009,29.009,0,0,1,3.043,1.052V136.5l0.234,0.058v0.058l0.234,0.059,0.059,0.117h0.117v0.058h0.117v0.058H282.3v0.059h0.117l0.058,0.117h0.118v0.059h0.117c0.019,0.038.039,0.077,0.058,0.117L283,137.316v0.058l0.176,0.059c0.019,0.039.039,0.077,0.058,0.116h0.117v0.059l0.176,0.058,0.058,0.117H283.7l0.118,0.176h0.117l0.117,0.175h0.117l0.175,0.234h0.117l0.234,0.292h0.117l0.644,0.7,0.176,0.058v0.117l0.643,0.584v0.117c0.04,0.019.079,0.039,0.117,0.059v0.058l0.235,0.176v0.116l0.234,0.176L286.92,141l0.117,0.059v0.117l0.117,0.058v0.117l0.176,0.117v0.116l0.117,0.059c0.019,0.059.039,0.117,0.058,0.175h0.059v0.117l0.117,0.059c0.019,0.078.039,0.156,0.058,0.233l0.118,0.059c0.019,0.078.039,0.156,0.058,0.234l0.117,0.058v0.117h0.059v0.117h0.058v0.117h0.059v0.117h0.058v0.117l0.117,0.058c0.02,0.1.039,0.195,0.059,0.292H288.5v0.117h0.059v0.117h0.058l0.117,0.351h0.059l0.7,2.046,0.117,0.76c0.086,0.279.152,0.706,0.234,0.993v0.468H289.9v0.7h0.058a7.743,7.743,0,0,1-.058,1.871v0.7h-0.059V152.1h-0.058v0.351h-0.059v0.35h-0.058V153.1h-0.059c-0.019.176-.039,0.351-0.058,0.527H289.5v0.234l-0.585,1.753-1.053,2.1-0.118.059-0.058.233h-0.059c-0.019.059-.039,0.117-0.058,0.176l-0.117.058v0.117l-0.117.059v0.117l-0.176.116v0.117l-0.117.059v0.116l-0.234.176v0.117l-0.175.117v0.117l-0.352.292v0.117l-0.117.058A2.706,2.706,0,0,0,285.574,160.638Zm-6.437-19.231v0.059h-0.41l-1.112.409-0.058.117-0.235.058-0.117.175h-0.117c-0.1.118-.2,0.234-0.292,0.351a20.006,20.006,0,0,0-2.224,2.163,2.3,2.3,0,0,0-.936,1.169,1.273,1.273,0,0,1,.175.175h0.82a1.962,1.962,0,0,0,.585.117,2.6,2.6,0,0,0,.936.234,4.767,4.767,0,0,1,.819-0.818l1.171-1.169,0.351-.409h0.117l0.059-.117,0.234-.059V143.8h0.234v-0.059a2.215,2.215,0,0,1,1.053.059v0.058l0.234,0.059v0.058h0.117l0.234,0.293,0.234,0.175v0.116h0.059c0.019,0.079.039,0.156,0.059,0.234h0.058v0.176h0.058v0.35H281.3a0.154,0.154,0,0,1-.059.176c-0.019.195-.039,0.389-0.058,0.584h-0.058c-0.02.078-.04,0.156-0.059,0.234a4.21,4.21,0,0,1-.644.643l-0.644.7-1.931,1.87a3.854,3.854,0,0,1-1.521,1.228,2.321,2.321,0,0,1-1.4-.234l-0.234-.293h-0.117l-0.059-.116H274.4v-0.059h-0.175V150a1.945,1.945,0,0,0-.7,0,1.244,1.244,0,0,0-.586.527,1.3,1.3,0,0,0-.117,1.052l0.644,0.7a5.9,5.9,0,0,0,1.756.76h0.7a3.2,3.2,0,0,0,1.639-.35h0.117V152.63l0.351-.117v-0.058l0.175-.059,0.059-.117h0.117l1.873-1.929c0.136-.117.273-0.233,0.409-0.351l1.229-1.285a7.821,7.821,0,0,0,1.229-1.345v-0.117h0.059v-0.117h0.058V146.96h0.059v-0.117h0.058v-0.175h0.059v-0.176h0.058v-0.233h0.059V145.85h0.058a3.653,3.653,0,0,0-.234-1.7v-0.175h-0.058l-0.117-.351h-0.059v-0.117h-0.058c-0.02-.077-0.039-0.155-0.059-0.233l-0.117-.059V143.1c-0.058-.04-0.117-0.079-0.175-0.117v-0.117l-0.235-.176-0.351-.409H282l-0.117-.175H281.77l-0.058-.117-0.234-.059-0.059-.117h-0.176v-0.058l-0.234-.058v-0.059l-0.351-.059v-0.058h-0.292A4.253,4.253,0,0,0,279.137,141.407Zm-9.364,8.183h-0.117a0.878,0.878,0,0,0-.175.293h-0.118V150l-1.053.994-1.287,1.345c-0.02.078-.039,0.155-0.059,0.234l-0.117.058c-0.02.1-.039,0.195-0.058,0.292H266.73c-0.019.078-.039,0.156-0.059,0.234h-0.058c-0.02.117-.039,0.234-0.059,0.351a3.565,3.565,0,0,0-.175,1.519h0.058v0.41H266.5c0.019,0.136.039,0.272,0.058,0.409q0.264,0.525.527,1.052l0.176,0.116v0.118l0.292,0.233,0.293,0.351a4.069,4.069,0,0,0,3.8.643L272,158.3v-0.059l0.234-.058v-0.059h0.117l0.059-.117,0.234-.058,0.058-.117,0.176-.058,0.293-.351a13.759,13.759,0,0,0,1.58-1.52l1.112-1.11a0.957,0.957,0,0,0,.468-0.7,0.543,0.543,0,0,1-.117-0.117h-0.117v-0.058l-1.171-.058a3.523,3.523,0,0,0-1.112-.293,5.2,5.2,0,0,1-.878.877l-1.112,1.111-0.351.409h-0.117c-0.019.039-.039,0.078-0.058,0.116h-0.117v0.059h-0.117V156.2h-0.176v0.059h-0.293a1.632,1.632,0,0,1-1.872-1.871v-0.292a3.687,3.687,0,0,1,1.112-1.344l0.409-.468L272,150.584a7.544,7.544,0,0,1,1.112-1.052c0.019-.039.039-0.078,0.059-0.117h0.116v-0.059a2.3,2.3,0,0,1,1.639.059l0.059,0.117H275.1l0.175,0.234h0.117l0.059,0.117,0.234,0.059V150h0.293v0.059a0.151,0.151,0,0,0,.175-0.059h0.293v-0.057h0.117v-0.059h0.117v-0.059a0.507,0.507,0,0,0,.351-0.351,1.093,1.093,0,0,0,.117-0.993h-0.059c-0.019-.078-0.039-0.156-0.058-0.234l-0.117-.058-0.351-.409h-0.117c-0.02-.039-0.039-0.079-0.059-0.117h-0.117l-0.058-.117h-0.117l-0.059-.117h-0.117v-0.059l-0.234-.058v-0.059l-1-.292a3.922,3.922,0,0,0-1.287.059h-0.293v0.058h-0.234v0.058H272.7v0.059h-0.175v0.058h-0.117v0.059H272.29v0.058h-0.117v0.059h-0.118v0.058h-0.116c-0.02.039-.04,0.078-0.059,0.117h-0.117l-0.059.117h-0.117l-0.234.293-0.175.057-0.468.527A3.969,3.969,0,0,0,269.773,149.59Z" transform="translate(-260 -135)"/>
</svg>
