<svg xmlns="http://www.w3.org/2000/svg" width="30" height="30.031" viewBox="0 0 30 30.031">
  <defs>
    <style>
      .cls-1 {
        fill: #72bcb2;
        fill-rule: evenodd;
      }
    </style>
  </defs>
  <path id="fb" class="cls-1" d="M1330.58,49.363v0.118c0.23,0.214.47,0.429,0.7,0.643v0.118c0.12,0.1.23,0.194,0.35,0.293v0.116l0.24,0.175c0.02,0.059.03,0.117,0.05,0.175l0.12,0.059v0.117l0.12,0.058v0.118c0.06,0.039.11,0.077,0.17,0.117v0.117l0.12,0.06,0.06,0.175h0.06v0.117c0.04,0.02.07,0.039,0.11,0.059v0.117h0.06v0.118l0.12,0.058,0.06,0.234c0.04,0.019.08,0.04,0.11,0.058,0.14,0.312.28,0.624,0.41,0.936h0.06v0.117h0.06v0.117h0.06l0.12,0.351h0.05c0.24,0.682.47,1.365,0.71,2.048v0.234c0.15,0.446.21,1.048,0.35,1.522v0.467h0.05v0.7h0.06a6.778,6.778,0,0,1-.06,1.813v0.7h-0.05v0.526h-0.06v0.352h-0.06v0.351h-0.06v0.293h-0.06v0.234h-0.06v0.292c-0.21.663-.42,1.326-0.64,1.989h-0.06l-0.06.234h-0.05v0.175h-0.06l-0.12.351h-0.06V66.5h-0.06v0.117h-0.05v0.117h-0.06v0.117h-0.06v0.117h-0.06v0.117h-0.06v0.117h-0.06v0.117h-0.06V67.44a1.106,1.106,0,0,1-.11.058l-0.06.234-0.12.06-0.06.232c-0.04.02-.07,0.039-0.11,0.059V68.2h-0.06l-0.06.176-0.12.059v0.117c-0.06.039-.11,0.077-0.17,0.117v0.117l-0.12.059v0.117c-0.06.039-.12,0.078-0.17,0.118v0.117l-0.18.117-0.06.176c-0.12.1-.23,0.2-0.35,0.292V69.9c-0.27.254-.54,0.507-0.82,0.761-0.21.234-.43,0.468-0.64,0.7h-0.12c-0.08.1-.15,0.2-0.23,0.293h-0.12c-0.06.078-.11,0.156-0.17,0.234h-0.12l-0.12.175h-0.11l-0.12.175h-0.12l-0.06.118c-0.05.02-.11,0.039-0.17,0.058V72.47h-0.12l-0.06.118c-0.06.019-.11,0.039-0.17,0.058V72.7l-0.24.059a0.573,0.573,0,0,0-.05.117l-0.24.059-0.06.116h-0.11v0.058h-0.12v0.058h-0.12v0.059h-0.11V73.29h-0.12v0.057h-0.12v0.06h-0.12v0.058h-0.11v0.058h-0.12v0.059c-0.12.04-.23,0.078-0.35,0.117v0.059c-0.1.019-.19,0.039-0.29,0.058v0.059h-0.12v0.058h-0.17v0.059h-0.12V74.05l-0.53.117a3.548,3.548,0,0,1-.64.234V63.345h3.21c0.16-1.248.32-2.5,0.47-3.744h-3.68V56.558h0.06V56.325h0.06V56.15c0.11-.156.23-0.312,0.35-0.468,0.68-.461,2.22-0.3,3.33-0.293V52l-2.1-.117h-1.47v0.058h-0.41V52h-0.29v0.058h-0.23v0.058h-0.18v0.059h-0.17v0.058h-0.18v0.058l-0.23.059v0.058c-0.12.039-.24,0.078-0.35,0.116l-0.06.117h-0.12a1.617,1.617,0,0,0-.11.175,4.192,4.192,0,0,0-1.64,2.457l-0.06.644a5.864,5.864,0,0,0-.06,1.287v2.341a3.75,3.75,0,0,1-1.05.058h-2.16v3.744h3.21V74.927a4.3,4.3,0,0,1-1.23.058,1.684,1.684,0,0,0-.64-0.058h-0.06V74.869h-0.46V74.81h-0.35V74.752h-0.36V74.694h-0.29V74.635h-0.29V74.577l-0.47-.058V74.459l-0.41-.058V74.342h-0.17V74.284h-0.18V74.226h-0.17V74.167h-0.18V74.108l-0.35-.058V73.992h-0.12V73.933h-0.17V73.875h-0.12V73.816h-0.17V73.757h-0.12V73.7c-0.08-.02-0.16-0.039-0.23-0.058V73.582h-0.12V73.523h-0.12V73.466h-0.12V73.407h-0.11v-0.06h-0.12V73.29h-0.12V73.231h-0.11V73.172h-0.12V73.114h-0.12V73.056h-0.11l-0.06-.116-0.24-.059c-0.02-.039-0.03-0.079-0.05-0.117l-0.24-.059V72.646c-0.06-.019-0.11-0.039-0.17-0.058l-0.06-.118h-0.12l-0.06-.117h-0.11l-0.12-.176h-0.12l-0.06-.117h-0.11l-0.18-.234h-0.12a0.608,0.608,0,0,0-.05-0.117l-0.18-.058c-0.1-.118-0.19-0.234-0.29-0.351h-0.12V71.243c-0.06-.039-0.12-0.078-0.17-0.117a1.568,1.568,0,0,0-.59-0.527V70.481c-0.21-.195-0.43-0.39-0.64-0.585V69.779c-0.12-.1-0.23-0.194-0.35-0.292V69.37l-0.24-.175V69.078c-0.05-.04-0.11-0.079-0.17-0.118V68.844l-0.12-.059V68.668c-0.06-.039-0.11-0.078-0.17-0.117V68.435l-0.12-.059V68.258l-0.12-.059-0.06-.175h-0.05l-0.06-.232-0.12-.06-0.06-.234a1.106,1.106,0,0,1-.11-0.058V67.323h-0.06V67.206h-0.06V67.089h-0.06V66.972h-0.06V66.855l-0.12-.058V66.679h-0.05V66.562h-0.06V66.386h-0.06V66.27h-0.06l-0.12-.351h-0.05c-0.24-.682-0.47-1.364-0.71-2.048V63.637c-0.15-.446-0.21-1.048-0.35-1.521V61.648h-0.06v-0.7h-0.05a7.713,7.713,0,0,1,.05-1.872v-0.7h0.06V57.905c0.14-.474.2-1.076,0.35-1.522V56.15c0.24-.683.47-1.366,0.71-2.048h0.05l0.12-.351h0.06V53.635h0.06c0.06-.175.11-0.351,0.17-0.527l0.12-.059V52.932h0.06V52.815h0.06V52.7h0.06V52.581c0.03-.018.07-0.039,0.11-0.058l0.06-.234,0.12-.058,0.06-.234c0.03-.02.07-0.039,0.11-0.059V51.821h0.06l0.06-.175,0.12-.06V51.47c0.06-.039.11-0.078,0.17-0.117V51.236l0.12-.058V51.061c0.06-.039.12-0.079,0.17-0.118V50.826l0.12-.058V50.709c0.04-.019.08-0.038,0.12-0.059V50.535c0.1-.078.19-0.157,0.29-0.235V50.183c0.2-.175.39-0.351,0.58-0.527l0.06-.175,0.3-.175c0.19-.215.39-0.429,0.58-0.644h0.12c0.07-.1.15-0.194,0.23-0.292h0.12c0.06-.078.11-0.156,0.17-0.234l0.18-.059,0.06-.117h0.11l0.06-.116h0.12l0.12-.176h0.11l0.06-.118,0.18-.058V47.434h0.11l0.06-.117,0.24-.059c0.02-.039.03-0.078,0.05-0.117l0.24-.059,0.06-.116h0.11V46.907h0.12V46.849h0.12V46.79h0.11V46.732h0.12l0.06-.117h0.12V46.557h0.11V46.5a29.33,29.33,0,0,1,3.16-1.112l1.75-.292h0.7V45.035a7.8,7.8,0,0,1,1.88.059h0.52l1.05,0.117v0.059h0.3v0.058h0.29v0.059h0.29v0.059h0.23V45.5h0.24v0.059h0.17V45.62h0.24v0.058h0.17v0.059h0.18V45.8h0.17v0.059h0.18v0.058l0.35,0.058V46.03h0.12v0.058h0.17v0.059h0.12v0.059h0.17v0.058l0.24,0.059v0.059h0.11v0.058h0.18l0.06,0.118h0.17v0.058h0.12v0.059h0.12l0.06,0.116h0.11v0.059h0.12v0.058h0.12v0.059h0.11l0.06,0.116,0.24,0.059a0.592,0.592,0,0,0,.05.117l0.24,0.059v0.058c0.06,0.019.11,0.039,0.17,0.058l0.06,0.116h0.12v0.059c0.06,0.02.12,0.039,0.17,0.059l0.06,0.117h0.12l0.06,0.117c0.06,0.02.11,0.039,0.17,0.059l0.12,0.175h0.12c0.06,0.078.11,0.156,0.17,0.234a5.1,5.1,0,0,1,.7.526A1.3,1.3,0,0,0,1330.58,49.363Z" transform="translate(-1305 -45)"/>
</svg>
