<svg xmlns="http://www.w3.org/2000/svg" width="6.97" height="13.031" viewBox="0 0 6.97 13.031">
  <defs>
    <style>
      .cls-1 {
        fill: #6686b3;
        fill-rule: evenodd;
      }
    </style>
  </defs>
  <path id="Фигура_8" data-name="Фигура 8" class="cls-1" d="M1144.99,580.465a0.738,0.738,0,0,0,.24.637,1.474,1.474,0,0,0,.13.1v0.05c0.15,0.145.31,0.289,0.46,0.433v0.051l0.06,0.026a1.764,1.764,0,0,0,.13.153c0.09,0.084.19,0.169,0.28,0.254v0.051c0.16,0.144.32,0.289,0.47,0.433v0.051c0.16,0.144.32,0.288,0.47,0.433v0.051a0.23,0.23,0,0,1,.05.025v0.026l0.42,0.381v0.051c0.16,0.145.31,0.289,0.47,0.433v0.051c0.02,0.009.03,0.017,0.05,0.026a1.755,1.755,0,0,1,.13.152c0.1,0.085.19,0.17,0.29,0.255v0.051c0.15,0.144.31,0.289,0.47,0.433v0.051a0.23,0.23,0,0,0,.05.025c0.03,0.034.05,0.068,0.08,0.1,0.11,0.1.22,0.2,0.34,0.306v0.051a0.23,0.23,0,0,0,.05.025c0.04,0.051.09,0.1,0.13,0.153,0.09,0.085.19,0.17,0.29,0.255a0.22,0.22,0,0,0,.02.076,1.6,1.6,0,0,1,.39.407c-0.14.127-.28,0.255-0.41,0.382v0.051c-0.1.085-.2,0.17-0.29,0.255-0.04.051-.09,0.1-0.13,0.153a0.23,0.23,0,0,0-.05.025v0.051c-0.16.144-.32,0.289-0.47,0.433v0.051l-0.21.178-0.42.458c-0.1.094-.21,0.187-0.31,0.28v0.051c-0.16.145-.31,0.289-0.47,0.433v0.051c-0.02.009-.03,0.017-0.05,0.026a1.755,1.755,0,0,0-.13.152c-0.1.085-.19,0.17-0.29,0.255v0.051c-0.15.144-.31,0.289-0.47,0.433v0.051c-0.09.085-.19,0.169-0.28,0.254a1.764,1.764,0,0,0-.13.153l-0.06.026v0.051c-0.14.127-.27,0.254-0.41,0.381v0.026l-0.06.025v0.051c-0.15.145-.31,0.289-0.46,0.433V591.8a0.557,0.557,0,0,0-.08.051c-0.04.042-.07,0.085-0.11,0.127a0.227,0.227,0,0,1-.05.026v0.051c-0.02.008-.03,0.017-0.05,0.025l-0.03.1h-0.02a1.015,1.015,0,0,0-.03.357h0.03v0.076h0.02a0.91,0.91,0,0,1,.05.153c0.05,0.034.09,0.068,0.14,0.1a0.118,0.118,0,0,0,.02.051h0.05v0.025a0.207,0.207,0,0,1,.11.051l0.34,0.025v-0.025h0.07v-0.026c0.05-.008.09-0.017,0.13-0.025,0.11-.093.21-0.187,0.32-0.28v-0.051c0.15-.144.31-0.289,0.47-0.433v-0.051c0.14-.127.27-0.255,0.41-0.382V591.72l0.06-.026v-0.051c0.15-.144.31-0.288,0.46-0.433v-0.05c0.16-.145.32-0.289,0.47-0.433v-0.051c0.16-.145.32-0.289,0.47-0.433v-0.051c0.16-.144.32-0.289,0.47-0.433v-0.051c0.16-.144.31-0.288,0.47-0.433v-0.051c0.16-.144.31-0.288,0.47-0.432v-0.051c0.16-.145.31-0.289,0.47-0.433v-0.051c0.02-.009.03-0.017,0.05-0.026v-0.025l0.42-.382v-0.051l0.18-.153,0.18-.2c0.04-.025.07-0.05,0.11-0.076v-0.051a0.23,0.23,0,0,1,.05-0.025v-0.026a1.493,1.493,0,0,0,.49-0.611,0.507,0.507,0,0,0-.02-0.254v-0.1a1.26,1.26,0,0,0-.26-0.306c-0.06-.068-0.12-0.136-0.19-0.2-0.02-.017-0.05-0.034-0.07-0.051v-0.05c-0.16-.145-0.32-0.289-0.47-0.433v-0.051l-0.45-.408a0.215,0.215,0,0,0-.02-0.076c-0.16-.144-0.31-0.289-0.47-0.433v-0.051c-0.16-.144-0.31-0.288-0.47-0.433v-0.051c-0.16-.144-0.31-0.288-0.47-0.433v-0.05c-0.09-.085-0.19-0.17-0.29-0.255a1.764,1.764,0,0,0-.13-0.153,0.23,0.23,0,0,0-.05-0.025v-0.051c-0.15-.145-0.31-0.289-0.47-0.433v-0.051l-0.21-.178c-0.13-.153-0.27-0.306-0.41-0.459-0.11-.093-0.21-0.186-0.31-0.28V581.3l-0.27-.229a1.764,1.764,0,0,0-.13-0.153c-0.02-.016-0.05-0.034-0.07-0.051v-0.05l-0.45-.408c-0.01-.025-0.01-0.051-0.02-0.076-0.11-.094-0.21-0.187-0.32-0.28h-0.05v-0.026h-0.08v-0.025a0.837,0.837,0,0,0-.41,0v0.025l-0.11.026v0.025h-0.05a0.712,0.712,0,0,1-.08.1,0.557,0.557,0,0,1-.08.051v0.051h-0.02v0.051h-0.03c-0.01.042-.01,0.085-0.02,0.127h-0.03Z" transform="translate(-1145 -580)"/>
</svg>
