<svg xmlns="http://www.w3.org/2000/svg" width="35" height="50" viewBox="0 0 35 50">
  <defs>
    <style>
      .cls-1 {
        fill: #6686b3;
        fill-rule: evenodd;
      }
    </style>
  </defs>
  <path id="map_pin" data-name="map pin" class="cls-1" d="M1209.24,9607c3.77-.06,6.83.54,9.13,1.96h0.2v0.09h0.19v0.1h0.2v0.1h0.19v0.1h0.2c0.03,0.06.06,0.13,0.09,0.19h0.2v0.1h0.19a1.738,1.738,0,0,1,.1.19h0.19a1.865,1.865,0,0,1,.1.2h0.2c0.06,0.1.13,0.19,0.19,0.29h0.2c0.03,0.07.06,0.13,0.09,0.2h0.2c0.09,0.13.19,0.26,0.29,0.39h0.19c0.13,0.16.26,0.32,0.39,0.49h0.2c0.29,0.32.58,0.65,0.87,0.97,0.16,0.13.33,0.26,0.49,0.39v0.2c0.19,0.16.39,0.32,0.58,0.49v0.19c0.1,0.07.2,0.13,0.29,0.2v0.19c0.1,0.07.2,0.13,0.29,0.2v0.19a1.865,1.865,0,0,0,.2.1,2.469,2.469,0,0,0,.1.29h0.09v0.2a1.865,1.865,0,0,1,.2.1c0.03,0.09.06,0.19,0.09,0.29h0.1c0.03,0.13.07,0.26,0.1,0.39,0.06,0.03.13,0.07,0.19,0.1,0.07,0.19.13,0.39,0.2,0.58h0.1v0.2h0.09v0.19h0.1c0.06,0.2.13,0.4,0.19,0.59h0.1v0.29h0.1v0.2h0.1v0.29h0.09v0.2h0.1c0.03,0.19.07,0.39,0.1,0.58h0.09v0.3h0.1v0.29h0.1c0.03,0.26.06,0.52,0.1,0.78h0.09v0.39h0.1c0.03,0.36.07,0.72,0.1,1.08h0.1c0.03,0.68.06,1.36,0.09,2.05h0.1c-0.03.81-.06,1.62-0.1,2.44h-0.09c-0.07.71-.13,1.43-0.2,2.15h-0.1c-0.03.32-.06,0.65-0.09,0.97h-0.1c-0.07.39-.13,0.78-0.2,1.17h-0.09v0.39h-0.1c-0.03.23-.06,0.46-0.1,0.69h-0.09V9632h-0.1v0.29h-0.1v0.3h-0.1c-0.06.29-.13,0.58-0.19,0.88h-0.1v0.19h-0.09c-0.07.29-.13,0.59-0.2,0.88h-0.1v0.2h-0.09v0.29h-0.1c-0.03.13-.07,0.26-0.1,0.39h-0.1v0.29h-0.09c-0.03.13-.07,0.26-0.1,0.39h-0.1v0.3h-0.09c-0.04.13-.07,0.26-0.1,0.39h-0.1v0.29h-0.1v0.19h-0.09c-0.04.13-.07,0.26-0.1,0.39h-0.1c-0.03.13-.06,0.27-0.09,0.4h-0.1v0.19h-0.1v0.2h-0.1v0.19h-0.09v0.2h-0.1v0.19h-0.1v0.2h-0.1v0.19h-0.09v0.2h-0.1v0.19h-0.1v0.2h-0.09v0.19a1.865,1.865,0,0,1-.2.1v0.2h-0.1v0.19h-0.09v0.2h-0.1v0.19h-0.1v0.2a1.738,1.738,0,0,0-.19.1c-0.07.19-.13,0.39-0.2,0.58-0.06.03-.13,0.07-0.19,0.1-0.03.13-.07,0.26-0.1,0.39a1.738,1.738,0,0,0-.19.1c-0.07.19-.13,0.39-0.2,0.58a1.738,1.738,0,0,1-.19.1v0.2c-0.07.03-.13,0.06-0.2,0.09l-0.09.39a1.865,1.865,0,0,1-.2.1l-0.09.39a1.865,1.865,0,0,1-.2.1v0.2c-0.06.03-.13,0.06-0.19,0.09v0.2a1.865,1.865,0,0,0-.2.1c-0.03.13-.06,0.26-0.1,0.39-0.06.03-.12,0.06-0.19,0.09v0.2h-0.1c-0.03.1-.06,0.2-0.09,0.29a1.865,1.865,0,0,1-.2.1v0.2h-0.1c-0.03.09-.06,0.19-0.09,0.29a1.865,1.865,0,0,0-.2.1v0.19c-0.09.07-.19,0.13-0.29,0.2v0.19c-0.06.03-.13,0.07-0.19,0.1v0.2h-0.1c-0.03.09-.07,0.19-0.1,0.29a1.738,1.738,0,0,0-.19.1v0.19c-0.1.07-.2,0.13-0.29,0.2v0.19c-0.07.03-.13,0.07-0.2,0.1v0.19a1.738,1.738,0,0,1-.19.1c-0.04.1-.07,0.2-0.1,0.3-0.1.06-.19,0.13-0.29,0.19v0.2c-0.1.06-.2,0.13-0.29,0.19v0.2c-0.07.03-.13,0.06-0.2,0.09v0.2c-0.1.06-.19,0.13-0.29,0.19v0.2c-0.13.1-.26,0.19-0.39,0.29v0.2c-0.1.06-.19,0.13-0.29,0.19v0.2c-0.1.06-.19,0.13-0.29,0.19v0.2c-0.13.1-.26,0.19-0.39,0.29v0.2c-0.13.09-.26,0.19-0.39,0.29v0.2c-0.13.09-.26,0.19-0.39,0.29v0.19l-0.48.39v0.2c-0.13.1-.26,0.2-0.39,0.29v0.2c-0.2.16-.39,0.32-0.59,0.49-0.52.73-1.22,1.85-2.33,1.95v-0.1c-0.16-.03-0.32-0.06-0.49-0.1v-0.09h-0.19c-0.1-.13-0.2-0.26-0.29-0.39l-0.88-.79v-0.19c-0.22-.2-0.45-0.39-0.68-0.59v-0.19l-0.48-.39v-0.2c-0.17-.13-0.33-0.26-0.49-0.39v-0.19c-0.16-.13-0.32-0.26-0.49-0.39v-0.2c-0.13-.1-0.26-0.2-0.39-0.29v-0.2c-0.12-.1-0.25-0.19-0.38-0.29v-0.2c-0.13-.09-0.26-0.19-0.39-0.29v-0.19a1.865,1.865,0,0,0-.2-0.1l-0.09-.3c-0.13-.09-0.26-0.19-0.39-0.29v-0.19c-0.1-.07-0.2-0.13-0.3-0.2v-0.19c-0.09-.07-0.19-0.13-0.29-0.2v-0.19c-0.09-.07-0.19-0.13-0.29-0.2-0.03-.1-0.06-0.19-0.1-0.29a1.738,1.738,0,0,0-.19-0.1v-0.2c-0.06-.03-0.13-0.06-0.19-0.09v-0.2c-0.1-.06-0.2-0.13-0.3-0.19v-0.2a1.738,1.738,0,0,1-.19-0.1v-0.19c-0.1-.07-0.2-0.13-0.29-0.2v-0.19a1.865,1.865,0,0,0-.2-0.1v-0.2c-0.09-.06-0.19-0.13-0.29-0.19v-0.2c-0.06-.03-0.13-0.06-0.19-0.09-0.04-.1-0.07-0.2-0.1-0.3h-0.1v-0.19c-0.06-.03-0.13-0.07-0.19-0.1v-0.19a1.865,1.865,0,0,0-.2-0.1v-0.2a1.738,1.738,0,0,1-.19-0.1v-0.19c-0.07-.03-0.13-0.07-0.2-0.1v-0.19a1.14,1.14,0,0,0-.19-0.1v-0.2c-0.06-.03-0.13-0.06-0.19-0.09-0.04-.13-0.07-0.26-0.1-0.4h-0.1c-0.03-.09-0.06-0.19-0.1-0.29a1.738,1.738,0,0,1-.19-0.1c-0.03-.13-0.06-0.26-0.1-0.39h-0.09a2.469,2.469,0,0,1-.1-0.29,1.865,1.865,0,0,1-.2-0.1l-0.09-.39a1.865,1.865,0,0,1-.2-0.1c-0.03-.13-0.06-0.26-0.1-0.39-0.06-.03-0.12-0.06-0.19-0.09-0.06-.2-0.13-0.39-0.19-0.59a1.865,1.865,0,0,1-.2-0.1c-0.06-.19-0.13-0.39-0.19-0.58a1.865,1.865,0,0,0-.2-0.1v-0.2h-0.09v-0.19h-0.1v-0.2h-0.1v-0.19c-0.06-.03-0.13-0.07-0.19-0.1v-0.19h-0.1v-0.2h-0.1v-0.2h-0.1v-0.19h-0.09v-0.2h-0.1v-0.19h-0.1l-0.09-.39h-0.1v-0.2h-0.1v-0.19h-0.1v-0.2h-0.09v-0.19h-0.1c-0.03-.13-0.06-0.26-0.1-0.39h-0.09v-0.2h-0.1v-0.29h-0.1v-0.2h-0.1l-0.09-.39h-0.1v-0.29h-0.1c-0.03-.13-0.06-0.26-0.1-0.39h-0.09v-0.29h-0.1v-0.2h-0.1c-0.03-.16-0.06-0.33-0.09-0.49h-0.1v-0.29h-0.1v-0.2h-0.1v-0.29h-0.09v-0.29h-0.1v-0.3h-0.1v-0.29h-0.09v-0.29h-0.1v-0.2h-0.1c-0.03-.22-0.06-0.45-0.1-0.68h-0.09v-0.29h-0.1c-0.03-.23-0.07-0.46-0.1-0.69h-0.1v-0.39h-0.09c-0.03-.26-0.07-0.52-0.1-0.78h-0.1v-0.49h-0.09v-0.48h-0.1v-0.59h-0.1c-0.03-.49-0.06-0.98-0.1-1.46h-0.09c-0.04-.85-0.07-1.7-0.1-2.54h0.1v-1.37c0.19-.98.39-1.95,0.58-2.93h0.1v-0.29h0.09v-0.3h0.1v-0.29h0.1v-0.29h0.1v-0.2h0.09v-0.29h0.1v-0.2h0.1v-0.29h0.1c0.06-.19.13-0.39,0.19-0.59h0.1v-0.19h0.09v-0.2h0.1c0.07-.19.13-0.39,0.2-0.58,0.06-.03.13-0.07,0.19-0.1,0.03-.13.07-0.26,0.1-0.39h0.09c0.04-.1.07-0.2,0.1-0.29a1.865,1.865,0,0,1,.2-0.1v-0.2h0.09a2.469,2.469,0,0,0,.1-0.29,1.865,1.865,0,0,0,.2-0.1v-0.19c0.06-.03.13-0.07,0.19-0.1,0.03-.1.06-0.19,0.1-0.29,0.09-.07.19-0.13,0.29-0.2v-0.19c0.19-.17.39-0.33,0.58-0.49v-0.2c0.16-.13.33-0.26,0.49-0.39,0.26-.29.52-0.58,0.78-0.88h0.19c0.16-.19.32-0.39,0.49-0.58,0.09-.03.19-0.07,0.29-0.1,0.06-.1.13-0.19,0.19-0.29h0.2c0.03-.07.06-0.13,0.09-0.2h0.2c0.06-.1.13-0.19,0.19-0.29h0.2c0.03-.07.06-0.13,0.09-0.2l0.39-.09a1.865,1.865,0,0,0,.1-0.2,2.469,2.469,0,0,0,.29-0.1v-0.09h0.2v-0.1h0.19v-0.1h0.2v-0.1h0.19v-0.09h0.19v-0.1h0.2v-0.1h0.19v-0.1c0.2-.06.39-0.13,0.59-0.19v-0.1a33.574,33.574,0,0,1,3.98-1.17A7.326,7.326,0,0,0,1209.24,9607Zm-6.71,25.59a2.048,2.048,0,0,1,.78.58c0.03,0.07.06,0.13,0.09,0.2h0.2c0.06,0.1.13,0.19,0.19,0.29h0.2c0.06,0.1.13,0.2,0.19,0.29,0.13,0.04.26,0.07,0.39,0.1a1.865,1.865,0,0,0,.1.2l0.39,0.09c0.03,0.07.06,0.13,0.09,0.2h0.2v0.1h0.19v0.1h0.29v0.09c0.13,0.04.26,0.07,0.39,0.1v0.1h0.29v0.1h0.2v0.09H1207v0.1h0.29v0.1h0.39v0.1h0.39v0.09c0.39,0.04.78,0.07,1.17,0.1a9.454,9.454,0,0,0,2.52.1v-0.1h0.68v-0.1h0.49v-0.09h0.39v-0.1h0.39v-0.1H1214v-0.1h0.29v-0.09h0.29v-0.1c0.13-.03.26-0.07,0.39-0.1v-0.1h0.29v-0.09c0.13-.04.26-0.07,0.39-0.1v-0.1h0.2c0.03-.07.06-0.13,0.09-0.2l0.39-.09a1.865,1.865,0,0,0,.1-0.2h0.19v-0.1l0.3-.09c0.03-.07.06-0.13,0.09-0.2h0.2c0.06-.1.13-0.19,0.19-0.29h0.2c0.26-.3.52-0.59,0.77-0.88,0.3-.26.59-0.52,0.88-0.78v-0.2c0.1-.06.19-0.13,0.29-0.19v-0.2c0.1-.06.2-0.13,0.29-0.19v-0.2a1.865,1.865,0,0,0,.2-0.1l0.09-.39c0.07-.03.13-0.06,0.2-0.09,0.03-.13.06-0.26,0.1-0.4h0.09c0.07-.19.13-0.39,0.2-0.58h0.1v-0.29h0.09v-0.2h0.1v-0.29h0.1v-0.29h0.09v-0.3h0.1v-0.29h0.1v-0.39a9.894,9.894,0,0,0,0-5.18c-0.03-.22-0.07-0.45-0.1-0.68h-0.1v-0.29h-0.09v-0.3H1221v-0.29h-0.1l-0.09-.39h-0.1v-0.29h-0.1v-0.2h-0.1v-0.19a1.738,1.738,0,0,0-.19-0.1c-0.07-.2-0.13-0.39-0.2-0.59h-0.09c-0.03-.09-0.07-0.19-0.1-0.29-0.06-.03-0.13-0.07-0.19-0.1v-0.19a1.865,1.865,0,0,0-.2-0.1,2.469,2.469,0,0,0-.1-0.29c-0.09-.07-0.19-0.13-0.29-0.2v-0.19c-0.16-.13-0.32-0.26-0.48-0.4-0.3-.32-0.59-0.65-0.88-0.97h-0.19c-0.1-.13-0.2-0.26-0.29-0.39h-0.2a1.865,1.865,0,0,0-.1-0.2c-0.09-.03-0.19-0.06-0.29-0.1v-0.09h-0.19c-0.03-.07-0.07-0.13-0.1-0.2h-0.19a1.738,1.738,0,0,1-.1-0.19c-0.13-.04-0.26-0.07-0.39-0.1v-0.1h-0.19v-0.1c-0.2-.06-0.39-0.13-0.59-0.19v-0.1h-0.29v-0.1h-0.19v-0.09c-0.3-.07-0.59-0.14-0.88-0.2v-0.1l-0.87-.09a10.074,10.074,0,0,0-6.42.58h-0.29v0.1c-0.2.06-.39,0.13-0.59,0.19v0.1h-0.19v0.1c-0.13.03-.26,0.06-0.39,0.1a1.738,1.738,0,0,1-.1.19h-0.19c-0.03.07-.07,0.13-0.1,0.2h-0.19v0.09c-0.1.04-.2,0.07-0.29,0.1a1.865,1.865,0,0,0-.1.2h-0.2c-0.09.13-.19,0.26-0.29,0.39a11.185,11.185,0,0,0-3.79,5.66c-0.03.3-.06,0.59-0.1,0.88a11.526,11.526,0,0,0,1.17,7.72c0.07,0.03.13,0.06,0.19,0.09,0.04,0.13.07,0.26,0.1,0.39a1.865,1.865,0,0,0,.2.1v0.2c0.09,0.06.19,0.13,0.29,0.19v0.2c0.1,0.06.19,0.13,0.29,0.19v0.2a1.738,1.738,0,0,1,.19.1A1.928,1.928,0,0,1,1202.53,9632.59Z" transform="translate(-1193 -9607)"/>
</svg>
