<svg xmlns="http://www.w3.org/2000/svg" width="4" height="8" viewBox="0 0 4 8">
  <defs>
    <style>
      .cls-1 {
        fill: #121314;
        fill-rule: evenodd;
        opacity: 0.5;
      }
    </style>
  </defs>
  <path id="arrow" class="cls-1" d="M450.005,159.7a0.474,0.474,0,0,1,.134-0.391l0.075-.062v-0.032l0.267-.265v-0.031l0.03-.016,0.075-.094,0.163-.156v-0.031l0.268-.266v-0.031l0.269-.266v-0.031l0.029-.016V158l0.239-.235v-0.031l0.268-.266v-0.031l0.029-.016,0.075-.093,0.163-.156V157.14l0.268-.265v-0.031l0.03-.016,0.045-.063,0.194-.187v-0.031a0.269,0.269,0,0,1,.029-0.016l0.075-.094,0.164-.156c0-.016.009-0.031,0.014-0.047a0.98,0.98,0,0,0,.224-0.25l-0.238-.234v-0.032l-0.164-.156-0.075-.093-0.029-.016v-0.031l-0.269-.266v-0.031l-0.119-.11L452,154.734l-0.178-.172v-0.031l-0.268-.266v-0.031l-0.03-.016-0.075-.093-0.163-.157v-0.031l-0.269-.265V153.64l-0.163-.156-0.075-.094-0.03-.015v-0.032l-0.238-.234v-0.016l-0.03-.015v-0.031l-0.267-.266V152.75l-0.045-.032-0.06-.078-0.029-.015v-0.032l-0.03-.015-0.015-.063H450.02a0.589,0.589,0,0,1-.015-0.218h0.015V152.25h0.015l0.03-.094,0.074-.062,0.015-.032h0.03v-0.015a0.123,0.123,0,0,0,.059-0.032l0.194-.015v0.015h0.044v0.016l0.075,0.016,0.179,0.171v0.032L451,152.515v0.031l0.238,0.235V152.8l0.03,0.015v0.031l0.268,0.266v0.031l0.268,0.266v0.031l0.268,0.266v0.031L452.343,154v0.031l0.268,0.265v0.032l0.268,0.265v0.032l0.268,0.265v0.031l0.029,0.016v0.016l0.239,0.234v0.031c0.034,0.032.069,0.063,0.1,0.094s0.069,0.084.1,0.125l0.06,0.047v0.031l0.029,0.016v0.016a0.91,0.91,0,0,1,.283.375,0.341,0.341,0,0,1-.015.156v0.062a0.666,0.666,0,0,1-.149.188c-0.034.042-.069,0.083-0.1,0.125l-0.044.031v0.031l-0.268.266v0.031l-0.253.25-0.015.047-0.268.266v0.031l-0.268.266V157.7l-0.268.265V158l-0.164.156-0.075.094-0.029.015V158.3l-0.268.265v0.032c-0.04.036-.08,0.072-0.119,0.109l-0.239.281-0.178.172v0.031l-0.149.141-0.075.093-0.044.032v0.031l-0.254.25c0,0.016-.009.031-0.014,0.047-0.06.057-.12,0.114-0.179,0.172h-0.03v0.016h-0.045v0.015a0.468,0.468,0,0,1-.238,0v-0.015l-0.059-.016v-0.016h-0.03l-0.045-.062-0.044-.031v-0.032H450.05v-0.031h-0.015l-0.015-.078h-0.015Z" transform="translate(-450 -152)"/>
</svg>
