<svg id="Группа_1" data-name="Группа 1" xmlns="http://www.w3.org/2000/svg" width="70" height="70" viewBox="0 0 70 70">
  <defs>
    <style>
      .cls-1 {
        fill: #fff;
      }

      .cls-2 {
        fill: #72bcb2;
        fill-rule: evenodd;
      }
    </style>
  </defs>
  <circle id="bg" class="cls-1" cx="35" cy="35" r="35"/>
  <path id="icon" class="cls-2" d="M410.288,951a2.7,2.7,0,0,1,.7.141l0.6,0.105,1.054,0.351v0.036h0.071v0.034h0.105V951.7h0.07v0.035h0.106v0.036c0.07,0.022.14,0.046,0.21,0.07v0.034h0.071v0.036h0.105v0.035h0.07v0.035h0.071l0.035,0.07h0.07v0.036h0.07v0.035h0.07v0.035h0.071V952.2l0.14,0.035c0.012,0.023.024,0.046,0.035,0.07l0.141,0.035v0.035c0.035,0.012.07,0.024,0.105,0.034,0.012,0.024.024,0.048,0.035,0.072l0.141,0.034v0.036l0.105,0.035c0.012,0.024.024,0.046,0.035,0.07h0.071c0.011,0.024.023,0.047,0.035,0.071h0.07c0.024,0.035.047,0.07,0.07,0.105h0.071c0.011,0.024.023,0.047,0.035,0.07H415c0.024,0.035.047,0.07,0.07,0.106h0.071c0.011,0.024.023,0.047,0.035,0.07h0.035l0.035,0.07h0.07l0.141,0.176h0.07c0.07,0.083.141,0.164,0.211,0.246h0.07l0.422,0.457,0.246,0.211V954.3c0.081,0.07.164,0.14,0.245,0.211v0.07l0.071,0.034v0.036l0.105,0.07V954.8l0.106,0.07c0.011,0.035.023,0.07,0.035,0.106l0.07,0.035v0.07l0.105,0.07v0.071l0.106,0.07v0.07l0.07,0.035v0.07l0.07,0.036v0.071l0.07,0.034v0.07l0.071,0.036v0.07h0.035v0.07c0.023,0.012.047,0.023,0.07,0.036,0.012,0.047.024,0.093,0.035,0.14l0.07,0.035v0.07h0.036V956.2h0.035v0.07h0.035v0.071h0.035v0.07l0.07,0.035c0.012,0.046.024,0.094,0.035,0.141h0.036c0.011,0.047.023,0.093,0.035,0.14h0.035v0.106h0.035v0.07h0.035l0.07,0.21h0.035v0.107h0.036v0.07H418.4c0.14,0.421.281,0.844,0.421,1.266v0.14h0.035L419,959.437h-0.035a1.319,1.319,0,0,1-.422.07v0.034h-0.211v0.036h-0.21v0.034h-0.176v0.036H417.7v0.036h-0.07v-0.036a1,1,0,0,1-.07-0.352h-0.036c-0.011-.1-0.023-0.211-0.035-0.316h-0.035v-0.105h-0.035v-0.141h-0.035c-0.012-.082-0.023-0.164-0.035-0.246h-0.035v-0.105h-0.035v-0.106h-0.036v-0.1h-0.035V958.1h-0.035V958h-0.035v-0.07H417.1v-0.106h-0.035v-0.07h-0.035v-0.106H417c-0.024-.07-0.047-0.141-0.071-0.211h-0.035v-0.07h-0.035v-0.105h-0.035v-0.07h-0.035v-0.072l-0.071-.034V957.01h-0.035v-0.07h-0.035v-0.07h-0.035V956.8h-0.035v-0.071l-0.07-.035c-0.012-.048-0.024-0.094-0.035-0.14h-0.036c-0.011-.036-0.023-0.07-0.035-0.106l-0.07-.035v-0.07l-0.07-.036v-0.07h-0.035l-0.036-.106-0.07-.034v-0.071l-0.105-.07v-0.07l-0.105-.071v-0.071c-0.036-.022-0.071-0.046-0.106-0.07V955.6c-0.047-.034-0.094-0.07-0.14-0.105l-0.036-.106-0.351-.316v-0.07c-0.023-.013-0.047-0.024-0.07-0.035-0.047-.06-0.094-0.118-0.141-0.176H415l-0.316-.352h-0.07l-0.141-.175H414.4c-0.035-.048-0.07-0.094-0.106-0.141h-0.07c-0.023-.036-0.047-0.07-0.07-0.106h-0.07c-0.024-.034-0.047-0.07-0.071-0.105h-0.07c-0.012-.023-0.023-0.047-0.035-0.071h-0.07l-0.035-.07H413.73l-0.035-.07h-0.07c-0.012-.023-0.023-0.047-0.035-0.071h-0.07V953.6h-0.071c-0.011-.024-0.023-0.047-0.035-0.07l-0.211-.071-0.035-.071H413.1v-0.035h-0.07v-0.035h-0.07v-0.035h-0.071v-0.036h-0.07v-0.034h-0.07v-0.036h-0.071v-0.035l-0.21-.07v-0.035H412.36V953h-0.07v-0.036h-0.105v-0.035h-0.071V952.9c-0.281-.093-0.562-0.188-0.843-0.28l-0.6-.107v-0.034l-0.562-.072Q410.2,951.7,410.288,951Zm-6.464,1.723a1.615,1.615,0,0,1,.878.21l2.529,2.5V955.5l0.071,0.035c0.011,0.036.023,0.07,0.035,0.106h0.035a1.6,1.6,0,0,1,.14.914h-0.035v0.105a2.161,2.161,0,0,1-.457.633c-0.07.058-.14,0.116-0.21,0.176v0.07l-0.317.281c-0.093.106-.187,0.211-0.281,0.317h-0.07l-0.105.14a0.8,0.8,0,0,0-.387.563h0.036v0.1h0.035v0.07h0.035v0.07h0.035v0.071h0.035c0.023,0.07.047,0.14,0.07,0.212h0.035v0.07h0.036v0.07H406v0.07h0.035v0.07l0.07,0.036c0.012,0.047.023,0.093,0.035,0.141l0.07,0.034v0.07l0.071,0.036v0.07l0.07,0.035v0.071l0.07,0.034v0.071l0.106,0.07v0.07l0.105,0.071v0.07c0.035,0.024.07,0.048,0.1,0.07v0.071l0.141,0.105v0.071l0.176,0.14v0.071l0.175,0.14a7.4,7.4,0,0,0,.843.914l0.422,0.457h0.07l0.211,0.246h0.07l0.141,0.176h0.07l0.105,0.141h0.071l0.105,0.14h0.07l0.071,0.106h0.07c0.012,0.023.023,0.047,0.035,0.07h0.07l0.07,0.105H409.8c0.011,0.024.023,0.048,0.035,0.071l0.1,0.035v0.035h0.071l0.035,0.071,0.105,0.034v0.036l0.141,0.035c0.011,0.024.023,0.047,0.035,0.07h0.07v0.036h0.07v0.035h0.07v0.035H410.6v0.035h0.07v0.036h0.07a1.273,1.273,0,0,0,.562.245l0.808-.773a6.5,6.5,0,0,1,.808-0.774l0.071-.105h0.07l0.035-.07h0.07V962.6l0.141-.036V962.53h0.14V962.5h0.176v-0.036h0.246V962.5h0.176v0.035h0.1v0.035l0.14,0.036v0.035l0.141,0.035,0.07,0.1h0.07l0.282,0.316,0.772,0.739,0.141,0.176,0.6,0.562,0.211,0.247a2.454,2.454,0,0,1,.632.773v0.1h0.035v0.176h0.036v0.281h-0.036v0.176h-0.035v0.105h-0.035c-0.023.071-.047,0.141-0.07,0.211h-0.035v0.07l-0.106.072a5.9,5.9,0,0,1-.7.737l-0.984,1.02h-0.07c-0.024.035-.047,0.07-0.07,0.105h-0.071v0.036H415v0.034h-0.07v0.036l-0.211.07v0.035h-0.105v0.036h-0.141a3.97,3.97,0,0,1-2.143-.106l-0.281-.035v-0.036h-0.1v-0.034h-0.106v-0.036h-0.105v-0.035h-0.105v-0.035h-0.106v-0.035l-0.211-.035v-0.035h-0.07v-0.035h-0.105V968.4H411.06v-0.035h-0.105v-0.035c-0.047-.012-0.094-0.023-0.14-0.036v-0.034h-0.106v-0.036h-0.07v-0.034c-0.07-.025-0.141-0.048-0.211-0.071v-0.035h-0.105V968.05l-0.211-.071v-0.035h-0.07v-0.035c-0.071-.024-0.141-0.048-0.211-0.07l-0.035-.07h-0.071v-0.036h-0.07V967.7h-0.07v-0.035h-0.07v-0.035l-0.141-.035c-0.012-.024-0.023-0.048-0.035-0.071l-0.211-.07c-0.011-.023-0.023-0.047-0.035-0.07h-0.07v-0.036h-0.07l-0.036-.07-0.14-.034c-0.012-.024-0.023-0.048-0.035-0.071h-0.07v-0.036H408.6c-0.011-.024-0.023-0.046-0.035-0.07H408.5c-0.012-.024-0.024-0.046-0.035-0.07h-0.07l-0.036-.07h-0.07l-0.035-.07h-0.07l-0.035-.07h-0.071c-0.011-.024-0.023-0.048-0.035-0.072h-0.07v-0.035l-0.105-.035-0.036-.07h-0.07l-0.07-.105h-0.07l-0.036-.07h-0.07c-0.011-.024-0.023-0.048-0.035-0.071l-0.1-.035c-0.035-.047-0.07-0.1-0.106-0.141H407.2l-0.07-.1h-0.07l-0.106-.14h-0.07l-0.105-.142H406.7l-0.14-.175h-0.071c-0.07-.083-0.14-0.164-0.21-0.246h-0.071c-0.128-.14-0.257-0.282-0.386-0.422h-0.07c-0.094-.105-0.188-0.211-0.281-0.317l-0.316-.28v-0.071l-0.422-.387V963.8l-0.246-.21v-0.07l-0.176-.141V963.3l-0.175-.142v-0.07l-0.071-.034v-0.036l-0.07-.035v-0.07l-0.14-.106v-0.07l-0.106-.07V962.6l-0.1-.071v-0.071l-0.106-.07V962.32l-0.07-.036v-0.07l-0.1-.071v-0.07h-0.035c-0.012-.035-0.024-0.07-0.035-0.106l-0.071-.034v-0.071l-0.105-.07v-0.07c-0.023-.013-0.047-0.024-0.07-0.036-0.012-.047-0.024-0.093-0.035-0.14l-0.071-.036v-0.07l-0.07-.034v-0.071l-0.07-.036c-0.012-.046-0.024-0.094-0.035-0.14l-0.071-.035c-0.011-.047-0.023-0.094-0.035-0.141l-0.07-.034c-0.012-.048-0.023-0.095-0.035-0.142l-0.07-.035V960.7h-0.036v-0.07h-0.035v-0.071h-0.035v-0.07l-0.07-.035v-0.071h-0.035v-0.07h-0.035v-0.07h-0.035v-0.071h-0.036v-0.069h-0.035v-0.071H402.1v-0.07h-0.035v-0.07h-0.035v-0.07H402c-0.024-.071-0.047-0.141-0.071-0.213h-0.035c-0.011-.058-0.023-0.116-0.035-0.174h-0.035c-0.012-.047-0.023-0.094-0.035-0.142h-0.035v-0.1h-0.035v-0.07h-0.035c-0.012-.058-0.024-0.117-0.035-0.176H401.61v-0.1h-0.035v-0.071H401.54c-0.012-.07-0.023-0.14-0.035-0.21H401.47v-0.071h-0.035c-0.012-.07-0.024-0.141-0.035-0.211h-0.036v-0.1h-0.035v-0.105h-0.035v-0.107h-0.035c-0.012-.093-0.023-0.187-0.035-0.28h-0.035c-0.012-.094-0.024-0.188-0.035-0.281h-0.035c-0.024-.235-0.047-0.469-0.071-0.7a2.481,2.481,0,0,1,.106-1.3v-0.105a5.28,5.28,0,0,1,1.335-1.547l0.7-.738h0.07l0.036-.071h0.07l0.035-.07,0.176-.035v-0.035c0.082-.013.164-0.024,0.246-0.035v-0.035Zm11.522,6.961-1.37.245a4.529,4.529,0,0,0-1.616-2.813l-0.14-.175-0.106-.035c-0.011-.024-0.023-0.047-0.035-0.07h-0.07l-0.035-.07-0.106-.036v-0.035H411.8c-0.012-.023-0.023-0.048-0.035-0.07l-0.14-.035-0.036-.071c-0.046-.012-0.093-0.024-0.14-0.034v-0.036l-0.211-.07v-0.035h-0.105v-0.036H411.06v-0.035h-0.105v-0.035h-0.07V956.2l-0.352-.071a2.18,2.18,0,0,0-.6-0.14c0.035-.339.071-0.679,0.106-1.019h0.035a0.908,0.908,0,0,1,.07-0.387,1.2,1.2,0,0,0,.386.07v0.036h0.176l0.878,0.281v0.035h0.071v0.034l0.175,0.036v0.036H411.9v0.034h0.07v0.036h0.07v0.035h0.07v0.035h0.071v0.035l0.14,0.035,0.035,0.07,0.141,0.035c0.011,0.024.023,0.047,0.035,0.071h0.07v0.035l0.106,0.036,0.035,0.07h0.07l0.07,0.1h0.071c0.023,0.036.046,0.071,0.07,0.106h0.07l0.1,0.141h0.071l0.316,0.352,0.386,0.351v0.071l0.141,0.105v0.07l0.1,0.07,0.035,0.105,0.071,0.036v0.071l0.07,0.035,0.035,0.105h0.035v0.07l0.07,0.036c0.012,0.046.024,0.093,0.035,0.141l0.071,0.034v0.07h0.035v0.071h0.035v0.071h0.035v0.07h0.035V958h0.035v0.071h0.036c0.023,0.07.046,0.14,0.07,0.21h0.035v0.106H415v0.07h0.035c0.012,0.07.024,0.14,0.035,0.211H415.1v0.07h0.036c0.011,0.082.023,0.165,0.035,0.246A2.244,2.244,0,0,1,415.346,959.683Z" transform="translate(-375 -925)"/>
</svg>
