<svg xmlns="http://www.w3.org/2000/svg" width="18" height="18" viewBox="0 0 18 18">
  <defs>
    <style>
      .cls-1 {
        fill: #6686b3;
        fill-rule: evenodd;
      }
    </style>
  </defs>
  <path id="icon" class="cls-1" d="M1516.29,37a2.7,2.7,0,0,1,.7.139l0.6,0.105q0.525,0.178,1.05.352V37.63h0.07v0.034h0.11V37.7h0.07v0.035h0.1v0.035l0.21,0.071v0.035h0.07v0.035h0.11v0.035h0.07v0.035h0.07l0.03,0.071h0.07v0.035h0.08v0.035h0.07v0.035h0.07v0.035c0.04,0.012.09,0.023,0.14,0.036l0.03,0.07c0.05,0.011.1,0.023,0.14,0.035v0.034c0.04,0.012.07,0.024,0.11,0.035l0.03,0.071c0.05,0.012.1,0.024,0.14,0.035v0.035c0.04,0.012.07,0.024,0.11,0.035l0.03,0.07h0.07a0.285,0.285,0,0,1,.04.071h0.07c0.02,0.035.05,0.071,0.07,0.105h0.07l0.03,0.07h0.07c0.03,0.035.05,0.07,0.08,0.106h0.07l0.03,0.071h0.04l0.03,0.071h0.07c0.05,0.057.09,0.116,0.14,0.175h0.07l0.21,0.247h0.07l0.42,0.457c0.09,0.07.17,0.14,0.25,0.21V40.3c0.08,0.07.16,0.141,0.25,0.211v0.07a0.456,0.456,0,0,0,.07.035v0.036c0.03,0.023.07,0.046,0.1,0.071v0.07c0.04,0.024.07,0.047,0.11,0.07l0.03,0.106a0.33,0.33,0,0,1,.07.035v0.069c0.04,0.025.07,0.048,0.11,0.07v0.071c0.03,0.024.07,0.046,0.1,0.07v0.07a0.513,0.513,0,0,1,.07.035v0.07a0.524,0.524,0,0,1,.07.035v0.071a0.459,0.459,0,0,1,.07.034v0.07a0.4,0.4,0,0,1,.07.036v0.07h0.04v0.07c0.02,0.012.05,0.023,0.07,0.036a0.722,0.722,0,0,0,.04.14,0.524,0.524,0,0,0,.07.035v0.07h0.03V42.2h0.04v0.07h0.03v0.071h0.04v0.071a0.53,0.53,0,0,0,.07.035l0.03,0.14h0.04l0.03,0.141h0.04v0.106h0.03V42.9h0.04a1.586,1.586,0,0,0,.07.21h0.03v0.106h0.04V43.29h0.03l0.42,1.266V44.7h0.04c0.05,0.247.09,0.493,0.14,0.739h-0.04a1.254,1.254,0,0,1-.42.07V45.54h-0.21v0.035h-0.21v0.034h-0.17v0.037h-0.25V45.68h-0.07V45.646a0.926,0.926,0,0,1-.07-0.352h-0.04l-0.03-.316h-0.04V44.872h-0.03V44.731h-0.04l-0.03-.245h-0.04V44.379h-0.03v-0.1h-0.04V44.169h-0.03V44.1h-0.04V43.993h-0.03v-0.07h-0.04V43.817h-0.03v-0.07h-0.04V43.641H1523a1.733,1.733,0,0,1-.07-0.211h-0.04v-0.07h-0.03V43.255h-0.04v-0.07h-0.03V43.113a0.4,0.4,0,0,1-.07-0.034V43.008h-0.04V42.938h-0.03V42.868h-0.04V42.8h-0.03V42.727a0.456,0.456,0,0,1-.07-0.035,0.774,0.774,0,0,1-.04-0.141h-0.03a0.456,0.456,0,0,1-.04-0.105c-0.02-.012-0.05-0.024-0.07-0.035V42.341c-0.02-.012-0.05-0.024-0.07-0.035v-0.07h-0.04l-0.03-.106c-0.02-.011-0.05-0.023-0.07-0.035V42.024c-0.04-.023-0.07-0.046-0.11-0.07v-0.07c-0.03-.024-0.07-0.047-0.1-0.071v-0.07c-0.04-.023-0.07-0.047-0.11-0.071V41.6c-0.04-.034-0.09-0.07-0.14-0.105l-0.03-.105c-0.12-.105-0.24-0.21-0.35-0.317V41.005a0.724,0.724,0,0,1-.07-0.035c-0.05-.06-0.1-0.117-0.14-0.176h-0.08c-0.1-.117-0.21-0.234-0.31-0.351h-0.07a2.148,2.148,0,0,1-.14-0.175h-0.07c-0.04-.048-0.07-0.095-0.11-0.141h-0.07a0.646,0.646,0,0,0-.07-0.105h-0.07c-0.02-.035-0.05-0.071-0.07-0.105h-0.07l-0.03-.071h-0.07a0.263,0.263,0,0,1-.04-0.071h-0.07l-0.03-.069h-0.08l-0.03-.071h-0.07V39.6h-0.07a0.234,0.234,0,0,0-.04-0.07l-0.21-.071c-0.01-.022-0.02-0.046-0.03-0.07h-0.07V39.352h-0.07V39.317h-0.07V39.282h-0.07V39.246h-0.07V39.212h-0.07V39.176h-0.07V39.142l-0.21-.071V39.037h-0.11V39h-0.07V38.965h-0.11V38.93h-0.07V38.895l-0.84-.279q-0.3-.055-0.6-0.107V38.473l-0.56-.071Zm-6.47,1.722a1.631,1.631,0,0,1,.88.21c0.84,0.833,1.69,1.665,2.53,2.5V41.5c0.02,0.012.05,0.023,0.07,0.035a0.445,0.445,0,0,0,.04.105h0.03a1.538,1.538,0,0,1,.14.914h-0.03v0.1a2.363,2.363,0,0,1-.46.633l-0.21.175v0.071c-0.11.094-.21,0.188-0.32,0.281-0.09.106-.18,0.211-0.28,0.317h-0.07c-0.03.046-.07,0.094-0.1,0.141a0.787,0.787,0,0,0-.39.563h0.04v0.1h0.03v0.071h0.04v0.07h0.03v0.069h0.04a1.713,1.713,0,0,0,.07.212h0.03v0.07h0.04V45.5H1512v0.071h0.04v0.071a0.407,0.407,0,0,0,.07.035l0.03,0.141a0.524,0.524,0,0,1,.07.035v0.071a0.456,0.456,0,0,1,.07.035v0.07a0.444,0.444,0,0,1,.07.035v0.071a0.447,0.447,0,0,1,.07.035v0.071c0.04,0.024.07,0.047,0.11,0.07v0.07c0.03,0.023.07,0.047,0.1,0.071v0.071c0.04,0.024.07,0.047,0.11,0.069v0.071c0.05,0.035.09,0.07,0.14,0.105v0.071l0.18,0.141v0.07c0.05,0.047.11,0.094,0.17,0.14a7.88,7.88,0,0,0,.84.914c0.14,0.153.29,0.3,0.43,0.457h0.07l0.21,0.247h0.07a2.166,2.166,0,0,0,.14.175h0.07c0.03,0.047.07,0.094,0.1,0.142h0.07c0.04,0.045.07,0.093,0.11,0.139h0.07c0.02,0.036.05,0.071,0.07,0.107h0.07l0.03,0.069h0.08a0.567,0.567,0,0,0,.07.105h0.07l0.03,0.071c0.04,0.01.07,0.023,0.11,0.035v0.035h0.07l0.03,0.071c0.04,0.011.07,0.022,0.11,0.034v0.035c0.04,0.012.09,0.024,0.14,0.035l0.03,0.071h0.07V49.97h0.07V50h0.07V50.04h0.07v0.035h0.07v0.036h0.07a1.274,1.274,0,0,0,.57.245c0.27-.258.54-0.515,0.8-0.773a6.944,6.944,0,0,1,.81-0.773,0.621,0.621,0,0,0,.07-0.106h0.07c0.01-.023.03-0.046,0.04-0.069h0.07V48.6c0.05-.012.09-0.024,0.14-0.036V48.528h0.14V48.493h0.17V48.458h0.25v0.035h0.18v0.035h0.1v0.035c0.05,0.012.1,0.024,0.14,0.036v0.035c0.05,0.011.1,0.024,0.14,0.035a0.6,0.6,0,0,1,.07.106h0.07c0.1,0.1.19,0.21,0.28,0.315l0.78,0.738a2.041,2.041,0,0,0,.14.176l0.6,0.562,0.21,0.247a2.529,2.529,0,0,1,.63.772v0.106h0.03v0.175h0.04v0.282h-0.04v0.176h-0.03v0.105h-0.04a1.784,1.784,0,0,1-.07.211h-0.03v0.069c-0.04.024-.07,0.048-0.11,0.072a5.866,5.866,0,0,1-.7.736c-0.33.34-.66,0.681-0.98,1.02h-0.07a0.705,0.705,0,0,0-.07.106h-0.07v0.035h-0.08v0.034h-0.07v0.037q-0.105.033-.21,0.07v0.035h-0.1v0.035h-0.14a3.954,3.954,0,0,1-2.14-.105c-0.1-.012-0.19-0.024-0.29-0.035V54.715h-0.1V54.681h-0.11V54.646h-0.1V54.611h-0.11V54.576h-0.1V54.54l-0.21-.035V54.47h-0.07V54.435h-0.11V54.4h-0.07V54.364h-0.11V54.329c-0.04-.011-0.09-0.023-0.14-0.035V54.259h-0.1V54.224h-0.07V54.188l-0.21-.07V54.083h-0.11V54.049l-0.21-.071V53.942h-0.07V53.907l-0.21-.07c-0.01-.024-0.02-0.047-0.03-0.069h-0.07V53.731h-0.07V53.7h-0.08V53.661h-0.07V53.626c-0.04-.011-0.09-0.024-0.14-0.035l-0.03-.072c-0.07-.022-0.14-0.046-0.21-0.07-0.01-.023-0.03-0.046-0.04-0.069h-0.07V53.345h-0.07l-0.03-.071-0.14-.034c-0.01-.024-0.03-0.048-0.04-0.071h-0.07V53.133h-0.07l-0.03-.07h-0.07a0.243,0.243,0,0,1-.04-0.07h-0.07l-0.03-.071h-0.07a0.261,0.261,0,0,1-.04-0.07h-0.07a0.231,0.231,0,0,0-.04-0.069h-0.07l-0.03-.072h-0.07V52.677c-0.04-.012-0.07-0.023-0.11-0.035l-0.03-.071h-0.07a0.632,0.632,0,0,1-.07-0.1h-0.07c-0.01-.024-0.03-0.048-0.04-0.07h-0.07l-0.03-.071c-0.04-.012-0.07-0.024-0.11-0.035-0.03-.047-0.07-0.095-0.1-0.141h-0.07a0.6,0.6,0,0,1-.07-0.106h-0.07c-0.04-.046-0.07-0.093-0.11-0.139h-0.07c-0.04-.049-0.07-0.1-0.11-0.142h-0.07c-0.04-.058-0.09-0.116-0.14-0.176h-0.07l-0.21-.245h-0.07c-0.13-.14-0.26-0.281-0.38-0.422h-0.07c-0.1-.1-0.19-0.211-0.29-0.317s-0.21-.186-0.31-0.279V50.251l-0.42-.387V49.793c-0.09-.07-0.17-0.14-0.25-0.21v-0.07c-0.06-.047-0.12-0.094-0.17-0.141V49.3c-0.06-.047-0.12-0.094-0.18-0.142V49.09c-0.02-.011-0.05-0.022-0.07-0.035V49.02c-0.02-.012-0.05-0.024-0.07-0.035v-0.07c-0.05-.036-0.09-0.07-0.14-0.105V48.739c-0.04-.023-0.07-0.046-0.11-0.07V48.6c-0.03-.024-0.07-0.047-0.1-0.071v-0.07c-0.04-.023-0.07-0.047-0.11-0.071V48.318a0.452,0.452,0,0,0-.07-0.035V48.212c-0.03-.023-0.07-0.046-0.1-0.07v-0.07h-0.04l-0.03-.107a0.4,0.4,0,0,1-.07-0.034V47.86c-0.04-.023-0.07-0.046-0.11-0.069V47.72c-0.02-.012-0.05-0.024-0.07-0.035-0.01-.047-0.02-0.095-0.03-0.14a0.441,0.441,0,0,1-.07-0.036v-0.07a0.453,0.453,0,0,1-.07-0.035V47.334c-0.03-.013-0.05-0.025-0.08-0.037-0.01-.045-0.02-0.094-0.03-0.139-0.02-.012-0.05-0.024-0.07-0.037a0.73,0.73,0,0,0-.04-0.139,0.4,0.4,0,0,0-.07-0.035l-0.03-.141c-0.02-.012-0.05-0.023-0.07-0.036V46.7h-0.04V46.631h-0.03V46.559h-0.04v-0.07a0.4,0.4,0,0,0-.07-0.035V46.383h-0.03v-0.07h-0.04v-0.07h-0.03V46.173h-0.04V46.1h-0.03V46.032h-0.04v-0.07h-0.03v-0.07h-0.04V45.821H1508a1.679,1.679,0,0,1-.07-0.212h-0.04l-0.03-.175h-0.04c-0.01-.046-0.02-0.094-0.03-0.141h-0.04v-0.1h-0.03V45.118h-0.04l-0.03-.176h-0.04v-0.1h-0.03V44.766h-0.04a1.564,1.564,0,0,0-.04-0.211h-0.03v-0.07h-0.04l-0.03-.211h-0.04V44.169h-0.03v-0.1h-0.04V43.957h-0.03a2.7,2.7,0,0,0-.04-0.28h-0.03a2.71,2.71,0,0,0-.04-0.282h-0.03c-0.03-.234-0.05-0.469-0.07-0.7a2.534,2.534,0,0,1,.1-1.3V41.286a5.3,5.3,0,0,1,1.34-1.547c0.23-.245.47-0.493,0.7-0.738h0.07a0.275,0.275,0,0,1,.04-0.071h0.07l0.03-.069,0.18-.035V38.79l0.24-.035V38.72Zm11.53,6.961c-0.46.082-.92,0.164-1.37,0.247a4.556,4.556,0,0,0-1.62-2.814c-0.05-.058-0.09-0.116-0.14-0.175-0.04-.011-0.07-0.023-0.11-0.035l-0.03-.07h-0.07a0.239,0.239,0,0,0-.04-0.069c-0.03-.013-0.07-0.024-0.1-0.037V42.692h-0.07c-0.01-.024-0.03-0.048-0.04-0.07-0.04-.012-0.09-0.024-0.14-0.036l-0.03-.07c-0.05-.011-0.1-0.023-0.14-0.035V42.446l-0.21-.071V42.341h-0.11V42.306h-0.07V42.27h-0.11V42.236h-0.07V42.2c-0.11-.024-0.23-0.047-0.35-0.071a2.073,2.073,0,0,0-.59-0.14c0.03-.339.07-0.68,0.1-1.02h0.04a0.75,0.75,0,0,1,.07-0.387,1.136,1.136,0,0,0,.38.071v0.035h0.18c0.29,0.093.58,0.187,0.88,0.281v0.035h0.07v0.034l0.17,0.035v0.036h0.07v0.034h0.07v0.037h0.07v0.035h0.07V41.25h0.07v0.036l0.15,0.034,0.03,0.071c0.05,0.011.09,0.024,0.14,0.035a0.244,0.244,0,0,0,.04.071h0.07v0.035c0.03,0.012.07,0.024,0.1,0.036a0.258,0.258,0,0,0,.04.069h0.07a0.641,0.641,0,0,0,.07.105h0.07a0.641,0.641,0,0,0,.07.105h0.07c0.03,0.047.07,0.095,0.1,0.141h0.07c0.11,0.117.21,0.234,0.32,0.351l0.39,0.352v0.071c0.04,0.035.09,0.069,0.14,0.1v0.069c0.03,0.024.07,0.047,0.1,0.071,0.01,0.036.03,0.071,0.04,0.1a0.438,0.438,0,0,0,.07.037v0.069a0.359,0.359,0,0,0,.07.036l0.03,0.105h0.04v0.07a0.356,0.356,0,0,0,.07.035c0.01,0.048.02,0.094,0.03,0.142a0.469,0.469,0,0,1,.07.034v0.071h0.04v0.071h0.03v0.069h0.04v0.071h0.03v0.07h0.04v0.071h0.03a1.694,1.694,0,0,1,.07.211h0.04v0.1h0.03v0.071h0.04a1.62,1.62,0,0,0,.04.211h0.03v0.069h0.04l0.03,0.247A2.384,2.384,0,0,1,1521.35,45.68Z" transform="translate(-1507 -37)"/>
</svg>
