<svg id="icon" xmlns="http://www.w3.org/2000/svg" width="180" height="180" viewBox="0 0 180 180">
  <defs>
    <style>
      .cls-1 {
        fill: #72bcb2;
        opacity: 0.15;
      }

      .cls-2 {
        fill: #6686b3;
        fill-rule: evenodd;
      }
    </style>
  </defs>
  <circle id="bg_" class="cls-1" cx="90" cy="90" r="90"/>
  <path id="icon-2" data-name="icon" class="cls-2" d="M957.662,395c8.53-.155,14.836,1.464,20.263,4.37h0.312v0.157h0.311v0.155h0.312v0.157h0.312v0.156h0.312l0.156,0.312h0.311v0.156l0.624,0.156,0.156,0.312h0.311l0.156,0.312h0.312l0.156,0.312,0.623,0.156,0.312,0.469h0.312l0.156,0.312h0.311l0.312,0.468H984l0.312,0.468h0.311c0.156,0.208.312,0.417,0.468,0.624,4.049,2.919,7.135,7.106,9.82,11.394v0.312h0.156v0.311h0.155v0.313h0.156v0.312h0.156V417h0.156v0.312h0.156v0.312h0.156v0.312h0.156q0.156,0.469.311,0.937h0.156v0.468h0.156v0.312h0.156v0.468H997.1v0.313h0.156l0.156,0.78h0.155q0.78,2.732,1.559,5.462v0.781h0.156v0.936h0.156v1.092h0.156v1.093h0.156v2.029H999.9a19.024,19.024,0,0,1-.156,4.682v2.029h-0.156v1.092h-0.156V441.5h-0.156v0.936h-0.156v0.78h-0.156v0.625h-0.156v0.624h-0.155v0.624H998.5v0.625h-0.156v0.468h-0.156v0.624h-0.156v0.468h-0.156v0.468H997.72v0.468h-0.156v0.469h-0.155V449h-0.156v0.468H997.1v0.312h-0.156v0.469h-0.156v0.311h-0.156v0.469h-0.156q-0.156.468-.311,0.936h-0.156v0.312H995.85v0.313h-0.156V452.9h-0.156v0.313h-0.156v0.312h-0.156v0.312h-0.155v0.312h-0.156v0.312l-0.312.156-0.312.937-0.312.156v0.312l-0.311.156v0.312l-0.312.156-0.156.625-0.467.311v0.313l-0.312.156v0.312l-0.312.156-0.156.468-0.467.312v0.313l-0.468.311-0.156.469-0.935.78v0.312q-0.935.859-1.871,1.717-0.779.858-1.558,1.717h-0.312l-0.779.936H985.1q-0.234.313-.468,0.624h-0.311l-0.312.469-0.468.156-0.156.312h-0.311l-0.156.312H982.6l-0.312.468-0.623.156-0.156.312H981.2l-0.156.313c-0.156.051-.311,0.1-0.467,0.156v0.156l-0.935.312-0.156.312h-0.312v0.156H978.86v0.156h-0.312v0.156h-0.311v0.156h-0.312v0.156h-0.312v0.157H977.3V471H976.99v0.156l-0.936.313v0.156h-0.467v0.156h-0.312v0.156l-0.779.156v0.156h-0.468v0.156h-0.312v0.156l-0.935.156v0.156h-0.467v0.156h-0.468v0.157l-1.091.155V473.5l-1.247.157v0.156l-1.247.156v0.156l-1.715.156v0.156h-1.091v0.156h-1.091v0.156h-2.026V474.9a18.88,18.88,0,0,1-4.676-.156h-2.026V474.59l-3.9-.468-5.456-1.561v-0.156h-0.311v-0.156H945.5v-0.156l-0.779-.156v-0.156h-0.312v-0.156h-0.468v-0.156l-0.935-.313V471H942.7v-0.155h-0.311v-0.157h-0.312v-0.156h-0.312v-0.156h-0.311V470.22H941.14v-0.156h-0.312v-0.156h-0.312l-0.156-.312h-0.311V469.44l-0.624-.156-0.156-.312h-0.311l-0.156-.313H938.49l-0.156-.312-0.623-.156-0.312-.468h-0.312l-0.156-.312h-0.312q-0.155-.234-0.311-0.468H936l-0.312-.469h-0.311q-0.234-.31-0.468-0.624h-0.312l-0.779-.936H933.5l-0.779-.937-2.65-2.5v-0.312l-0.935-.78-0.156-.469-0.468-.311V459.3l-0.467-.312-0.156-.468-0.312-.156v-0.312l-0.312-.156v-0.313l-0.467-.311-0.156-.625-0.312-.156v-0.312l-0.312-.156v-0.312l-0.311-.156-0.312-.937-0.312-.156v-0.312h-0.156v-0.312h-0.156v-0.312h-0.155v-0.312h-0.156V452.9h-0.156v-0.311H924.15v-0.313h-0.156V451.96h-0.156q-0.156-.468-0.311-0.936h-0.156v-0.469h-0.156v-0.311h-0.156v-0.469H922.9v-0.312h-0.156q-0.622-1.872-1.247-3.745l-0.156-1.249h-0.156v-0.624h-0.155V443.22h-0.156v-0.78h-0.156V441.5h-0.156l-0.156-2.185h-0.156V437.29H920.1a19.026,19.026,0,0,1,.156-4.682v-2.029h0.156v-1.093h0.156l0.156-2.028h0.156v-0.781h0.156v-0.624h0.155v-0.624h0.156V424.8H921.5V424.18h0.156v-0.468h0.156v-0.624h0.156v-0.469h0.156v-0.468h0.156v-0.468h0.155v-0.468h0.156V420.9h0.156v-0.468H922.9v-0.313h0.156v-0.468h0.156v-0.312h0.156v-0.468h0.156q0.154-.468.311-0.937h0.156v-0.312h0.156v-0.312h0.156V417h0.156v-0.312h0.156v-0.312h0.155v-0.313h0.156v-0.311h0.156v-0.312l0.312-.157v-0.312h0.156l0.156-.624,0.311-.156V413.88l0.312-.157v-0.311l0.312-.157,0.156-.624,0.467-.312v-0.312l0.312-.156v-0.312l0.468-.312v-0.313l0.467-.312V410.29l0.624-.468V409.51l0.935-.78v-0.312l0.935-.781,2.494-2.653h0.312l0.779-.937,0.468-.156,0.312-.468h0.311l0.312-.468,0.468-.156c0.052-.1.1-0.208,0.155-0.312h0.312l0.156-.312H937.4l0.312-.469,0.623-.156,0.156-.312H938.8l0.156-.312h0.311l0.156-.312,0.935-.312,0.156-.312h0.312v-0.156h0.312v-0.157h0.312v-0.155h0.311v-0.157h0.312v-0.156h0.312v-0.155H942.7V398.9h0.312v-0.156l0.935-.312v-0.156h0.468v-0.156h0.312v-0.156h0.467v-0.156H945.5v-0.156h0.468v-0.156h0.311v-0.157h0.468v-0.155h0.468v-0.157h0.467v-0.156h0.468v-0.155h0.623v-0.157h0.468V396.4h0.623v-0.156h0.624v-0.156h0.623v-0.156h0.624v-0.156h0.779V395.62h0.935v-0.156h1.091v-0.156h1.092v-0.156C956.285,394.966,957.236,395.373,957.662,395Zm-0.624,3.122c-0.358.3-1.007,0-1.558,0.156v0.156h-1.091v0.156h-0.936v0.156h-0.935V398.9H951.9v0.157h-0.624v0.155h-0.623v0.156h-0.624v0.157h-0.467v0.155L948,399.99v0.156h-0.312V400.3l-0.935.156v0.156l-0.779.156v0.156H945.66v0.156h-0.468v0.156l-0.935.312v0.156h-0.312v0.157h-0.311v0.155h-0.312v0.157H943.01v0.156H942.7v0.156h-0.311v0.156h-0.312l-0.156.312-0.935.312v0.156l-0.468.156-0.156.312c-0.207.053-.415,0.1-0.623,0.156l-0.156.312h-0.312l-0.311.469h-0.312l-0.156.312h-0.312l-0.312.468h-0.311l-0.156.312h-0.156l-0.156.312h-0.312l-0.623.781H935.84q-1.09,1.17-2.182,2.341l-1.559,1.405v0.312l-0.779.624v0.312l-0.624.468v0.312l-0.467.313v0.312l-0.312.156v0.312l-0.467.312V414.5l-0.312.156-0.156.624-0.312.157-0.156.468h-0.156q-0.154.468-.311,0.936l-0.312.156v0.312h-0.156v0.312h-0.156v0.312h-0.156v0.313h-0.155v0.312h-0.156v0.312H926.8v0.312h-0.156l-0.312.936h-0.156v0.469H926.02V420.9h-0.155v0.468h-0.156v0.312h-0.156l-0.156.936h-0.156v0.313h-0.156l-0.312,1.56h-0.155v0.468h-0.156v0.625h-0.156v0.624H924.15v0.624h-0.156v0.625h-0.156v0.936h-0.156v0.937h-0.155q-0.078,1.324-.156,2.652a17.024,17.024,0,0,0-.156,3.746,27.211,27.211,0,0,0,1.247,8.584v0.624h0.156v0.468h0.155v0.625h0.156l0.156,0.936h0.156v0.312H925.4q0.078,0.469.156,0.936h0.156v0.313h0.156V449h0.155v0.312h0.156v0.468h0.156l0.312,0.937H926.8v0.312h0.156v0.312h0.156v0.312h0.155v0.312h0.156v0.312h0.156v0.313h0.156V452.9l0.312,0.157v0.312H928.2q0.078,0.312.155,0.624h0.156l0.156,0.468,0.312,0.156,0.156,0.624,0.312,0.157v0.312l0.467,0.312v0.312l0.312,0.156V456.8l0.467,0.312v0.313l0.624,0.468V458.2l0.779,0.624v0.312l1.559,1.4,2.182,2.341h0.312l0.623,0.78h0.312l0.468,0.625h0.311l0.312,0.468h0.312l0.156,0.312h0.312q0.155,0.234.311,0.468h0.312l0.156,0.312,0.623,0.156,0.156,0.312c0.156,0.052.312,0.105,0.468,0.156v0.157l0.935,0.312,0.156,0.312h0.312v0.156H942.7v0.156h0.312v0.156h0.312v0.156h0.312v0.156h0.311v0.156h0.312v0.156l0.935,0.312v0.156h0.468v0.157h0.312v0.156l0.779,0.156v0.156l0.935,0.156v0.156H948v0.156l1.559,0.312v0.156h0.467v0.156h0.624v0.156h0.623v0.157H951.9V471h0.623v0.156h0.935v0.157h0.936v0.156h1.091v0.156h1.558a19.068,19.068,0,0,0,4.209.156h1.715v-0.156h1.558v-0.156h1.091v-0.156h0.935v-0.157h0.936V471h0.623v-0.155h0.624v-0.157h0.623v-0.156h0.624v-0.156h0.467V470.22l1.559-.312v-0.156h0.312V469.6l0.935-.156v-0.156h0.312v-0.156h0.467v-0.156h0.312v-0.157h0.468v-0.156l0.935-.312v-0.156h0.311v-0.156h0.312v-0.156h0.312v-0.156h0.312v-0.156H977.3v-0.156h0.312v-0.156h0.312l0.156-.312,0.935-.312v-0.157c0.156-.051.312-0.1,0.468-0.156l0.156-.312,0.623-.156,0.156-.312h0.312q0.154-.234.311-0.468h0.312l0.156-.312h0.312q0.156-.234.311-0.468h0.312l0.468-.625h0.312l0.623-.78h0.312l2.182-2.341,1.559-1.4v-0.312l0.779-.624v-0.312l0.623-.468V457.11l0.468-.312v-0.312l0.312-.156v-0.312l0.467-.312v-0.312l0.312-.157,0.156-.624,0.312-.156,0.156-.468h0.155l0.156-.624h0.156v-0.312l0.312-.157v-0.311h0.156v-0.313h0.156V451.96h0.156v-0.312h0.155v-0.312h0.156v-0.312H993.2v-0.312h0.156l0.312-.937h0.156v-0.468h0.155V449h0.156v-0.468h0.156v-0.313h0.156q0.078-.466.156-0.936h0.156v-0.312h0.156l0.156-.936h0.155v-0.625h0.156v-0.468h0.156v-0.624h0.156v-0.624h0.156v-0.625h0.156V442.44h0.156V441.5h0.155l0.312-3.59a17.6,17.6,0,0,0,0-5.931q-0.078-1.326-.156-2.652h-0.156v-0.937h-0.155v-0.936h-0.156v-0.625H995.85v-0.624h-0.156v-0.624h-0.156V424.96h-0.156v-0.468h-0.156q-0.156-.78-0.311-1.56h-0.156v-0.313H994.6l-0.156-.936h-0.156l-0.156-.78h-0.156v-0.312h-0.155v-0.469h-0.156l-0.312-.936H993.2v-0.312h-0.156v-0.312h-0.156V418.25h-0.155v-0.313h-0.156v-0.312h-0.156v-0.312h-0.156V417l-0.312-.156-0.312-.936h-0.155l-0.156-.468-0.312-.157-0.156-.624-0.312-.156v-0.312l-0.467-.312v-0.312l-0.312-.156V413.1l-0.468-.313v-0.312l-0.623-.468V411.7l-0.779-.624v-0.312l-2.338-2.186q-0.7-.779-1.4-1.56h-0.312l-0.623-.781h-0.312l-0.468-.624h-0.312q-0.155-.234-0.311-0.468H981.51l-0.156-.312h-0.312q-0.156-.234-0.311-0.469h-0.312l-0.156-.312c-0.208-.052-0.416-0.1-0.623-0.156l-0.156-.312-0.468-.156v-0.156l-0.624-.156v-0.156h-0.311l-0.156-.312h-0.312v-0.156H977.3v-0.156H976.99v-0.156h-0.312v-0.157h-0.312v-0.155h-0.312v-0.157h-0.311V401.55l-0.935-.312v-0.156H974.34v-0.156h-0.312V400.77l-0.779-.156v-0.156l-0.935-.156v-0.156H972V399.99l-1.559-.313v-0.155h-0.467v-0.157h-0.624v-0.156h-0.623v-0.155h-0.624V398.9h-0.623v-0.156l-1.871-.156C963.28,397.9,959.991,398.138,957.038,398.117Zm22.29,19.977h1.247c0.307,0.468.44,0.146,0.623,0.78h0.156l0.156,1.093a1.482,1.482,0,0,0-.312.624l-0.779.624v0.312l-1.247,1.092v0.313l-1.247,1.092c-1.533,2.12-3.456,3.811-4.988,5.931l-0.623.468-0.468.624H971.69v0.312l-1.247,1.093v0.312l-1.247,1.092c-1.533,2.12-3.456,3.811-4.988,5.931l-1.246,1.092v0.312l-1.247,1.093V442.6q-0.624.546-1.247,1.093V444l-1.247,1.092v0.312l-1.247,1.093v0.312l-0.468.312-0.468.624-0.311.156-0.156.469h-0.312l-0.156.312H955.48v0.156l-1.091-.312-0.468-.625h-0.312c-0.156-.207-0.311-0.416-0.467-0.624H952.83l-0.468-.624h-0.311l-0.468-.624h-0.312l-0.156-.312H950.96l-0.156-.313h-0.312l-0.468-.624h-0.311l-0.156-.312H949.4l-0.156-.312h-0.312q-0.234-.312-0.467-0.625h-0.312l-0.468-.623h-0.311l-0.468-.625H946.6l-0.467-.624h-0.312l-0.468-.624h-0.311l-0.468-.625h-0.312l-0.467-.624h-0.312l-0.468-.624H942.7l-0.467-.625h-0.312c-0.156-.207-0.312-0.416-0.467-0.624H941.14l-0.468-.624c-0.957-.69-2.117-1.065-2.182-2.653h0.156v-0.469c0.208-.155.416-0.312,0.623-0.468v-0.156l1.091-.156v0.156h0.468l0.156,0.312H941.3l0.467,0.625h0.312l0.468,0.624h0.311l0.468,0.624h0.312l0.467,0.625h0.312l0.468,0.624h0.311l0.468,0.624h0.312l0.156,0.312h0.155l0.156,0.313h0.312l0.468,0.623h0.311L948,439.475h0.312l0.467,0.624h0.312l0.468,0.624h0.311l0.468,0.625h0.312c0.156,0.207.312,0.416,0.467,0.624h0.312L951.9,442.6h0.311l0.468,0.624h0.312l0.467,0.625h0.312l0.156,0.312h0.156l0.156,0.312h0.311v0.156a1.729,1.729,0,0,0,.78.468l1.4-1.716,0.467-.313v-0.312l1.247-1.092v-0.312l1.247-1.093v-0.312l1.247-1.093v-0.312l0.624-.468,0.467-.624h0.156v-0.312l1.247-1.093v-0.312l1.247-1.092v-0.312l1.247-1.093c1.533-2.119,3.456-3.81,4.988-5.931l1.247-1.092V425.9l1.247-1.093v-0.312l1.247-1.092v-0.312q0.622-.548,1.247-1.093v-0.312l1.247-1.092v-0.313l1.246-1.092v-0.312C978.631,418.547,979.1,418.449,979.328,418.094Z" transform="translate(-870 -345)"/>
</svg>
