<svg xmlns="http://www.w3.org/2000/svg" xmlns:xlink="http://www.w3.org/1999/xlink" viewBox="0 0 127.34 86.95"><defs><style>.cls-1{fill:#6baa9b;}.cls-2{fill:#647cbc;}.cls-3{fill:url(#linear-gradient);}.cls-4{fill:url(#linear-gradient-2);}</style><linearGradient id="linear-gradient" x1="-4969.35" y1="-815.97" x2="-4968.35" y2="-815.97" gradientTransform="matrix(38.5, 0.52, -3.53, -38.55, 188464.98, -28862.03)" gradientUnits="userSpaceOnUse"><stop offset="0" stop-color="#647cbc"/><stop offset="1" stop-color="#6baa9b"/></linearGradient><linearGradient id="linear-gradient-2" x1="-4969.35" y1="-815.97" x2="-4968.35" y2="-815.97" gradientTransform="matrix(34.79, 0.47, -3.19, -34.83, 170314.76, -26075.61)" gradientUnits="userSpaceOnUse"><stop offset="0" stop-color="#3f4d75"/><stop offset="1" stop-color="#69accc"/></linearGradient></defs><title>Ресурс 11</title><g id="Слой_2" data-name="Слой 2"><g id="Layer_1" data-name="Layer 1"><path class="cls-1" d="M49.52,74.66a2.92,2.92,0,0,0-1.19-1.44,3.65,3.65,0,0,0-1.88-.48,4.63,4.63,0,0,0-2.19.52,3.61,3.61,0,0,0-.85.63,2.49,2.49,0,0,0-.7-.67,3.63,3.63,0,0,0-1.88-.48,4,4,0,0,0-2,.53l-.19.14-.11-.19h0a1.2,1.2,0,0,0-.91-.38,1.39,1.39,0,0,0-.91.34,1.35,1.35,0,0,0-.45.9h0l-.79,7.5h0v.15a1.14,1.14,0,0,0,1.19,1.17,1.34,1.34,0,0,0,.94-.35h0a1.42,1.42,0,0,0,.43-.87l.5-4.76a2,2,0,0,1,.61-1.29,1.67,1.67,0,0,1,1.22-.49,1.27,1.27,0,0,1,1,.37,1.31,1.31,0,0,1,.27.91l0,.35-.51,4.82h0v.15a1.15,1.15,0,0,0,.3.79,1.17,1.17,0,0,0,.9.38,1.3,1.3,0,0,0,.93-.36,1.32,1.32,0,0,0,.43-.87l.5-4.76a2,2,0,0,1,.61-1.29A1.61,1.61,0,0,1,46,75.13a1.28,1.28,0,0,1,1,.37,1.32,1.32,0,0,1,.27.92l0,.34-.51,4.82h0v.15a1.15,1.15,0,0,0,.3.79,1.16,1.16,0,0,0,.89.38,1.34,1.34,0,0,0,.94-.35h0a1.32,1.32,0,0,0,.43-.87l.51-4.83c0-.22,0-.44,0-.65a4.07,4.07,0,0,0-.27-1.52Z"/><polygon class="cls-1" points="43.2 82.55 43.2 82.55 43.2 82.55 43.2 82.55"/><polygon class="cls-1" points="46.99 82.52 46.99 82.52 46.98 82.52 46.99 82.52"/><polygon class="cls-1" points="43.23 82.51 43.2 82.55 43.2 82.54 43.23 82.51"/><polygon class="cls-1" points="35.73 82.52 35.73 82.52 35.73 82.52 35.73 82.52"/><polygon class="cls-1" points="41.37 82.52 41.37 82.52 41.37 82.52 41.37 82.52"/><path class="cls-1" d="M14.32,80.76h0a1,1,0,0,0-.85-.39H13c-.08,0-.08,0-.19-.17h0a1.35,1.35,0,0,1-.1-.55V79.4l1-9.22V70a1.22,1.22,0,0,0-.28-.77h0a1.15,1.15,0,0,0-.89-.37,1.39,1.39,0,0,0-.91.34,1.32,1.32,0,0,0-.43.87l-1,9.21h0a5.17,5.17,0,0,0,0,.54,3.7,3.7,0,0,0,.2,1.26h0a2.84,2.84,0,0,0,.92,1.3,2.44,2.44,0,0,0,1.52.48h0a1.82,1.82,0,0,0,1.08-.3,1.24,1.24,0,0,0,.56-.91h0V81.5A1.14,1.14,0,0,0,14.32,80.76Z"/><polygon class="cls-1" points="2.21 82.46 2.15 82.52 2.15 82.52 2.21 82.46"/><path class="cls-1" d="M10.24,73.71c0-.22,0-.42,0-.62a4.51,4.51,0,0,0-.37-1.86h0A3.81,3.81,0,0,0,8.37,69.5h0A4.54,4.54,0,0,0,6,68.88H2.59a1.39,1.39,0,0,0-.92.34h0a1.34,1.34,0,0,0-.46.9L0,81.55H0v.15a1.15,1.15,0,0,0,.3.79,1.16,1.16,0,0,0,.91.39,1.3,1.3,0,0,0,.94-.36h0a1.38,1.38,0,0,0,.44-.88l.35-3.33H5.06a5.38,5.38,0,0,0,2.5-.58,5,5,0,0,0,1.83-1.64h0a5.17,5.17,0,0,0,.85-2.38Zm-3.8,1.87a2.51,2.51,0,0,1-1.21.28h-2l.47-4.53H5.8a2,2,0,0,1,1.1.29,1.68,1.68,0,0,1,.67.79,2.16,2.16,0,0,1,.17.88v.33a2.49,2.49,0,0,1-.42,1.16,2.36,2.36,0,0,1-.87.79Z"/><path class="cls-1" d="M.3,82.49Z"/><polygon class="cls-1" points="58.66 82.52 58.66 82.52 58.66 82.52 58.66 82.52"/><path class="cls-1" d="M60.92,75.29h0a4.39,4.39,0,0,0-1.64-1.85,4.64,4.64,0,0,0-2.52-.68,5.37,5.37,0,0,0-2.64.67,5.72,5.72,0,0,0-2,1.8,5.51,5.51,0,0,0-.93,2.59h0a5.22,5.22,0,0,0,.34,2.6,4.23,4.23,0,0,0,1.52,1.85,4.18,4.18,0,0,0,2.38.68,4.76,4.76,0,0,0,2.48-.67,3.48,3.48,0,0,0,.48-.35,1.13,1.13,0,0,0,.26.59,1.17,1.17,0,0,0,.9.38,1.31,1.31,0,0,0,.92-.35,1.36,1.36,0,0,0,.44-.88l.4-3.76h0c0-.21,0-.41,0-.61A4.65,4.65,0,0,0,60.92,75.29Zm-3.62,5a2.73,2.73,0,0,1-1.36.35,2.22,2.22,0,0,1-1.26-.34,2.15,2.15,0,0,1-.81-1h0a2.64,2.64,0,0,1-.22-1l0-.34h0a3.11,3.11,0,0,1,1.55-2.44,2.72,2.72,0,0,1,1.37-.36,2.28,2.28,0,0,1,1.26.34,2.11,2.11,0,0,1,.79,1,2.49,2.49,0,0,1,.21,1l0,.37a3.25,3.25,0,0,1-.49,1.43h0A3,3,0,0,1,57.3,80.25Z"/><polygon class="cls-1" points="26.69 75.68 26.69 75.67 26.69 75.67 26.69 75.68"/><path class="cls-1" d="M34.37,74.27h0a3.26,3.26,0,0,0-1.43-1.11,5.18,5.18,0,0,0-2.1-.39,5.65,5.65,0,0,0-1.82.3,4,4,0,0,0-1.55.94l-.29.3.3-.3a2.7,2.7,0,0,0-.78,1.67l0,.3a2.3,2.3,0,0,0,.74,1.7A5.08,5.08,0,0,0,30,78.79h0a3.66,3.66,0,0,1,1.56.52.48.48,0,0,1,.24.42v.07c0,.2-.13.35-.42.53a2.63,2.63,0,0,1-1.31.26,2.81,2.81,0,0,1-1.21-.24,1.82,1.82,0,0,1-.7-.48h0a1.23,1.23,0,0,0-.8-.45H27.2a1.51,1.51,0,0,0-.85.32h0a1.32,1.32,0,0,0-.55.8l0,.27a1.13,1.13,0,0,0,.26.71l0,0h0a4.08,4.08,0,0,0,1.63,1A6.3,6.3,0,0,0,30,83a5.59,5.59,0,0,0,2.21-.4,3.75,3.75,0,0,0,1.48-1.13,3.16,3.16,0,0,0,.64-1.61h0l0-.32a2.4,2.4,0,0,0-.25-1.1h0a2.67,2.67,0,0,0-1.13-1.07,7.1,7.1,0,0,0-2.05-.69,7,7,0,0,1-1.26-.35c-.27-.11-.47-.27-.45-.57s.09-.26.36-.41a2.74,2.74,0,0,1,1.11-.21,3.5,3.5,0,0,1,1,.13,1.56,1.56,0,0,1,.67.45h0a1.46,1.46,0,0,0,.81.43l.26,0a1.27,1.27,0,0,0,.69-.2h0a1.17,1.17,0,0,0,.51-.77h0V75a1.15,1.15,0,0,0-.24-.69Z"/><polygon class="cls-1" points="26.68 75.78 26.69 75.68 26.69 75.68 26.68 75.78"/><polygon class="cls-1" points="33.65 81.42 33.65 81.42 33.65 81.42 33.65 81.42"/><polygon class="cls-1" points="22.29 82.52 22.29 82.52 22.29 82.52 22.29 82.52"/><path class="cls-1" d="M24.55,75.29a4.34,4.34,0,0,0-1.65-1.85,4.59,4.59,0,0,0-2.51-.68,5.47,5.47,0,0,0-2.64.66,5.85,5.85,0,0,0-2,1.81,5.51,5.51,0,0,0-.93,2.59h0a5.22,5.22,0,0,0,.34,2.6h0a4.23,4.23,0,0,0,1.52,1.85,4.18,4.18,0,0,0,2.38.68,4.78,4.78,0,0,0,2.48-.67,4.21,4.21,0,0,0,.48-.35,1.13,1.13,0,0,0,.26.59,1.17,1.17,0,0,0,.9.38,1.31,1.31,0,0,0,.92-.35,1.36,1.36,0,0,0,.44-.88l.4-3.76c0-.21,0-.42,0-.62a4.79,4.79,0,0,0-.43-2Zm-3.62,5a2.74,2.74,0,0,1-1.37.35,2.26,2.26,0,0,1-1.26-.34,2.19,2.19,0,0,1-.8-1h0a2.48,2.48,0,0,1-.22-1l0-.34h0a3.23,3.23,0,0,1,.51-1.45,3,3,0,0,1,1.05-1,2.72,2.72,0,0,1,1.37-.36,2.28,2.28,0,0,1,1.26.34,2.11,2.11,0,0,1,.79,1h0a2.49,2.49,0,0,1,.2,1v.37a3.14,3.14,0,0,1-.5,1.43A2.93,2.93,0,0,1,20.93,80.25Z"/><polygon class="cls-2" points="83.01 71.7 83.01 71.7 83.01 71.7 83.01 71.7"/><path class="cls-2" d="M85.37,69.58a1.43,1.43,0,0,0-1.06-.47,1.71,1.71,0,0,0-1.65,1.49h0v.17a1.43,1.43,0,0,0,.36.94,1.39,1.39,0,0,0,1.06.46,1.61,1.61,0,0,0,1.1-.44,1.64,1.64,0,0,0,.55-1h0v-.16a1.4,1.4,0,0,0-.35-.94Z"/><path class="cls-2" d="M65.2,82.53h0Z"/><polygon class="cls-2" points="63.35 82.51 63.35 82.51 63.34 82.51 63.35 82.51"/><path class="cls-2" d="M72.94,71.24a3.84,3.84,0,0,0-1.53-1.73,4.64,4.64,0,0,0-2.4-.62H65.64a1.39,1.39,0,0,0-1.39,1.26h0L63,81.7v0a1.2,1.2,0,0,0,.31.8,1.14,1.14,0,0,0,.9.39,1.35,1.35,0,0,0,.94-.36,1.38,1.38,0,0,0,.44-.89L66,78.33h2.13a5.35,5.35,0,0,0,2.49-.59,4.93,4.93,0,0,0,1.84-1.64,5.11,5.11,0,0,0,.84-2.38h0a4.4,4.4,0,0,0,0-.62,4.55,4.55,0,0,0-.38-1.86Zm-2.17,2.39a2.52,2.52,0,0,1-.41,1.17h0a2.33,2.33,0,0,1-.88.8,2.48,2.48,0,0,1-1.2.29h-2l.48-4.54h2.12a2.13,2.13,0,0,1,1.1.29h0a1.85,1.85,0,0,1,.67.79h0a2.24,2.24,0,0,1,.17.89Z"/><path class="cls-2" d="M84.82,73.22a1.19,1.19,0,0,0-.9-.38,1.39,1.39,0,0,0-.92.34,1.33,1.33,0,0,0-.45.9l-.79,7.5h0v.16a1.17,1.17,0,0,0,.29.77h0a1.16,1.16,0,0,0,.89.38,1.35,1.35,0,0,0,.94-.36,1.37,1.37,0,0,0,.43-.87l.79-7.51h0V74a1.14,1.14,0,0,0-.27-.78Z"/><polygon class="cls-2" points="83 73.18 83 73.18 83 73.18 83 73.18"/><polygon class="cls-2" points="74.6 73.17 74.6 73.17 74.6 73.17 74.6 73.17"/><path class="cls-2" d="M105.62,73.15h0a3.13,3.13,0,0,0-1.71-.41,4.5,4.5,0,0,0-2.1.52,3.82,3.82,0,0,0-.47.31.93.93,0,0,0-.2-.38h0a1.21,1.21,0,0,0-.92-.35,1.36,1.36,0,0,0-.93.33h0a1.38,1.38,0,0,0-.42.89h0l-.79,7.54h0v.19a1.1,1.1,0,0,0,.27.77,1.22,1.22,0,0,0,.91.34,1.37,1.37,0,0,0,.94-.33h0a1.45,1.45,0,0,0,.41-.88h0l.51-4.92a1.56,1.56,0,0,1,.5-1,2.57,2.57,0,0,1,1.24-.59,3.69,3.69,0,0,1,.76-.08,5.36,5.36,0,0,1,1,.11A1.59,1.59,0,0,0,105.7,75a1.07,1.07,0,0,0,.43-.91A1.13,1.13,0,0,0,105.62,73.15Z"/><path class="cls-2" d="M80.93,73.15h0a3.16,3.16,0,0,0-1.71-.41,4.5,4.5,0,0,0-2.1.52,3.82,3.82,0,0,0-.47.31.93.93,0,0,0-.2-.38h0a1.21,1.21,0,0,0-.92-.35,1.36,1.36,0,0,0-.93.33h0a1.38,1.38,0,0,0-.42.89h0l-.79,7.54h0v.19a1.1,1.1,0,0,0,.27.77,1.22,1.22,0,0,0,.91.34,1.37,1.37,0,0,0,.94-.33h0a1.38,1.38,0,0,0,.4-.88h0l.52-4.92a1.56,1.56,0,0,1,.5-1,2.57,2.57,0,0,1,1.24-.59,3.67,3.67,0,0,1,.75-.08,5.28,5.28,0,0,1,1,.11A1.62,1.62,0,0,0,81,75a1.07,1.07,0,0,0,.43-.91A1.12,1.12,0,0,0,80.93,73.15Z"/><polygon class="cls-2" points="101.6 75.74 101.6 75.74 101.68 75.67 101.6 75.74"/><polygon class="cls-2" points="98.34 82.56 98.33 82.56 98.33 82.56 98.34 82.56"/><path class="cls-2" d="M117,73.51a1.17,1.17,0,0,0-.85-.33h-1l.21-2v-.16a1.15,1.15,0,0,0-.29-.77h0a1.15,1.15,0,0,0-.89-.37,1.26,1.26,0,0,0-.91.34h0a1.38,1.38,0,0,0-.44.87l-.21,2.06h-.4a1.35,1.35,0,0,0-.87.3h0a1.22,1.22,0,0,0-.42.81h0v.12a1,1,0,0,0,.29.71,1.18,1.18,0,0,0,.85.33h.32L112,79.17h0a3.87,3.87,0,0,0,0,.48,3.59,3.59,0,0,0,.27,1.39h0a3,3,0,0,0,1.09,1.36,2.94,2.94,0,0,0,1.71.5h.3a1.59,1.59,0,0,0,1-.32h0a1.32,1.32,0,0,0,.5-.9h0v-.16a1.14,1.14,0,0,0-.23-.74h0a1,1,0,0,0-.81-.4h-.58a.58.58,0,0,1-.52-.28,1.09,1.09,0,0,1-.19-.65v-.22l.4-3.77H116a1.34,1.34,0,0,0,.86-.3h0a1.15,1.15,0,0,0,.42-.78h0v-.14a1,1,0,0,0-.29-.73Z"/><path class="cls-2" d="M96.35,75.27a4.16,4.16,0,0,0-1.63-1.84h0a4.87,4.87,0,0,0-2.55-.66,5.58,5.58,0,0,0-2.67.65,5.46,5.46,0,0,0-2,1.79,5.67,5.67,0,0,0-.92,2.63,4.68,4.68,0,0,0,0,.64,4.75,4.75,0,0,0,.42,2h0a4.1,4.1,0,0,0,1.63,1.84,4.89,4.89,0,0,0,2.57.66,5.61,5.61,0,0,0,2.67-.65,5.43,5.43,0,0,0,2-1.79,5.78,5.78,0,0,0,.91-2.61h0q0-.33,0-.66a4.66,4.66,0,0,0-.41-2Zm-2.59,4a3,3,0,0,1-1,1,2.81,2.81,0,0,1-1.39.35,2.33,2.33,0,0,1-1.29-.34,2.12,2.12,0,0,1-.79-.93,2.61,2.61,0,0,1-.2-1l0-.39h0a3.29,3.29,0,0,1,.49-1.46h0a3.07,3.07,0,0,1,1-1A2.79,2.79,0,0,1,92,75.12a2.38,2.38,0,0,1,1.28.34,2,2,0,0,1,.78.94,2.57,2.57,0,0,1,.2,1l0,.4a3.2,3.2,0,0,1-.49,1.45l.35.23Z"/><path class="cls-2" d="M127.34,73.92a1.07,1.07,0,0,0-.7-1h0a1.35,1.35,0,0,0-.56-.13,1.25,1.25,0,0,0-1.07.71l-2.94,5.36L120,73.58h0a1.2,1.2,0,0,0-.62-.67,1.17,1.17,0,0,0-.41-.08,1.26,1.26,0,0,0-.51.11,1.37,1.37,0,0,0-.7.62h0a1.07,1.07,0,0,0-.14.52,1.22,1.22,0,0,0,.1.45h0l3,7-2,3.62h0a1.42,1.42,0,0,0-.21.68,1.06,1.06,0,0,0,.69,1h0a1.36,1.36,0,0,0,.56.14,1.21,1.21,0,0,0,1.08-.74h0l6.38-11.61h0A1.45,1.45,0,0,0,127.34,73.92Z"/><path class="cls-2" d="M107.34,70.6Z"/><polygon class="cls-2" points="107.89 69.55 107.89 69.55 107.89 69.55 107.89 69.55"/><path class="cls-2" d="M110,69.58a1.39,1.39,0,0,0-1.05-.47,1.71,1.71,0,0,0-1.65,1.49v.17a1.43,1.43,0,0,0,.36.94,1.39,1.39,0,0,0,1.06.46,1.61,1.61,0,0,0,1.1-.44,1.64,1.64,0,0,0,.55-1h0v-.16a1.4,1.4,0,0,0-.35-.94Z"/><polygon class="cls-2" points="109.85 71.73 109.85 71.73 109.85 71.73 109.85 71.73"/><polygon class="cls-2" points="107.69 71.7 107.69 71.7 107.69 71.7 107.69 71.7"/><path class="cls-2" d="M109.5,73.22a1.19,1.19,0,0,0-.91-.38,1.39,1.39,0,0,0-.91.34h0a1.35,1.35,0,0,0-.45.89h0l-.79,7.51h0v.15a1.14,1.14,0,0,0,1.19,1.17,1.35,1.35,0,0,0,.94-.36h0a1.37,1.37,0,0,0,.43-.87l.79-7.51h0V74a1.1,1.1,0,0,0-.28-.77Z"/><path class="cls-2" d="M106.72,82.52Z"/><path class="cls-3" d="M59.92,57.37C56.75,47,57.48,30.09,69.21,24.92c5.27-2.31,12.65-3,14.39-13.2h0C83.39,4.15,78.17.28,67.9.15L57,0,50.17,66.22a9.45,9.45,0,0,0,9.77-8.57l0-.17ZM70.75,14.8a3.65,3.65,0,0,1,3.61-3.23,2.94,2.94,0,0,1,2.94,3.31,3.66,3.66,0,0,1-3.61,3.23A2.94,2.94,0,0,1,70.75,14.8Z"/><path class="cls-4" d="M83.62,11.72c2,4.11,2.4,13-13.29,19.49-12,5-9.75,20.92-10.41,26.16H60l3,0a6.16,6.16,0,0,0,6.36-5.59l1-10a4.94,4.94,0,0,1,4.89-4.37,17.46,17.46,0,0,0,11-3.17q4.37-3.26,5-9.71Q92.34,14.59,83.62,11.72Z"/></g></g></svg>