<svg xmlns="http://www.w3.org/2000/svg" xmlns:xlink="http://www.w3.org/1999/xlink" viewBox="0 0 325.83 167.24"><defs><style>.cls-1{fill:none;}.cls-2{clip-path:url(#clip-path);}.cls-3{fill:#6baa9b;}.cls-4{fill:#647cbc;}.cls-5{fill:#6686b3;}.cls-6{fill:#fff;}.cls-7{clip-path:url(#clip-path-2);}.cls-8{fill:url(#Безымянный_градиент_4);}.cls-9{fill:url(#Безымянный_градиент_4-2);}.cls-10{clip-path:url(#clip-path-4);}.cls-11{fill:url(#Безымянный_градиент_4-3);}.cls-12{fill:url(#Безымянный_градиент_4-4);}</style><clipPath id="clip-path" transform="translate(-261.41 -251.94)"><rect class="cls-1" width="841.89" height="595.28"/></clipPath><clipPath id="clip-path-2" transform="translate(-261.41 -251.94)"><path class="cls-1" d="M320.38,302.7a8,8,0,0,1,7.83-7.19,6.47,6.47,0,0,1,6.55,7.19,8,8,0,0,1-7.83,7.19,6.47,6.47,0,0,1-6.55-7.19m-30.72-32.08-13,145.57c11.31,0,20.2-8,21.21-19.11l0-.42-.09-.27v.07c-7.25-22.62-6.15-59.81,19.45-71.49,11.49-5.24,27.68-7,31.21-29.41h0q-1-24.9-34.78-24.93Z"/></clipPath><linearGradient id="Безымянный_градиент_4" y1="595.28" x2="1" y2="595.28" gradientTransform="matrix(71.8, 0, 0, -71.8, 15.3, 42831.68)" gradientUnits="userSpaceOnUse"><stop offset="0" stop-color="#6686b3"/><stop offset="1" stop-color="#72bcb2"/></linearGradient><linearGradient id="Безымянный_градиент_4-2" x1="0" y1="595.28" x2="1" y2="595.28" gradientTransform="matrix(84.52, 0, -8.88, -84.52, 5295.92, 50406.04)" xlink:href="#Безымянный_градиент_4"/><clipPath id="clip-path-4" transform="translate(-261.41 -251.94)"><path class="cls-1" d="M320,338.74C293.71,350,299.2,384.51,297.9,396l.15.44h6.59A13.52,13.52,0,0,0,318.44,384l1.95-21.88A10.86,10.86,0,0,1,331,352.4q14.53,0,24-7.28t10.75-21.45c1.32-14.72-4.45-24.07-17.22-28.1,4.46,9,5.65,28.43-28.6,43.17"/></clipPath><linearGradient id="Безымянный_градиент_4-3" x1="0" y1="595.26" x2="1" y2="595.26" gradientTransform="matrix(0, 100.89, 100.89, 0, -59987.47, 43.63)" xlink:href="#Безымянный_градиент_4"/><linearGradient id="Безымянный_градиент_4-4" x1="0" y1="595.28" x2="1" y2="595.28" gradientTransform="matrix(0, 98.57, 99.66, 10.36, -59253.56, -6121.63)" xlink:href="#Безымянный_градиент_4"/></defs><title>Ресурс 11</title><g id="Слой_2" data-name="Слой 2"><g id="Слой_1-2" data-name="Слой 1"><g class="cls-2"><path class="cls-3" d="M550.87,308.66a8.88,8.88,0,0,0-3.67-4.43l-.66,1.09.66-1.09a11,11,0,0,0-5.77-1.48,14.35,14.35,0,0,0-6.74,1.6,11.88,11.88,0,0,0-2.62,1.92,7.76,7.76,0,0,0-2.15-2,11,11,0,0,0-5.77-1.48,12.37,12.37,0,0,0-6.23,1.62c-.22.12-.37.29-.57.42a3.3,3.3,0,0,0-.34-.57h0a3.66,3.66,0,0,0-2.79-1.15,4.2,4.2,0,0,0-2.81,1,4.09,4.09,0,0,0-1.38,2.76h0l-2.44,23.09h0l0,.48a3.52,3.52,0,0,0,.9,2.41,3.64,3.64,0,0,0,2.77,1.18,4.16,4.16,0,0,0,2.87-1.1h0a4.27,4.27,0,0,0,1.32-2.7L517,315.58a6.09,6.09,0,0,1,1.88-4,5.22,5.22,0,0,1,3.77-1.51,3.88,3.88,0,0,1,3.09,1.16,4,4,0,0,1,.83,2.8l0,1.06-1.57,14.84h0l0,.48a3.52,3.52,0,0,0,.9,2.41,3.64,3.64,0,0,0,2.77,1.18,4.09,4.09,0,0,0,2.86-1.1,4.21,4.21,0,0,0,1.33-2.7l1.54-14.62a6.21,6.21,0,0,1,1.85-4,5.16,5.16,0,0,1,3.75-1.51,3.9,3.9,0,0,1,3.09,1.16,4,4,0,0,1,.83,2.81l0,1.05-1.57,14.84h0l0,.48a3.52,3.52,0,0,0,.9,2.41,3.64,3.64,0,0,0,2.76,1.18,4.14,4.14,0,0,0,2.87-1.1h0a4.27,4.27,0,0,0,1.32-2.7l1.56-14.83a19.88,19.88,0,0,0,.1-2,12.68,12.68,0,0,0-.81-4.69Z" transform="translate(-261.41 -251.94)"/><polygon class="cls-3" points="270.02 80.96 270.01 80.96 270.01 80.97 270.02 80.96"/><polygon class="cls-3" points="281.66 80.89 281.66 80.88 281.66 80.88 281.66 80.89"/><polygon class="cls-3" points="270.12 80.86 270.02 80.96 270.02 80.96 270.12 80.86"/><polygon class="cls-3" points="247.05 80.89 247.05 80.88 247.05 80.88 247.05 80.89"/><polygon class="cls-3" points="264.38 80.89 264.38 80.88 264.38 80.88 264.38 80.89"/><path class="cls-3" d="M442.59,327.42h0A3.22,3.22,0,0,0,440,326.2h-1.29c-.26,0-.27,0-.59-.52h0a3.88,3.88,0,0,1-.33-1.67l.05-.78,3-28.35,0-.48A3.48,3.48,0,0,0,440,292h0a3.58,3.58,0,0,0-2.74-1.15,4,4,0,0,0-2.8,1.05,4.15,4.15,0,0,0-1.34,2.68l-3,28.33h0a13.44,13.44,0,0,0-.1,1.66,11.25,11.25,0,0,0,.63,3.86h0a8.44,8.44,0,0,0,2.83,4,7.5,7.5,0,0,0,4.69,1.5h.1a5.77,5.77,0,0,0,3.34-.94,3.81,3.81,0,0,0,1.73-2.79h0l0-.53a3.68,3.68,0,0,0-.74-2.25" transform="translate(-261.41 -251.94)"/><polygon class="cls-3" points="143.95 80.71 143.77 80.88 143.77 80.88 143.95 80.71"/><path class="cls-3" d="M430.06,305.72a17.92,17.92,0,0,0,.09-1.91,13.79,13.79,0,0,0-1.15-5.72h0a11.76,11.76,0,0,0-4.71-5.32l-.66,1.1.66-1.1a14,14,0,0,0-7.38-1.89H406.54a4.21,4.21,0,0,0-2.84,1.06h0a4.19,4.19,0,0,0-1.41,2.78l-3.69,35.11h0l0,.46a3.63,3.63,0,0,0,3.72,3.65,4.11,4.11,0,0,0,2.9-1.12h0a4.3,4.3,0,0,0,1.35-2.72l1.07-10.22h6.53a16.24,16.24,0,0,0,7.67-1.8,15.23,15.23,0,0,0,5.65-5h0a16,16,0,0,0,2.61-7.32Zm-11.71,5.74a7.52,7.52,0,0,1-3.69.89H408.4l1.46-14h6.53a6.28,6.28,0,0,1,3.4.89,5.4,5.4,0,0,1,2.06,2.43,6.7,6.7,0,0,1,.52,2.72l0,1a7.72,7.72,0,0,1-1.27,3.57,7.45,7.45,0,0,1-2.7,2.44Z" transform="translate(-261.41 -251.94)"/><polygon class="cls-3" points="138.08 80.81 138.08 80.8 138.08 80.8 138.08 80.81"/><polygon class="cls-3" points="317.56 80.89 317.56 80.88 317.56 80.88 317.56 80.89"/><path class="cls-3" d="M585.91,310.59h0a13.39,13.39,0,0,0-5-5.7,14.36,14.36,0,0,0-7.74-2.09,16.67,16.67,0,0,0-8.11,2.05,17.73,17.73,0,0,0-6.12,5.56,16.87,16.87,0,0,0-2.88,8h0a20,20,0,0,0-.11,2,14.68,14.68,0,0,0,1.17,6h0a12.61,12.61,0,0,0,12,7.8,14.84,14.84,0,0,0,7.65-2.07,13,13,0,0,0,1.46-1.06,3.43,3.43,0,0,0,.8,1.8,3.66,3.66,0,0,0,2.77,1.18,4.13,4.13,0,0,0,2.83-1.09,4.2,4.2,0,0,0,1.36-2.71l1.22-11.57h0c.06-.64.09-1.26.09-1.87a14.31,14.31,0,0,0-1.33-6.17M574.8,325.83a8.37,8.37,0,0,1-4.21,1.1,7,7,0,0,1-3.87-1.07,6.54,6.54,0,0,1-2.48-2.93h0a7.58,7.58,0,0,1-.66-3.21l.06-1.05v0a9.67,9.67,0,0,1,1.55-4.43,9.32,9.32,0,0,1,3.24-3.07,8.43,8.43,0,0,1,4.2-1.11,6.93,6.93,0,0,1,3.89,1.07A6.42,6.42,0,0,1,579,314a8.13,8.13,0,0,1,.63,3.21l-.06,1.15a9.84,9.84,0,0,1-1.52,4.39h0a9.08,9.08,0,0,1-3.2,3.06l.64,1.11Z" transform="translate(-261.41 -251.94)"/><polygon class="cls-3" points="219.24 59.83 219.24 59.83 219.24 59.83 219.24 59.83"/><path class="cls-3" d="M504.26,307.44v0s0,0,0,0h0a10.29,10.29,0,0,0-4.39-3.42,16.25,16.25,0,0,0-6.46-1.19,17.25,17.25,0,0,0-5.59.93,12.06,12.06,0,0,0-4.76,2.9l-.9.9.9-.91a8.39,8.39,0,0,0-2.38,5.15l0,.91a7,7,0,0,0,2.26,5.24c1.73,1.65,4.36,2.72,7.9,3.44h0a11.91,11.91,0,0,1,4.8,1.6,1.64,1.64,0,0,1,.76,1.31l0,.22a2.2,2.2,0,0,1-1.28,1.61,8.08,8.08,0,0,1-4.05.82,8.87,8.87,0,0,1-3.7-.74,5.78,5.78,0,0,1-2.17-1.48l0,0a3.77,3.77,0,0,0-2.45-1.36l-.44,0a4.44,4.44,0,0,0-2.59,1h0a4.11,4.11,0,0,0-1.69,2.47l-.09.82a3.36,3.36,0,0,0,.81,2.18l.05.06,0,0a12.49,12.49,0,0,0,5,3.18,20.07,20.07,0,0,0,7,1.19,16.76,16.76,0,0,0,6.79-1.25,11.46,11.46,0,0,0,4.55-3.45,9.79,9.79,0,0,0,2-4.95h0l0-1a7.4,7.4,0,0,0-.77-3.38h0a8.23,8.23,0,0,0-3.47-3.3,21.9,21.9,0,0,0-6.31-2.11,21.82,21.82,0,0,1-3.87-1.09,2.58,2.58,0,0,1-1.19-.79h0l-.18-.71v-.22c.08-.52.25-.82,1.1-1.26a8,8,0,0,1,3.4-.66,10.11,10.11,0,0,1,3,.41,4.84,4.84,0,0,1,2.08,1.37h0a4.64,4.64,0,0,0,2.5,1.31l.82.07a3.9,3.9,0,0,0,2.12-.61l0,0,0,0a3.63,3.63,0,0,0,1.58-2.37h0l0-.53a3.52,3.52,0,0,0-.75-2.13Z" transform="translate(-261.41 -251.94)"/><polygon class="cls-3" points="219.21 60.16 219.24 59.83 219.24 59.84 219.21 60.16"/><polygon class="cls-3" points="240.64 77.51 240.64 77.51 240.64 77.51 240.64 77.51"/><polygon class="cls-3" points="205.7 80.89 205.7 80.88 205.7 80.88 205.7 80.89"/><path class="cls-3" d="M474.05,310.58a13.38,13.38,0,0,0-5.05-5.69,14.31,14.31,0,0,0-7.74-2.09,16.66,16.66,0,0,0-8.1,2.05,17.73,17.73,0,0,0-6.12,5.56,17,17,0,0,0-2.88,8h0a20,20,0,0,0-.11,2,14.68,14.68,0,0,0,1.17,6h0a12.61,12.61,0,0,0,12,7.8,14.82,14.82,0,0,0,7.65-2.07,13,13,0,0,0,1.46-1.06,3.43,3.43,0,0,0,.8,1.8,3.66,3.66,0,0,0,2.77,1.18,4.13,4.13,0,0,0,2.83-1.09,4.2,4.2,0,0,0,1.36-2.71l1.21-11.57a17.31,17.31,0,0,0,.1-1.88,14.4,14.4,0,0,0-1.32-6.16ZM463,325.83a8.43,8.43,0,0,1-4.22,1.1,7,7,0,0,1-3.87-1.07,6.54,6.54,0,0,1-2.48-2.93h0a7.69,7.69,0,0,1-.65-3.2l.06-1.05v0a9.78,9.78,0,0,1,1.55-4.43,9.4,9.4,0,0,1,3.24-3.07,8.43,8.43,0,0,1,4.2-1.11,6.93,6.93,0,0,1,3.89,1.07,6.44,6.44,0,0,1,2.43,2.91h0a8.09,8.09,0,0,1,.63,3.21l-.06,1.15a9.84,9.84,0,0,1-1.52,4.39,9.14,9.14,0,0,1-3.19,3.06l.63,1.11Z" transform="translate(-261.41 -251.94)"/><polygon class="cls-4" points="172.5 95.53 172.5 95.53 172.5 95.53 172.5 95.53"/><path class="cls-4" d="M441.14,340.94a4.22,4.22,0,0,0-3.25-1.44,4.93,4.93,0,0,0-3.38,1.34,5,5,0,0,0-1.68,3.22h0l0,.52a4.21,4.21,0,0,0,1.11,2.88,4.29,4.29,0,0,0,3.26,1.44,4.91,4.91,0,0,0,3.37-1.35,5,5,0,0,0,1.68-3.22h0l0-.5a4.28,4.28,0,0,0-1.1-2.88Z" transform="translate(-261.41 -251.94)"/><polygon class="cls-5" points="117.7 128.84 117.7 128.84 117.7 128.84 117.7 128.84"/><polygon class="cls-5" points="112.02 128.76 112.02 128.76 112.01 128.76 112.02 128.76"/><path class="cls-5" d="M402.93,346a11.82,11.82,0,0,0-4.7-5.31,13.91,13.91,0,0,0-7.38-1.89H380.47a4.23,4.23,0,0,0-4.25,3.85h0l-3.74,35.55,0-.44,0,.47a3.63,3.63,0,0,0,3.71,3.65,4.14,4.14,0,0,0,2.9-1.12,4.26,4.26,0,0,0,1.35-2.72l1.08-10.22h6.53a16.44,16.44,0,0,0,7.66-1.8,15.16,15.16,0,0,0,5.65-5,15.84,15.84,0,0,0,2.61-7.32h0a17.72,17.72,0,0,0,.1-1.91,14,14,0,0,0-1.16-5.72Zm-6.67,7.38A7.83,7.83,0,0,1,395,357h0a7.52,7.52,0,0,1-6.41,3.34h-6.26l1.47-13.95h6.53a6.07,6.07,0,0,1,3.39.89h0a5.34,5.34,0,0,1,2.06,2.43h0a6.6,6.6,0,0,1,.53,2.72Z" transform="translate(-261.41 -251.94)"/><path class="cls-5" d="M439.48,352.12a3.61,3.61,0,0,0-2.8-1.15,4.17,4.17,0,0,0-2.81,1,4.09,4.09,0,0,0-1.38,2.75l-2.43,23.09h0l0,.48a3.53,3.53,0,0,0,.9,2.4h0a3.61,3.61,0,0,0,2.76,1.17,4.12,4.12,0,0,0,2.86-1.09,4.18,4.18,0,0,0,1.33-2.7L440.32,355h0l0-.49a3.58,3.58,0,0,0-.85-2.4Z" transform="translate(-261.41 -251.94)"/><polygon class="cls-4" points="172.46 100.07 172.46 100.07 172.46 100.07 172.46 100.07"/><path class="cls-5" d="M427.51,351.9a9,9,0,0,0-5.27-1.24,13.47,13.47,0,0,0-6.46,1.6,11,11,0,0,0-1.43.94,3.07,3.07,0,0,0-.61-1.14l0,0A3.63,3.63,0,0,0,410.9,351a4.1,4.1,0,0,0-2.85,1,4.2,4.2,0,0,0-1.3,2.73l-2.43,23.2h0l0,.59a3.38,3.38,0,0,0,.85,2.36h0v0h0a3.66,3.66,0,0,0,2.76,1,4.07,4.07,0,0,0,2.89-1,4.17,4.17,0,0,0,1.25-2.71h0L413.64,363h0a4.75,4.75,0,0,1,1.54-3.13,7.87,7.87,0,0,1,3.8-1.82,11.65,11.65,0,0,1,2.33-.23,15.14,15.14,0,0,1,3.1.34l.1,0,1.35.05.31,0,1.34-.63.14-.06.12-.1a3.55,3.55,0,0,0,1.12-1.69h0v0h0l.2-1.11a3.39,3.39,0,0,0-1.59-2.74" transform="translate(-261.41 -251.94)"/><polygon class="cls-4" points="146.63 100.04 146.64 100.03 146.64 100.03 146.63 100.04"/><path class="cls-5" d="M503.42,351.9h0a9.06,9.06,0,0,0-5.28-1.24,13.5,13.5,0,0,0-6.46,1.6,11.76,11.76,0,0,0-1.43.94,3,3,0,0,0-.61-1.15h0A3.63,3.63,0,0,0,486.8,351a4.13,4.13,0,0,0-2.85,1h0a4.15,4.15,0,0,0-1.29,2.74h0l-2.43,23.2h0l0,.59a3.29,3.29,0,0,0,.85,2.37,3.65,3.65,0,0,0,2.78,1,4.07,4.07,0,0,0,2.88-1h0a4.2,4.2,0,0,0,1.24-2.71h0l1.6-15.15a4.69,4.69,0,0,1,1.53-3.13,7.91,7.91,0,0,1,3.8-1.82,11.65,11.65,0,0,1,2.33-.23,15.3,15.3,0,0,1,3.11.34l.1,0,1.34.05.31,0,1.35-.63.14-.06.12-.11a3.48,3.48,0,0,0,1.11-1.68h0v0h0l.19-1.09a3.41,3.41,0,0,0-1.58-2.75m-12.34,8h0l.24-.22Z" transform="translate(-261.41 -251.94)"/><polygon class="cls-5" points="219.63 128.92 219.63 128.91 219.62 128.91 219.63 128.92"/><path class="cls-5" d="M538.39,353a3.53,3.53,0,0,0-2.62-1h-3l.64-6.06,0-.48a3.48,3.48,0,0,0-.87-2.36h0a3.57,3.57,0,0,0-2.75-1.15A4,4,0,0,0,527,343h0a4.08,4.08,0,0,0-1.34,2.69L525,352h-1.24a4,4,0,0,0-2.65.93h0a3.66,3.66,0,0,0-1.3,2.49h0l0,.38a3,3,0,0,0,.89,2.2,3.56,3.56,0,0,0,2.61,1h1l-1.19,11.41h0a10.57,10.57,0,0,0-.08,1.48,10.84,10.84,0,0,0,.82,4.3h0a9.36,9.36,0,0,0,3.34,4.17,9.18,9.18,0,0,0,5.26,1.54h.93a4.89,4.89,0,0,0,3.07-1h0a4,4,0,0,0,1.54-2.74h0l0-.5a3.67,3.67,0,0,0-.73-2.27h0a3.15,3.15,0,0,0-2.51-1.21H533a1.83,1.83,0,0,1-1.62-.86,3.38,3.38,0,0,1-.58-2l0-.56v-.09L532,359h3.26a4,4,0,0,0,2.65-.92h0a3.59,3.59,0,0,0,1.29-2.4h0l0-.43a3.18,3.18,0,0,0-.87-2.24Z" transform="translate(-261.41 -251.94)"/><path class="cls-5" d="M474.93,358.42a12.8,12.8,0,0,0-5-5.63l-.67,1.09.67-1.09a14.77,14.77,0,0,0-7.83-2,16.8,16.8,0,0,0-14.28,7.49,17.66,17.66,0,0,0-2.84,8.08,19.26,19.26,0,0,0-.11,2,14.33,14.33,0,0,0,1.29,6.13h0a12.69,12.69,0,0,0,5,5.64,14.94,14.94,0,0,0,7.9,2,17.17,17.17,0,0,0,8.22-2,16.75,16.75,0,0,0,6-5.51,17.52,17.52,0,0,0,2.81-8h0a20.08,20.08,0,0,0,.1-2,14.57,14.57,0,0,0-1.27-6.14Zm-8,12.39a9,9,0,0,1-3.15,3,8.57,8.57,0,0,1-4.27,1.07,7.09,7.09,0,0,1-4-1,6.33,6.33,0,0,1-2.44-2.86,7.81,7.81,0,0,1-.62-3.2l.06-1.18h0a10.08,10.08,0,0,1,1.53-4.49h0a9,9,0,0,1,3.19-3,8.44,8.44,0,0,1,4.27-1.08,7.14,7.14,0,0,1,3.95,1,6.17,6.17,0,0,1,2.4,2.87,8.24,8.24,0,0,1,.6,3.21l-.06,1.22a10.22,10.22,0,0,1-1.5,4.47l1.07.69Z" transform="translate(-261.41 -251.94)"/><path class="cls-5" d="M570.24,354.28a3.25,3.25,0,0,0-2.16-2.94h0a4.31,4.31,0,0,0-1.71-.39,3.86,3.86,0,0,0-3.31,2.17l-9,16.48-6.52-16.37h0a3.38,3.38,0,0,0-1.92-2L544.3,351a4,4,0,0,0-1.56.32,4.15,4.15,0,0,0-2.16,1.9h0a3.36,3.36,0,0,0-.41,1.59,3.45,3.45,0,0,0,.3,1.39h0v0h0l9.07,21.55-6.1,11.14h0a4.32,4.32,0,0,0-.63,2.1,3.28,3.28,0,0,0,2.1,2.94h0a4.46,4.46,0,0,0,1.74.43,3.71,3.71,0,0,0,3.3-2.28h0l19.62-35.69h0a4.27,4.27,0,0,0,.62-2.11" transform="translate(-261.41 -251.94)"/><path class="cls-4" d="M508.73,344.07h0Z" transform="translate(-261.41 -251.94)"/><polygon class="cls-4" points="249 88.91 249.01 88.91 249.01 88.9 249 88.91"/><path class="cls-4" d="M517.05,340.94a4.22,4.22,0,0,0-3.26-1.44,5,5,0,0,0-3.38,1.34,5,5,0,0,0-1.68,3.22l0,.53a4.17,4.17,0,0,0,1.12,2.88,4.27,4.27,0,0,0,3.25,1.44,4.91,4.91,0,0,0,3.37-1.35,5,5,0,0,0,1.69-3.22v0l0-.5a4.23,4.23,0,0,0-1.1-2.87Z" transform="translate(-261.41 -251.94)"/><polygon class="cls-4" points="255.03 95.62 255.03 95.62 255.03 95.63 255.03 95.62"/><polygon class="cls-4" points="248.41 95.53 248.41 95.53 248.4 95.53 248.41 95.53"/><path class="cls-5" d="M515.38,352.12a3.6,3.6,0,0,0-2.79-1.15,4.17,4.17,0,0,0-2.82,1h0a4.13,4.13,0,0,0-1.38,2.74h0L506,377.85h0l0,.47a3.54,3.54,0,0,0,.89,2.41,3.6,3.6,0,0,0,2.77,1.18,4.1,4.1,0,0,0,2.87-1.09h0a4.22,4.22,0,0,0,1.32-2.69L516.22,355h0l0-.5a3.58,3.58,0,0,0-.86-2.39Z" transform="translate(-261.41 -251.94)"/><path class="cls-5" d="M506.83,380.73Z" transform="translate(-261.41 -251.94)"/><polygon class="cls-5" points="246.28 129.74 245.43 128.79 245.43 128.79 246.28 129.74"/><path class="cls-6" d="M508.78,251.94h0v0" transform="translate(-261.41 -251.94)"/></g><g class="cls-7"><rect class="cls-8" x="15.3" y="18.68" width="71.8" height="145.57"/></g><g class="cls-7"><polygon class="cls-9" points="0 18.68 87.1 18.68 102.4 164.25 15.3 164.25 0 18.68"/></g><g class="cls-10"><rect class="cls-11" x="32.3" y="43.63" width="73.38" height="100.89"/></g><g class="cls-10"><polygon class="cls-12" points="105.68 43.63 105.68 152.15 32.3 144.52 32.3 36.01 105.68 43.63"/></g><g class="cls-2"><path class="cls-5" d="M338.63,403.14a1.16,1.16,0,0,0-.93.5l-5.36,6.73-3.94-6.73a.89.89,0,0,0-.83-.5.87.87,0,0,0-.62.22.89.89,0,0,0-.28.6l-1,9.86a.78.78,0,0,0,.16.6.72.72,0,0,0,.58.22.85.85,0,0,0,.61-.22.93.93,0,0,0,.27-.6l.82-7.8,3.36,5.65a.79.79,0,0,0,.71.49,1.08,1.08,0,0,0,.83-.49l4.57-5.73-.83,7.88a.82.82,0,0,0,.15.6.7.7,0,0,0,.57.22.87.87,0,0,0,.62-.22.89.89,0,0,0,.28-.6l1-9.86a.78.78,0,0,0-.16-.6.73.73,0,0,0-.58-.22" transform="translate(-261.41 -251.94)"/><path class="cls-5" d="M349.81,403.76a4.92,4.92,0,0,0-2.71-.73,5.85,5.85,0,0,0-2.94.76,6.29,6.29,0,0,0-2.16,2.07,6.79,6.79,0,0,0-1,3,5.77,5.77,0,0,0,.43,3,4.68,4.68,0,0,0,1.84,2.07,5.58,5.58,0,0,0,2.94.74,6.32,6.32,0,0,0,2.1-.38,6.45,6.45,0,0,0,1.87-1,.65.65,0,0,0,.07-1.05.68.68,0,0,0-.49-.16.92.92,0,0,0-.54.2,4.06,4.06,0,0,1-1.3.66,4.81,4.81,0,0,1-1.56.26,4,4,0,0,1-2.16-.56,3.58,3.58,0,0,1-1.37-1.56,4.25,4.25,0,0,1-.31-1.74H351a.83.83,0,0,0,.56-.2.78.78,0,0,0,.27-.54,6,6,0,0,0-.35-2.92,4.14,4.14,0,0,0-1.62-2m-5,1.29a4.14,4.14,0,0,1,2.16-.56,3.39,3.39,0,0,1,2,.54,3.14,3.14,0,0,1,1.16,1.51,4.29,4.29,0,0,1,.22,1.54h-7.63a4.86,4.86,0,0,1,.56-1.46,4.43,4.43,0,0,1,1.56-1.57" transform="translate(-261.41 -251.94)"/><path class="cls-5" d="M361.81,403.78a5.59,5.59,0,0,0-2.94-.75,6.48,6.48,0,0,0-3.09.75,6.32,6.32,0,0,0-2.29,2.07,6.53,6.53,0,0,0-1.08,3,5.87,5.87,0,0,0,.41,3,4.51,4.51,0,0,0,1.79,2.07,5.27,5.27,0,0,0,2.86.74,5.35,5.35,0,0,0,2.69-.68,5.56,5.56,0,0,0,2-1.89l-.1,1a5.47,5.47,0,0,1-.81,2.41,4.81,4.81,0,0,1-1.67,1.6,4.39,4.39,0,0,1-2.19.57,4.73,4.73,0,0,1-2.17-.46,4,4,0,0,1-1.44-1.22.69.69,0,0,0-.49-.32.81.81,0,0,0-.62.13.77.77,0,0,0-.36.48.63.63,0,0,0,.15.55,4.94,4.94,0,0,0,1.9,1.69,6.19,6.19,0,0,0,2.86.62,6,6,0,0,0,3.06-.79,6.6,6.6,0,0,0,2.29-2.14,6.77,6.77,0,0,0,1.08-3.06l.45-4.29a5.91,5.91,0,0,0-.45-3,4.62,4.62,0,0,0-1.84-2.07m-.09,7.39a4.77,4.77,0,0,1-1.67,1.55,4.64,4.64,0,0,1-2.26.55,4,4,0,0,1-2.14-.55,3.47,3.47,0,0,1-1.36-1.55,4.4,4.4,0,0,1-.3-2.27,5.12,5.12,0,0,1,.78-2.28,4.58,4.58,0,0,1,3.94-2.11,4,4,0,0,1,2.14.55,3.35,3.35,0,0,1,1.34,1.56,4.35,4.35,0,0,1,.31,2.28,5,5,0,0,1-.78,2.27" transform="translate(-261.41 -251.94)"/><path class="cls-5" d="M376.43,403.14a.87.87,0,0,0-.6.22.91.91,0,0,0-.28.58l-.65,6.22a3,3,0,0,1-.65,1.58,3.82,3.82,0,0,1-1.43,1.09,4.43,4.43,0,0,1-1.9.4,4,4,0,0,1-1.88-.42,2.69,2.69,0,0,1-1.21-1.26,4,4,0,0,1-.27-2.15l.57-5.46a.71.71,0,0,0-.17-.57.75.75,0,0,0-.57-.23.88.88,0,0,0-.59.23.9.9,0,0,0-.29.57l-.57,5.46a5.56,5.56,0,0,0,.37,2.93,4,4,0,0,0,1.67,1.82,5.33,5.33,0,0,0,2.61.62,5.31,5.31,0,0,0,4-1.73l-.08.78a.74.74,0,0,0,.15.6.7.7,0,0,0,.56.22.88.88,0,0,0,.61-.22.86.86,0,0,0,.29-.6l1-9.88a.68.68,0,0,0-.17-.58.74.74,0,0,0-.57-.22" transform="translate(-261.41 -251.94)"/><path class="cls-5" d="M390.6,413.23h-1.22l1-9.29a.68.68,0,0,0-.17-.58.73.73,0,0,0-.56-.22.84.84,0,0,0-.6.22.88.88,0,0,0-.29.58l-.65,6.22a3.06,3.06,0,0,1-.64,1.6,3.65,3.65,0,0,1-1.41,1.08,4.62,4.62,0,0,1-1.93.39,3.49,3.49,0,0,1-1.9-.49,3.09,3.09,0,0,1-1.19-1.36,3.74,3.74,0,0,1-.27-2l.57-5.46a.68.68,0,0,0-.17-.58.73.73,0,0,0-.56-.22.88.88,0,0,0-.61.22.91.91,0,0,0-.28.58l-.57,5.46a5.37,5.37,0,0,0,.37,2.78,4.11,4.11,0,0,0,1.64,1.9,4.9,4.9,0,0,0,2.64.69,5.38,5.38,0,0,0,2.47-.58,5,5,0,0,0,1.55-1.28v.15a1.53,1.53,0,0,0,.24,1.2,1.51,1.51,0,0,0,1.17.38h.52l-.29,2.78a.75.75,0,0,0,.16.59.69.69,0,0,0,.55.22.8.8,0,0,0,.59-.22,1,1,0,0,0,.26-.59l.35-3.37a.74.74,0,0,0-.16-.6.71.71,0,0,0-.57-.22" transform="translate(-261.41 -251.94)"/><path class="cls-5" d="M403.39,403.14a.84.84,0,0,0-.6.22.88.88,0,0,0-.29.58l-.65,6.22a3,3,0,0,1-.65,1.58,3.74,3.74,0,0,1-1.43,1.09,4.43,4.43,0,0,1-1.9.4,4,4,0,0,1-1.88-.42,2.69,2.69,0,0,1-1.21-1.26,4,4,0,0,1-.27-2.15l.57-5.46a.68.68,0,0,0-.17-.57.72.72,0,0,0-.56-.23.89.89,0,0,0-.89.8l-.57,5.46a5.55,5.55,0,0,0,.38,2.93,3.94,3.94,0,0,0,1.67,1.82,5.29,5.29,0,0,0,2.6.62,5.27,5.27,0,0,0,4-1.73l-.08.78a.71.71,0,0,0,.16.6.68.68,0,0,0,.55.22.88.88,0,0,0,.61-.22.91.91,0,0,0,.3-.6l1-9.88a.68.68,0,0,0-.17-.58.72.72,0,0,0-.56-.22" transform="translate(-261.41 -251.94)"/><path class="cls-5" d="M416.78,403.14a.88.88,0,0,0-.61.22.91.91,0,0,0-.3.6l-.43,4.16H408l.44-4.16a.71.71,0,0,0-.16-.6.68.68,0,0,0-.55-.22.84.84,0,0,0-.6.22.9.9,0,0,0-.29.6l-1,9.86a.74.74,0,0,0,.16.6.68.68,0,0,0,.55.22.84.84,0,0,0,.6-.22.9.9,0,0,0,.29-.6l.44-4.25h7.42l-.44,4.25a.69.69,0,0,0,.73.82.8.8,0,0,0,.59-.22.94.94,0,0,0,.28-.6l1-9.86a.74.74,0,0,0-.15-.6.65.65,0,0,0-.54-.22" transform="translate(-261.41 -251.94)"/><path class="cls-5" d="M427.53,403.54a5.09,5.09,0,0,0-2.31-.51,5.76,5.76,0,0,0-2.94.77,6.37,6.37,0,0,0-2.17,2.09,6.71,6.71,0,0,0-1,3,5.57,5.57,0,0,0,.43,3,4.74,4.74,0,0,0,1.82,2.09,5.28,5.28,0,0,0,2.87.76,6,6,0,0,0,4-1.4.63.63,0,0,0,.25-.51.73.73,0,0,0-.23-.52.6.6,0,0,0-.49-.17,1,1,0,0,0-.55.23,3.68,3.68,0,0,1-1.28.68,5,5,0,0,1-1.52.22,3.88,3.88,0,0,1-2.11-.56,3.39,3.39,0,0,1-1.31-1.56,4.58,4.58,0,0,1-.29-2.25,5.44,5.44,0,0,1,.74-2.27,4.37,4.37,0,0,1,1.55-1.56,4,4,0,0,1,2.13-.56,3.5,3.5,0,0,1,2.92,1.38.75.75,0,0,0,.46.31.72.72,0,0,0,.53-.12,1,1,0,0,0,.41-.49.57.57,0,0,0-.11-.54,4.59,4.59,0,0,0-1.75-1.51" transform="translate(-261.41 -251.94)"/><path class="cls-5" d="M436,408.82l4.42-4.46a.84.84,0,0,0,.25-.54.67.67,0,0,0-.23-.51.66.66,0,0,0-.52-.17.87.87,0,0,0-.56.25l-4.63,4.73h-1.88l.44-4.16a.68.68,0,0,0-.73-.82.8.8,0,0,0-.59.22.94.94,0,0,0-.28.6l-1,9.88a.71.71,0,0,0,.15.58.65.65,0,0,0,.54.22.87.87,0,0,0,.91-.8l.44-4.25h1.83l3.89,4.82a.65.65,0,0,0,.53.23.84.84,0,0,0,.58-.21.76.76,0,0,0,.31-.51.71.71,0,0,0-.16-.52Z" transform="translate(-261.41 -251.94)"/><path class="cls-5" d="M449.62,403.8a5.35,5.35,0,0,0-2.89-.77,6.33,6.33,0,0,0-3.07.77,6.62,6.62,0,0,0-2.31,2.09,6.54,6.54,0,0,0-1.08,3,5.67,5.67,0,0,0,.43,3,4.85,4.85,0,0,0,1.81,2.09,5.13,5.13,0,0,0,2.82.76,5.75,5.75,0,0,0,2.82-.7,6,6,0,0,0,1.79-1.54l-.14,1.34a.68.68,0,0,0,.17.58.74.74,0,0,0,.57.22.9.9,0,0,0,.61-.22.88.88,0,0,0,.29-.58l.52-4.94a5.83,5.83,0,0,0-.47-3,4.85,4.85,0,0,0-1.87-2.09m-1.73,8.91a4.6,4.6,0,0,1-2.24.56,4,4,0,0,1-2.1-.56,3.61,3.61,0,0,1-1.37-1.57,4.15,4.15,0,0,1-.33-2.24,4.72,4.72,0,0,1,.8-2.25,5,5,0,0,1,1.7-1.57,4.5,4.5,0,0,1,2.22-.57,3.86,3.86,0,0,1,2.12.57,3.62,3.62,0,0,1,1.35,1.57,4.25,4.25,0,0,1,.32,2.25,5,5,0,0,1-.79,2.24,4.85,4.85,0,0,1-1.68,1.57" transform="translate(-261.41 -251.94)"/><path class="cls-5" d="M462.25,403.14h-3.74a4.84,4.84,0,0,0-2.17.48,4.21,4.21,0,0,0-1.58,1.34,3.85,3.85,0,0,0-.72,1.94,3.29,3.29,0,0,0,.27,1.85,2.72,2.72,0,0,0,1.17,1.25,3,3,0,0,0,.61.24l-2.82,3.16a1,1,0,0,0-.25.52.58.58,0,0,0,.19.51.73.73,0,0,0,.55.22.81.81,0,0,0,.65-.31l3.39-3.67h2.89l-.34,3.15a.78.78,0,0,0,.16.6.67.67,0,0,0,.54.22.84.84,0,0,0,.6-.22,1,1,0,0,0,.3-.58l1-9.88a.78.78,0,0,0-.16-.6.72.72,0,0,0-.58-.22m-1.42,6.14h-3a2.35,2.35,0,0,1-1.72-.63,2,2,0,0,1-.54-1.75,2.37,2.37,0,0,1,.89-1.65,2.92,2.92,0,0,1,1.86-.62h3Z" transform="translate(-261.41 -251.94)"/><path class="cls-5" d="M475.13,408.82l4.42-4.46a.84.84,0,0,0,.25-.54.66.66,0,0,0-.22-.51.7.7,0,0,0-.53-.17.85.85,0,0,0-.55.25l-4.63,4.73H472l.44-4.16a.78.78,0,0,0-.16-.6.72.72,0,0,0-.58-.22.83.83,0,0,0-.59.22,1,1,0,0,0-.27.6l-1,9.88a.78.78,0,0,0,.15.58.68.68,0,0,0,.55.22.87.87,0,0,0,.62-.22.91.91,0,0,0,.28-.58l.45-4.25h1.83l3.88,4.82a.68.68,0,0,0,.54.23.84.84,0,0,0,.58-.21.79.79,0,0,0,.3-.51.7.7,0,0,0-.15-.52Z" transform="translate(-261.41 -251.94)"/><path class="cls-5" d="M488.79,403.79a5.5,5.5,0,0,0-2.92-.76,6.42,6.42,0,0,0-5.38,2.84,6.52,6.52,0,0,0-1.07,3,5.63,5.63,0,0,0,.44,3,4.74,4.74,0,0,0,1.86,2.08,5.58,5.58,0,0,0,2.93.75,6.37,6.37,0,0,0,3.07-.75,6.56,6.56,0,0,0,2.3-2.08,6.44,6.44,0,0,0,1.09-3,5.77,5.77,0,0,0-.47-3,4.72,4.72,0,0,0-1.85-2.08m-.07,7.36a4.71,4.71,0,0,1-1.67,1.56,4.58,4.58,0,0,1-2.25.56,3.94,3.94,0,0,1-2.13-.56,3.62,3.62,0,0,1-1.36-1.56,4.25,4.25,0,0,1-.32-2.25,4.91,4.91,0,0,1,.8-2.26,4.85,4.85,0,0,1,1.68-1.57,4.69,4.69,0,0,1,2.25-.56,4,4,0,0,1,2.13.56,3.56,3.56,0,0,1,1.35,1.57,4.41,4.41,0,0,1,.31,2.26,4.93,4.93,0,0,1-.79,2.25" transform="translate(-261.41 -251.94)"/><path class="cls-5" d="M505.69,403.14a1.18,1.18,0,0,0-.94.5l-5.35,6.73-3.94-6.73a.9.9,0,0,0-.83-.5.87.87,0,0,0-.62.22,1,1,0,0,0-.29.6l-1,9.86a.74.74,0,0,0,.16.6.71.71,0,0,0,.57.22.86.86,0,0,0,.62-.22,1,1,0,0,0,.27-.6l.82-7.8,3.36,5.65a.78.78,0,0,0,.7.49,1.06,1.06,0,0,0,.83-.49l4.58-5.73-.83,7.88a.74.74,0,0,0,.15.6.68.68,0,0,0,.56.22.9.9,0,0,0,.63-.22.94.94,0,0,0,.28-.6l1-9.86a.67.67,0,0,0-.73-.82" transform="translate(-261.41 -251.94)"/><path class="cls-5" d="M517.31,403.63a5.3,5.3,0,0,0-2.61-.62,5.49,5.49,0,0,0-2.54.6,5.56,5.56,0,0,0-1.46,1.12l.08-.77a.78.78,0,0,0-.16-.6.7.7,0,0,0-.56-.22.87.87,0,0,0-.62.22.89.89,0,0,0-.28.6l-1,9.88a.75.75,0,0,0,.16.58.73.73,0,0,0,.58.22.86.86,0,0,0,.6-.22.91.91,0,0,0,.28-.58l.65-6.22A3,3,0,0,1,511,406a3.82,3.82,0,0,1,1.43-1.09,4.46,4.46,0,0,1,1.9-.4,4,4,0,0,1,1.88.42,2.71,2.71,0,0,1,1.22,1.26,4,4,0,0,1,.27,2.14l-.58,5.47a.7.7,0,0,0,.74.8.88.88,0,0,0,.59-.23.86.86,0,0,0,.29-.57l.57-5.47a5.53,5.53,0,0,0-.37-2.92,3.94,3.94,0,0,0-1.67-1.82" transform="translate(-261.41 -251.94)"/><path class="cls-5" d="M530.57,403.8a5.41,5.41,0,0,0-2.9-.77,6.36,6.36,0,0,0-3.07.77,6.71,6.71,0,0,0-2.31,2.09,6.54,6.54,0,0,0-1.08,3,5.77,5.77,0,0,0,.43,3,4.85,4.85,0,0,0,1.81,2.09,5.18,5.18,0,0,0,2.82.76,5.73,5.73,0,0,0,2.82-.7,6,6,0,0,0,1.79-1.54l-.14,1.34a.71.71,0,0,0,.17.58.74.74,0,0,0,.57.22.88.88,0,0,0,.61-.22.84.84,0,0,0,.29-.58l.52-4.94a5.63,5.63,0,0,0-.47-3,4.89,4.89,0,0,0-1.86-2.09m-1.74,8.91a4.58,4.58,0,0,1-2.23.56,4,4,0,0,1-2.11-.56,3.67,3.67,0,0,1-1.37-1.57,4.15,4.15,0,0,1-.33-2.24,4.83,4.83,0,0,1,.8-2.25,5,5,0,0,1,1.7-1.57,4.54,4.54,0,0,1,2.23-.57,3.85,3.85,0,0,1,2.11.57,3.62,3.62,0,0,1,1.35,1.57,4.25,4.25,0,0,1,.32,2.25,4.91,4.91,0,0,1-2.47,3.81" transform="translate(-261.41 -251.94)"/><path class="cls-5" d="M545.45,403.14a.88.88,0,0,0-.61.22.91.91,0,0,0-.3.6l-.44,4.16h-7.42l.44-4.16a.74.74,0,0,0-.16-.6.69.69,0,0,0-.55-.22.84.84,0,0,0-.6.22.9.9,0,0,0-.29.6l-1,9.86a.71.71,0,0,0,.16.6.68.68,0,0,0,.55.22.84.84,0,0,0,.6-.22.89.89,0,0,0,.28-.6l.45-4.25H544l-.44,4.25a.68.68,0,0,0,.73.82.8.8,0,0,0,.59-.22.89.89,0,0,0,.27-.6l1-9.86a.74.74,0,0,0-.15-.6.65.65,0,0,0-.54-.22" transform="translate(-261.41 -251.94)"/><path class="cls-5" d="M558.59,403.14a.84.84,0,0,0-.6.22.88.88,0,0,0-.29.58l-.65,6.22a3,3,0,0,1-.65,1.58,3.74,3.74,0,0,1-1.43,1.09,4.43,4.43,0,0,1-1.9.4,4,4,0,0,1-1.88-.42,2.69,2.69,0,0,1-1.21-1.26,4,4,0,0,1-.27-2.15l.57-5.46a.68.68,0,0,0-.17-.57.74.74,0,0,0-.56-.23.88.88,0,0,0-.6.23.9.9,0,0,0-.29.57l-.57,5.46a5.55,5.55,0,0,0,.38,2.93,3.94,3.94,0,0,0,1.67,1.82,5.29,5.29,0,0,0,2.6.62,5.31,5.31,0,0,0,4-1.73l-.08.78a.74.74,0,0,0,.15.6.72.72,0,0,0,.56.22.88.88,0,0,0,.61-.22.91.91,0,0,0,.3-.6l1-9.88a.68.68,0,0,0-.17-.58.73.73,0,0,0-.56-.22" transform="translate(-261.41 -251.94)"/><path class="cls-5" d="M570.31,403.36a.75.75,0,0,0-.58-.22H566a4.88,4.88,0,0,0-2.18.48,4.29,4.29,0,0,0-1.58,1.34,4,4,0,0,0-.72,1.94,3.47,3.47,0,0,0,.27,1.85A2.77,2.77,0,0,0,563,410a3.22,3.22,0,0,0,.61.24l-2.81,3.16a1,1,0,0,0-.26.52.61.61,0,0,0,.19.51.76.76,0,0,0,.56.22.82.82,0,0,0,.65-.31l3.38-3.67h2.89l-.33,3.15a.74.74,0,0,0,.16.6.67.67,0,0,0,.53.22.84.84,0,0,0,.6-.22,1,1,0,0,0,.31-.58l1-9.88a.74.74,0,0,0-.15-.6m-2,5.92h-3a2.37,2.37,0,0,1-1.72-.63,2,2,0,0,1-.53-1.75,2.33,2.33,0,0,1,.89-1.65,2.91,2.91,0,0,1,1.85-.62h3Z" transform="translate(-261.41 -251.94)"/></g></g></g></svg>