<svg xmlns="http://www.w3.org/2000/svg" width="20" height="20" viewBox="0 0 20 20">
  <defs>
    <style>
      .cls-1 {
        fill: #6686b3;
        fill-rule: evenodd;
      }
    </style>
  </defs>
  <path id="Фигура_3" data-name="Фигура 3" class="cls-1" d="M1208.54,3429.45v0.08a1.872,1.872,0,0,1,.55.66,0.594,0.594,0,0,0,.08.04v0.08a0.251,0.251,0,0,1,.07.04,0.487,0.487,0,0,1,.04.11h0.04c0.03,0.08.05,0.16,0.08,0.24h0.04v0.08h0.04c0.02,0.07.05,0.15,0.08,0.23h0.04v0.12h0.03v0.07h0.04v0.12h0.04v0.12h0.04v0.12h0.04c0.01,0.09.03,0.18,0.04,0.27h0.04c0.01,0.14.02,0.29,0.04,0.43a4.3,4.3,0,0,1-.24,2.42,1.572,1.572,0,0,1-.04.23h-0.03a2.25,2.25,0,0,0-.08.24h-0.04v0.08h-0.04v0.07h-0.04v0.08h-0.04v0.08h-0.04v0.08h-0.04v0.08c-0.02.01-.05,0.02-0.07,0.03v0.08h-0.04a0.564,0.564,0,0,0-.04.12,0.594,0.594,0,0,0-.08.04v0.08a1.526,1.526,0,0,1-.16.11,12.248,12.248,0,0,1-1.44,1.53c-0.26.27-.52,0.54-0.78,0.82-0.78.76-1.56,1.53-2.34,2.3-0.43.44-.86,0.88-1.29,1.33-0.95.93-1.9,1.87-2.85,2.81a16.243,16.243,0,0,1-2.85,2.57h-0.07v0.04h-0.08v0.04h-0.12v0.04c-0.05.01-.1,0.03-0.15,0.04v0.04h-0.12v0.04h-0.08v0.04c-0.13.02-.26,0.05-0.39,0.07a3.99,3.99,0,0,1-2.07.12c-0.14-.01-0.28-0.02-0.43-0.04v-0.04a2.512,2.512,0,0,1-.27-0.04v-0.03h-0.12v-0.04h-0.11v-0.04h-0.12v-0.04h-0.08v-0.04h-0.12v-0.04c-0.07-.03-0.15-0.05-0.23-0.08v-0.04h-0.08v-0.04a0.833,0.833,0,0,1-.15-0.04,0.251,0.251,0,0,1-.04-0.07,1.244,1.244,0,0,0-.16-0.04c-0.01-.03-0.03-0.05-0.04-0.08h-0.08v-0.04c-0.04-.01-0.07-0.03-0.11-0.04a0.2,0.2,0,0,1-.04-0.08H1192l-0.12-.15h-0.08c-0.1-.12-0.2-0.24-0.31-0.35s-0.23-.21-0.35-0.32v-0.07l-0.15-.12v-0.08a0.594,0.594,0,0,1-.08-0.04,0.76,0.76,0,0,1-.04-0.11h-0.04v-0.08a0.3,0.3,0,0,0-.08-0.04v-0.08a0.594,0.594,0,0,0-.08-0.04,1.555,1.555,0,0,0-.08-0.23h-0.03v-0.08h-0.04a2.25,2.25,0,0,1-.08-0.24h-0.04v-0.11h-0.04v-0.08h-0.04v-0.12h-0.04v-0.12h-0.04v-0.11h-0.04v-0.12h-0.03v-0.16h-0.04v-0.19h-0.04v-0.23h-0.04v-0.32a2.734,2.734,0,0,1,.04-1.21v-0.23h0.04v-0.16h0.04v-0.15h0.03v-0.16h0.04v-0.12h0.04v-0.11h0.04v-0.08h0.04v-0.12h0.04c0.01-.05.03-0.1,0.04-0.16h0.04v-0.11h0.04v-0.08h0.04v-0.08c0.02-.01.05-0.03,0.07-0.04a2.094,2.094,0,0,0,.08-0.23,0.3,0.3,0,0,1,.08-0.04v-0.08h0.04c0.01-.04.03-0.08,0.04-0.12a0.689,0.689,0,0,1,.08-0.03v-0.08a0.763,0.763,0,0,1,.11-0.08v-0.08c0.07-.05.13-0.1,0.2-0.16v-0.07l0.66-.63c0.14-.15.29-0.31,0.43-0.47,0.52-.5,1.04-1.01,1.56-1.52l1.8-1.83c1.27-1.27,2.55-2.53,3.82-3.79,0.32-.34.65-0.68,0.97-1.01,0.19-.17.37-0.34,0.55-0.51,0.2-.21.39-0.42,0.59-0.63h0.07c0.06-.06.11-0.13,0.16-0.19h0.08a0.834,0.834,0,0,1,.08-0.12h0.07a0.2,0.2,0,0,0,.04-0.08,0.564,0.564,0,0,0,.12-0.04v-0.04h0.08a0.251,0.251,0,0,1,.04-0.07c0.08-.03.15-0.05,0.23-0.08,0.01-.03.03-0.05,0.04-0.08h0.12v-0.04h0.08v-0.04c0.07-.02.15-0.05,0.23-0.08v-0.03a2.231,2.231,0,0,1,.23-0.04v-0.04h0.12v-0.04h0.12v-0.04h0.11v-0.04c0.12-.01.24-0.03,0.36-0.04a4.4,4.4,0,0,1,2.53.16,2,2,0,0,1,.24.04v0.04h0.07v0.03h0.12v0.04a2.25,2.25,0,0,0,.24.08v0.04h0.07v0.04c0.08,0.03.16,0.05,0.24,0.08a0.59,0.59,0,0,0,.04.08l0.15,0.03a0.59,0.59,0,0,1,.04.08h0.08c0.03,0.04.05,0.08,0.08,0.12H1208c0.02,0.04.05,0.08,0.07,0.12h0.08a0.594,0.594,0,0,1,.04.08A1.171,1.171,0,0,0,1208.54,3429.45Zm-3.86-.27v0.03h-0.31v0.04h-0.24v0.04h-0.11v0.04h-0.16v0.04c-0.12.03-.23,0.05-0.35,0.08v0.04a2.25,2.25,0,0,0-.24.08v0.03h-0.07v0.04a1.244,1.244,0,0,1-.16.04c-0.01.03-.03,0.05-0.04,0.08h-0.08v0.04c-0.04.01-.07,0.03-0.11,0.04a0.2,0.2,0,0,0-.04.08h-0.08c-0.03.04-.05,0.07-0.08,0.11h-0.08q-2.61,2.64-5.22,5.27-2.64,2.625-5.27,5.23a5.417,5.417,0,0,0-.78,1.6c-0.01.19-.03,0.37-0.04,0.55h-0.04a2.583,2.583,0,0,0,.08.94v0.19h0.04v0.16h0.04v0.16h0.04v0.11h0.03v0.12h0.04a0.749,0.749,0,0,1,.04.16h0.04v0.11h0.04v0.08h0.04v0.08c0.03,0.01.05,0.03,0.08,0.04a0.833,0.833,0,0,0,.04.15,0.251,0.251,0,0,0,.07.04v0.08a0.594,0.594,0,0,1,.08.04v0.08a0.3,0.3,0,0,1,.08.04v0.08c0.07,0.05.13,0.1,0.2,0.15v0.08l0.23,0.2c0.01,0.02.03,0.05,0.04,0.07h0.08c0.05,0.07.1,0.13,0.15,0.2h0.08a0.594,0.594,0,0,1,.04.08l0.12,0.03v0.04h0.07a0.59,0.59,0,0,1,.04.08c0.06,0.01.11,0.03,0.16,0.04,0.01,0.03.03,0.05,0.04,0.08h0.08v0.04h0.07v0.04h0.12v0.04h0.08v0.04l0.2,0.03v0.04h0.11v0.04h0.16v0.04h0.15v0.04h0.2v0.04h0.31v0.04h0.63v-0.04h0.31v-0.04c0.13-.01.26-0.03,0.39-0.04v-0.04h0.11v-0.04h0.12v-0.04h0.12v-0.03h0.12v-0.04a0.833,0.833,0,0,1,.15-0.04v-0.04h0.08v-0.04h0.08v-0.04h0.08v-0.04h0.07a0.3,0.3,0,0,0,.04-0.08h0.08v-0.04a0.564,0.564,0,0,0,.12-0.04,0.251,0.251,0,0,1,.04-0.07h0.08a7.839,7.839,0,0,0,.81-0.82c0.13-.12.26-0.24,0.39-0.35,0.42-.43.84-0.86,1.25-1.29,0.58-.56,1.15-1.12,1.72-1.68,1.18-1.2,2.37-2.39,3.55-3.59,0.44-.43.88-0.86,1.33-1.29,0.26-.27.52-0.55,0.78-0.82a6.741,6.741,0,0,0,.78-0.82l0.15-.12v-0.07a0.59,0.59,0,0,1,.08-0.04c0.01-.04.03-0.08,0.04-0.12h0.04v-0.08a0.3,0.3,0,0,0,.08-0.04v-0.08h0.04v-0.07h0.04v-0.08h0.03v-0.08h0.04v-0.08h0.04v-0.12h0.04v-0.07h0.04v-0.12h0.04v-0.12h0.04v-0.11h0.04v-0.2h0.04v-0.2h0.04v-0.31h0.03a2.52,2.52,0,0,0-.07-0.93c-0.02-.12-0.03-0.24-0.04-0.36h-0.04c-0.03-.12-0.05-0.26-0.08-0.39a4.061,4.061,0,0,0-2.46-2.3h-0.15A3.877,3.877,0,0,0,1204.68,3429.18Zm-0.2,1.44h0.39v0.04c0.06,0.01.11,0.03,0.16,0.04a0.735,0.735,0,0,1,.23.62h-0.03a1.416,1.416,0,0,0-.04.2,1.048,1.048,0,0,1-.59.27v-0.04h-0.15v-0.04a0.868,0.868,0,0,1-.36-0.35v-0.35c0.07-.06.09-0.17,0.16-0.23S1204.42,3430.69,1204.48,3430.62Zm-1.83,1.83a1.648,1.648,0,0,1,.51.08,1.526,1.526,0,0,1,.11.16h0.04a0.368,0.368,0,0,0,.08.15,0.546,0.546,0,0,1-.04.43,0.4,0.4,0,0,1-.27.28c-0.07.07-.02,0-0.12,0.04a0.692,0.692,0,0,1-.47-0.04,0.906,0.906,0,0,0-.11-0.16h-0.04a0.578,0.578,0,0,1-.04-0.58A0.868,0.868,0,0,1,1202.65,3432.45Zm4.14,0.39c0.13,0.02.26,0.03,0.39,0.04a2.2,2.2,0,0,0,.23.2,0.368,0.368,0,0,0,.08.15,0.546,0.546,0,0,1-.04.43,0.868,0.868,0,0,1-.35.36h-0.35v-0.04h-0.08v-0.04h-0.08v-0.04l-0.19-.16v-0.12a0.494,0.494,0,0,1-.04-0.42c0.09-.06.11-0.18,0.19-0.24h0.08a0.594,0.594,0,0,0,.04-0.08h0.12v-0.04Zm-5.93,1.33a3.149,3.149,0,0,1,.7.67c0.13,0.11.26,0.23,0.39,0.35l1.29,1.32a2.7,2.7,0,0,1,.7.78c-1.15,1.14-2.29,2.27-3.44,3.4-0.27.27-.54,0.55-0.81,0.82a0.788,0.788,0,0,1-.43.35l-2.23-2.26c-0.26-.25-0.52-0.5-0.78-0.74a0.664,0.664,0,0,1,.28-0.32c0.28-.28.57-0.57,0.85-0.86Zm4.01,0.55c0.17,0.01.34,0.02,0.51,0.04a0.9,0.9,0,0,1,.2.27,0.622,0.622,0,0,1,.07.43h-0.03v0.12c-0.11.09-.21,0.18-0.32,0.27-0.1.01-.2,0.03-0.31,0.04v-0.04h-0.15v-0.04a0.564,0.564,0,0,1-.12-0.04v-0.04a0.834,0.834,0,0,1-.12-0.08v-0.07a0.2,0.2,0,0,0-.08-0.04c-0.01-.13-0.02-0.26-0.04-0.39h0.04a1.416,1.416,0,0,0,.04-0.2,1.526,1.526,0,0,1,.16-0.11v-0.04A0.368,0.368,0,0,0,1204.87,3434.72Zm-4.01,1.09c-0.73.74-1.46,1.48-2.19,2.23-0.26.24-.52,0.49-0.78,0.74v0.08c0.34,0.32.68,0.65,1.02,0.97a1.05,1.05,0,0,0,.42.39l2.97-3Zm-6.13,5.35a1.132,1.132,0,0,0-.16-0.27v-0.36c0.07-.06.1-0.17,0.16-0.23s0.17-.09.23-0.16a0.784,0.784,0,0,1,.63.16v0.08a0.59,0.59,0,0,1,.08.04,0.813,0.813,0,0,1,.07.43h-0.03a1.286,1.286,0,0,0-.04.19,0.976,0.976,0,0,1-.63.28v-0.04h-0.11v-0.04h-0.08v-0.04A0.564,0.564,0,0,0,1194.73,3441.16Zm-1.56.82a1.53,1.53,0,0,1,.47.08l0.12,0.15h0.03a0.936,0.936,0,0,1,.04.16h0.04a0.586,0.586,0,0,1-.31.7c-0.07.08-.02,0-0.12,0.04a0.638,0.638,0,0,1-.47-0.04,1.431,1.431,0,0,0-.11-0.15h-0.04a0.754,0.754,0,0,1-.04-0.67h0.04c0.05-.06.1-0.13,0.15-0.19a1.416,1.416,0,0,1,.2-0.04v-0.04Zm4.14,0.39a1.472,1.472,0,0,1,.46.12c0.03,0.04.07,0.05,0.08,0.07v0.08a0.3,0.3,0,0,0,.08.04,1.075,1.075,0,0,1,0,.59,1.882,1.882,0,0,0-.2.19,0.442,0.442,0,0,0-.15.08c-0.16-.01-0.31-0.03-0.47-0.04-0.09-.1-0.18-0.21-0.27-0.31-0.02-.11-0.03-0.21-0.04-0.31h0.04v-0.16c0.09-.06.11-0.18,0.19-0.23h0.08v-0.04a1.416,1.416,0,0,1,.2-0.04v-0.04Zm-1.96,1.87a0.6,0.6,0,0,1,.71.31,0.634,0.634,0,0,1,.07.43,0.374,0.374,0,0,0-.07.16c-0.09.08-.19,0.16-0.28,0.23a0.552,0.552,0,0,1-.46-0.03,0.4,0.4,0,0,1-.28-0.28,0.663,0.663,0,0,1-.08-0.43c0.07-.06.1-0.17,0.16-0.23S1195.29,3444.31,1195.35,3444.24Z" transform="translate(-1190 -3428)"/>
</svg>
