<svg xmlns="http://www.w3.org/2000/svg" width="20" height="17" viewBox="0 0 20 17">
  <defs>
    <style>
      .cls-1 {
        fill: #6686b3;
        fill-rule: evenodd;
      }
    </style>
  </defs>
  <path id="Фигура_2" data-name="Фигура 2" class="cls-1" d="M793.129,3430h1.054v0.04h0.235v0.04h0.156v0.03h0.156v0.04c0.078,0.01.156,0.03,0.235,0.04v0.04h0.117v0.04H795.2v0.03h0.117v0.04h0.117v0.04h0.117v0.04h0.118v0.04a1.908,1.908,0,0,1,.234.04v0.03h0.117v0.04h0.117v0.04h0.117v0.04h0.117c0.474,0.18,1.023.34,1.484,0.53l0.508,0.12v0.03h0.078v0.04c0.091,0.01.183,0.03,0.274,0.04v0.04h0.078v0.04h0.117v0.03h0.156v0.04h0.078v0.04a0.717,0.717,0,0,1,.313.11,2.209,2.209,0,0,0-.2.58h-0.039c-0.013.07-.026,0.15-0.039,0.23h-0.039c-0.013.07-.026,0.15-0.039,0.22h-0.039v0.12h-0.039v0.11h-0.039v0.12h-0.039v0.11h-0.039v0.12H798.87c-0.026.11-.052,0.22-0.078,0.34-0.462,1.13-.787,2.37-1.25,3.51-0.013.07-.026,0.15-0.039,0.22-0.137.34-.246,0.73-0.391,1.07-1.164-.46-2.462-0.76-3.631-1.22a1.891,1.891,0,0,1-.235-0.04v-0.03h-0.117v-0.04h-0.117v-0.04H792.9v-0.04h-0.117v-0.04H792.66v-0.04h-0.117v-0.03a1.908,1.908,0,0,0-.234-0.04v-0.04a2.156,2.156,0,0,1-.234-0.08v-0.03H792v-0.04c-0.078-.03-0.156-0.05-0.234-0.08-0.26-.2-0.52-0.41-0.781-0.61v-0.07c-0.065-.06-0.13-0.11-0.2-0.16v-0.07c-0.039-.03-0.078-0.05-0.117-0.08v-0.08l-0.078-.03v-0.08c-0.026-.01-0.052-0.03-0.078-0.04-0.027-.07-0.053-0.15-0.079-0.23H790.4c-0.026-.07-0.052-0.15-0.078-0.23h-0.039a3.323,3.323,0,0,1-.2-2.02c0.013-.11.026-0.22,0.039-0.34h0.039v-0.11H790.2v-0.12h0.039v-0.11h0.039v-0.08h0.039c0.039-.11.078-0.23,0.117-0.34,0.026-.01.052-0.03,0.079-0.04,0.012-.05.026-0.1,0.039-0.15h0.039l0.039-.12,0.078-.03v-0.08a1.487,1.487,0,0,1,.156-0.11v-0.08l0.195-.15,0.235-.27h0.078a1.047,1.047,0,0,1,.078-0.11h0.078a0.6,0.6,0,0,1,.039-0.08h0.078c0.013-.03.026-0.05,0.039-0.08h0.078c0.013-.02.026-0.05,0.039-0.07a0.894,0.894,0,0,1,.156-0.04v-0.04h0.079v-0.04c0.078-.02.156-0.05,0.234-0.07v-0.04h0.117v-0.04H792.5v-0.04h0.117v-0.04h0.118v-0.03A1.4,1.4,0,0,0,793.129,3430Zm12.692,0h1.055v0.04c0.13,0.01.26,0.02,0.39,0.04v0.03h0.117v0.04H807.5v0.04h0.118v0.04h0.117v0.04c0.078,0.02.156,0.05,0.234,0.07v0.04h0.078v0.04a0.928,0.928,0,0,1,.157.04c0.013,0.02.026,0.05,0.039,0.07a0.894,0.894,0,0,0,.156.04c0.013,0.03.026,0.05,0.039,0.08a0.54,0.54,0,0,1,.117.04,1.047,1.047,0,0,1,.078.11h0.078l0.235,0.27,0.195,0.15v0.08a1.487,1.487,0,0,1,.156.11v0.08l0.078,0.03,0.039,0.12h0.039l0.039,0.15c0.026,0.01.052,0.03,0.078,0.04v0.07h0.039c0.013,0.06.027,0.11,0.039,0.16h0.039v0.11h0.04v0.08h0.039v0.11a3.148,3.148,0,0,1,.234,1.26v0.31h-0.039l-0.039.45h-0.039c-0.026.13-.052,0.26-0.078,0.38h-0.039v0.08h-0.039v0.11h-0.04c-0.026.08-.052,0.16-0.078,0.23H809.57v0.08h-0.039l-0.039.15c-0.026.01-.052,0.03-0.078,0.04v0.08l-0.078.03v0.08c-0.039.03-.078,0.05-0.117,0.08v0.07c-0.065.05-.13,0.1-0.2,0.16v0.07c-0.039.03-.078,0.05-0.118,0.08-0.013.02-.026,0.05-0.039,0.07h-0.078c-0.065.08-.13,0.16-0.195,0.23h-0.078c-0.013.03-.026,0.05-0.039,0.08H808.4a0.6,0.6,0,0,0-.039.08h-0.078c-0.013.02-.026,0.05-0.039,0.07-0.053.01-.105,0.03-0.157,0.04v0.04h-0.078v0.04c-0.078.02-.156,0.05-0.234,0.07v0.04h-0.117c-0.494.21-1.091,0.37-1.6,0.57-0.118.03-.235,0.05-0.352,0.08-0.668.26-1.4,0.46-2.07,0.72a2.6,2.6,0,0,0-.7.19v0.04c-0.052.02,0-.01-0.039-0.04-0.781-2.25-1.562-4.49-2.343-6.74a4.21,4.21,0,0,0,.664-0.23c0.117-.03.234-0.05,0.351-0.08v-0.04h0.118v-0.03H801.8v-0.04h0.117v-0.04h0.117v-0.04h0.117v-0.04l0.235-.03v-0.04h0.078v-0.04h0.117v-0.04H802.7v-0.04h0.117v-0.04h0.117c0.445-.17.962-0.32,1.406-0.49,0.078-.01.156-0.03,0.235-0.04v-0.04h0.117v-0.04h0.117v-0.03h0.117v-0.04h0.117v-0.04h0.117v-0.04h0.118v-0.04h0.156v-0.03h0.156v-0.04h0.234V3430Zm-7.888,2.4-3.125-.99a2.493,2.493,0,0,0-1.64-.19h-0.156v0.04h-0.156v0.04h-0.078v0.03H792.66v0.04h-0.078v0.04c-0.052.01-.1,0.03-0.156,0.04-0.013.02-.026,0.05-0.039,0.07h-0.078c-0.013.03-.026,0.05-0.039,0.08h-0.078a1.047,1.047,0,0,1-.078.11h-0.078c-0.04.06-.079,0.11-0.118,0.16a1.487,1.487,0,0,0-.156.11v0.08c-0.039.02-.078,0.05-0.117,0.07v0.08c-0.026.01-.052,0.03-0.078,0.04v0.07h-0.039v0.08h-0.039v0.08H791.45v0.07h-0.039v0.08h-0.039v0.08h-0.039v0.11h-0.039v0.15h-0.04v0.19h-0.039a4.005,4.005,0,0,0,.039.99h0.04v0.12h0.039c0.013,0.07.026,0.15,0.039,0.23h0.039v0.07h0.039c0.026,0.08.052,0.16,0.078,0.23,0.026,0.01.052,0.03,0.078,0.04v0.08l0.078,0.03v0.08c0.117,0.1.234,0.2,0.352,0.31l0.117,0.15h0.078c0.013,0.02.026,0.05,0.039,0.07a0.54,0.54,0,0,0,.117.04v0.04h0.078v0.04a2.248,2.248,0,0,1,.235.08v0.03a1.908,1.908,0,0,0,.234.04v0.04h0.117v0.04h0.117v0.04h0.117v0.03H793.4v0.04h0.118v0.04h0.117v0.04h0.117v0.04l0.234,0.03v0.04c0.117,0.03.235,0.05,0.352,0.08v0.04h0.078v0.03h0.156v0.04h0.117v0.04h0.078v0.04a2.585,2.585,0,0,1,.274.04v0.04h0.078v0.03h0.156v0.04h0.078v0.04h0.156v0.04h0.078v0.04h0.157v0.03h0.078v0.04h0.117v0.04h0.117v0.04c0.031,0.01.312,0.07,0.312,0.07v-0.03h0.039c0.014-.08.027-0.16,0.04-0.23h0.039v-0.12h0.039v-0.11h0.039v-0.12h0.039v-0.11h0.039v-0.11h0.039v-0.12h0.039v-0.11h0.039v-0.12H796.8c0.013-.07.026-0.15,0.039-0.23,0.193-.47.354-1.01,0.547-1.48v-0.12h0.039v-0.11h0.039v-0.11H797.5v-0.12h0.039C797.672,3433.21,797.8,3432.81,797.933,3432.4Zm4.139,0q0.781,2.295,1.562,4.57c0.261-.07.521-0.15,0.781-0.22v-0.04c0.117-.03.235-0.05,0.352-0.08v-0.04h0.117v-0.03H805v-0.04h0.117v-0.04h0.117v-0.04h0.118v-0.04h0.117v-0.04l0.234-.03v-0.04h0.078v-0.04c0.117-.03.235-0.05,0.352-0.08v-0.03h0.117v-0.04h0.117v-0.04h0.117v-0.04H806.6v-0.04h0.117v-0.03h0.118v-0.04a1.908,1.908,0,0,1,.234-0.04v-0.04a1.908,1.908,0,0,0,.234-0.04v-0.03h0.078v-0.04c0.078-.03.157-0.05,0.235-0.08a0.6,0.6,0,0,0,.039-0.08h0.078c0.013-.02.026-0.05,0.039-0.07h0.078c0.1-.12.208-0.23,0.312-0.35a1.4,1.4,0,0,0,.157-0.11v-0.08l0.078-.03v-0.08a1.932,1.932,0,0,0,.39-1.22v-0.46H808.75l-0.078-.45h-0.039c-0.026-.08-0.052-0.16-0.078-0.23h-0.039c-0.026-.08-0.052-0.16-0.078-0.23-0.026-.01-0.052-0.03-0.078-0.04v-0.08a1.487,1.487,0,0,1-.156-0.11v-0.08l-0.2-.15a0.6,0.6,0,0,1-.039-0.08h-0.078a1.047,1.047,0,0,1-.078-0.11h-0.078c-0.013-.03-0.026-0.05-0.039-0.08h-0.078c-0.013-.02-0.026-0.05-0.039-0.07H807.5v-0.04c-0.051-.01-0.1-0.03-0.156-0.04v-0.04h-0.117v-0.03h-0.078v-0.04h-0.156v-0.04h-0.117v-0.04h-0.235v-0.04c-0.273.02-.546,0.03-0.82,0.04C804.572,3431.59,803.322,3431.99,802.072,3432.4Zm-2.187,4.35a0.583,0.583,0,0,1,.7.3,0.637,0.637,0,0,1,.078.46h-0.039l-0.039.15c-0.026.01-.052,0.03-0.078,0.04a0.645,0.645,0,0,1-.586.19v-0.04h-0.117a0.6,0.6,0,0,1-.039-0.08H799.69c-0.013-.02-0.026-0.05-0.039-0.07h-0.039v-0.08a0.289,0.289,0,0,1-.078-0.04l-0.039-.45h0.039v-0.08h0.039v-0.08h0.039l0.117-.15A0.371,0.371,0,0,0,799.885,3436.75Zm-2.148,2.89a1.9,1.9,0,0,1,.469.08,0.9,0.9,0,0,1,.273.65,0.255,0.255,0,0,0-.078.15h-0.039v0.08c-0.091.06-.182,0.12-0.273,0.19a0.663,0.663,0,0,1-.43-0.04,0.692,0.692,0,0,1-.351-0.31c-0.013-.11-0.026-0.23-0.039-0.34h0.039c0.013-.06.026-0.13,0.039-0.19l0.2-.15v-0.04c0.065-.01.13-0.03,0.195-0.04v-0.04Zm4.413,0a1.9,1.9,0,0,1,.469.08,0.712,0.712,0,0,1,.234.42h0.039a0.7,0.7,0,0,1-.2.53h-0.078v0.04a0.607,0.607,0,0,0-.117.08,0.663,0.663,0,0,1-.43-0.04,0.692,0.692,0,0,1-.351-0.31c-0.013-.11-0.026-0.23-0.039-0.34h0.039c0.013-.06.026-0.13,0.039-0.19l0.2-.15v-0.04c0.065-.01.13-0.03,0.195-0.04v-0.04Zm-1.64,3.74c-0.121.03-.2,0.12-0.312,0.15a0.739,0.739,0,0,1-.43-0.08,2.612,2.612,0,0,0-.2-0.19,0.387,0.387,0,0,0-.078-0.15c0.013-.15.026-0.3,0.039-0.46,0.1-.08.208-0.17,0.312-0.26a0.573,0.573,0,0,1,.469.04,0.807,0.807,0,0,1,.351.34v0.38h-0.039v0.08h-0.039A0.267,0.267,0,0,0,800.51,3443.38Zm-4.491-.31a1.439,1.439,0,0,1,.469.08,0.717,0.717,0,0,1,.234.42h0.039a0.706,0.706,0,0,1-.195.53h-0.078v0.04a0.646,0.646,0,0,0-.118.08,0.947,0.947,0,0,1-.429-0.04,0.7,0.7,0,0,1-.352-0.31c-0.013-.11-0.026-0.22-0.039-0.34h0.039c0.013-.06.026-0.13,0.039-0.19l0.2-.15v-0.04c0.065-.01.13-0.03,0.2-0.04v-0.04Zm7.85,0a1.9,1.9,0,0,1,.468.08,0.9,0.9,0,0,1,.274.65,0.256,0.256,0,0,0-.079.15h-0.039v0.08c-0.091.06-.182,0.12-0.273,0.19a0.945,0.945,0,0,1-.429-0.04,0.694,0.694,0,0,1-.352-0.31c-0.013-.11-0.026-0.22-0.039-0.34h0.039c0.013-.06.026-0.13,0.039-0.19l0.2-.15v-0.04c0.065-.01.131-0.03,0.2-0.04v-0.04Zm-6.093,2.94a1.928,1.928,0,0,0,.274-0.15h0.312v0.03h0.117c0.013,0.03.026,0.05,0.039,0.08H798.6c0.013,0.03.027,0.05,0.04,0.08h0.039v0.07a0.289,0.289,0,0,0,.078.04c0.013,0.17.026,0.33,0.039,0.5-0.045.04-.016,0-0.039,0.07a2.009,2.009,0,0,0-.2.19,0.4,0.4,0,0,0-.156.08,0.62,0.62,0,0,1-.781-0.72h0.039v-0.12H797.7A0.283,0.283,0,0,0,797.776,3446.01Zm4.023-.15a1.308,1.308,0,0,1,.547.11,0.977,0.977,0,0,1,.2.65,2.435,2.435,0,0,0-.156.23,2.332,2.332,0,0,0-.235.15h-0.39a2.332,2.332,0,0,0-.235-0.15,2.435,2.435,0,0,0-.156-0.23,0.709,0.709,0,0,1,.195-0.65h0.079c0.013-.03.026-0.05,0.039-0.08H801.8v-0.03Z" transform="translate(-790 -3430)"/>
</svg>
