<svg xmlns="http://www.w3.org/2000/svg" width="20" height="18" viewBox="0 0 20 18">
  <defs>
    <style>
      .cls-1 {
        fill: #6686b3;
        fill-rule: evenodd;
      }
    </style>
  </defs>
  <path id="Фигура_6" data-name="Фигура 6" class="cls-1" d="M1192.77,3603h3.87v5.48a5,5,0,0,0,1.41.05c0.03-.05-0.01-0.01.04-0.05V3603h3.82v5.48a5.015,5.015,0,0,0,1.41.05,0.1,0.1,0,0,1,.04-0.05V3603h3.87v5.53H1210v1.37h-0.51V3621h-18.98v-11.1H1190v-1.37h2.77V3603Zm1.18,1.37v1.23h1.52v-1.23h-1.52Zm5.31,0v1.23h1.48v-1.23h-1.48Zm5.27,0v1.23h1.52v-1.23h-1.52Zm-10.58,2.6v1.51a5.783,5.783,0,0,0,1.52.05v-1.56h-1.52Zm5.31,0v1.56h1.48v-1.56h-1.48Zm5.27,0v1.56h1.49a7.257,7.257,0,0,0,.03-1.56h-1.52Zm-12.85,2.93v7.03h16.64v-7.03h-1.09v2.74a6.045,6.045,0,0,1-.08,1.51h-0.04v0.13h-0.04v0.1h-0.04v0.09h-0.04v0.09h-0.04v0.09h-0.04v0.09c-0.04.03-.07,0.06-0.11,0.09v0.09c-0.07.06-.13,0.13-0.2,0.19a0.913,0.913,0,0,1-.08.13h-0.07a0.355,0.355,0,0,0-.04.09h-0.08c-0.01.03-.03,0.07-0.04,0.1h-0.08v0.04c-0.08.03-.16,0.06-0.23,0.09v0.05h-0.12v0.04h-0.16v0.05h-0.31v0.05h-0.23v-0.05h-0.28v-0.05h-0.15v-0.04h-0.12v-0.05h-0.08v-0.04h-0.08v-0.05h-0.08v-0.04h-0.07v-0.05h-0.08c-0.01-.03-0.03-0.06-0.04-0.09h-0.08a1,1,0,0,0-.08-0.14l-0.27-.27v-0.09c-0.03-.02-0.05-0.03-0.08-0.05v-0.09a0.558,0.558,0,0,0-.08-0.05,1.163,1.163,0,0,0-.04-0.18h-0.03v-0.09h-0.04a4.955,4.955,0,0,1-.12-1.55v-2.88h-1.45v4.02a2.259,2.259,0,0,1-.66,1.23l-0.12.18h-0.08c-0.01.03-.02,0.07-0.03,0.1h-0.08v0.04c-0.05.02-.11,0.03-0.16,0.05v0.04l-0.35.09v0.05h-0.31v0.05h-0.24v-0.05h-0.31v-0.05h-0.12v-0.04h-0.11v-0.05h-0.12v-0.04h-0.08v-0.05h-0.08a0.355,0.355,0,0,0-.04-0.09c-0.05-.02-0.1-0.03-0.15-0.05-0.05-.07-0.11-0.15-0.16-0.22-0.04-.02-0.08-0.03-0.12-0.05a0.737,0.737,0,0,0-.04-0.14c-0.05-.04-0.1-0.09-0.15-0.13-0.01-.06-0.03-0.13-0.04-0.19-0.03-.01-0.05-0.03-0.08-0.04v-0.09h-0.04v-0.09h-0.04a5.316,5.316,0,0,1-.11-1.6v-2.88h-1.45v2.83a5.644,5.644,0,0,1-.08,1.46h-0.04v0.14h-0.04v0.09h-0.03a1.163,1.163,0,0,0-.04.18,0.558,0.558,0,0,0-.08.05v0.09c-0.03.02-.05,0.03-0.08,0.05v0.09l-0.27.27a1,1,0,0,0-.08.14h-0.08c-0.01.03-.03,0.06-0.04,0.09-0.05.02-.1,0.03-0.16,0.05l-0.03.09h-0.12v0.04h-0.08v0.05h-0.12v0.04h-0.15v0.05h-0.28v0.05h-0.23v-0.05c-0.16-.01-0.31-0.03-0.47-0.05v-0.04h-0.12v-0.05c-0.07-.03-0.15-0.06-0.23-0.09v-0.04c-0.05-.02-0.11-0.03-0.16-0.05a1,1,0,0,0-.08-0.14h-0.07c-0.07-.09-0.13-0.18-0.2-0.27a0.558,0.558,0,0,0-.08-0.05v-0.09a1.063,1.063,0,0,1-.11-0.09v-0.09h-0.04v-0.09h-0.04v-0.09h-0.04v-0.09h-0.04v-0.1h-0.04v-0.13h-0.04a6.045,6.045,0,0,1-.08-1.51v-2.74h-1.09Zm2.27,0v3.74h0.03v0.14h0.04v0.09h0.04v0.09c0.03,0.02.05,0.03,0.08,0.05,0.01,0.05.03,0.09,0.04,0.14a1.156,1.156,0,0,1,.27.18c0.12,0.01.24,0.03,0.35,0.05a1.388,1.388,0,0,0,.51-0.32v-0.1c0.03-.01.05-0.03,0.08-0.04a3.412,3.412,0,0,0,.08-1.19v-2.83h-1.52Zm5.31,0c-0.01,1.3-.06,2.74.04,3.97,0.09,0.07.02,0.05,0.07,0.14,0.07,0.06.14,0.12,0.2,0.18v0.05a0.327,0.327,0,0,1,.16.09,0.765,0.765,0,0,0,.62-0.09h0.08c0.03-.05.05-0.09,0.08-0.14a1.063,1.063,0,0,0,.11-0.09v-0.09a0.558,0.558,0,0,0,.08-0.05,4.559,4.559,0,0,0,.04-1.19v-2.78h-1.48Zm5.27,0v3.79h0.04v0.14c0.08,0.12.16,0.24,0.23,0.36h0.08v0.05a0.289,0.289,0,0,1,.16.09,0.594,0.594,0,0,0,.35,0h0.16v-0.05c0.52-.13.5-0.76,0.5-1.5v-2.88h-1.52Zm-12.85,8.4v1.33h16.64v-1.33h-16.64Z" transform="translate(-1190 -3603)"/>
</svg>
