<svg xmlns="http://www.w3.org/2000/svg" width="20" height="20" viewBox="0 0 20 20">
  <defs>
    <style>
      .cls-1 {
        fill: #6686b3;
        fill-rule: evenodd;
      }
    </style>
  </defs>
  <path id="Фигура_1" data-name="Фигура 1" class="cls-1" d="M797.772,3602h4.451c0.378,0.68.755,1.35,1.133,2.03h0.351v-0.04h0.039v0.04H804.1v0.04h0.156v0.04c0.078,0.01.156,0.03,0.234,0.04v0.04c0.052,0.01.1,0.03,0.156,0.04,0.013,0.03.026,0.05,0.039,0.08h0.078c0.013,0.03.026,0.05,0.039,0.08h0.079c0.052,0.07.1,0.13,0.156,0.2,0.039,0.03.078,0.05,0.117,0.08v0.08a0.812,0.812,0,0,1,.117.08v0.08a0.289,0.289,0,0,1,.078.04v0.08h0.039v0.08h0.039v0.12h0.039v0.12H805.5a2.807,2.807,0,0,1,.039.91H805.5v0.16h-0.039v0.12h-0.039l-0.078.24h-0.039c-0.013.05-.026,0.11-0.039,0.16l-0.156.12v0.08l-0.156.12v0.04h-0.078c-0.027.04-.053,0.08-0.079,0.12h-0.078a0.6,0.6,0,0,0-.039.08h-0.078v0.04a0.894,0.894,0,0,0-.156.04v0.04a1.908,1.908,0,0,0-.234.04v0.04h-0.156v0.04a2.251,2.251,0,0,0-.7.04,1.111,1.111,0,0,0-.2.28v0.07a0.289,0.289,0,0,1-.078.04c-0.013.06-.026,0.11-0.039,0.16a0.289,0.289,0,0,1-.078.04l-0.078.24a0.289,0.289,0,0,1-.078.04v0.08H802.77v0.08h-0.039v0.08a0.289,0.289,0,0,1-.078.04v0.08h-0.039v0.08h-0.039l-0.039.12h0.039l0.039,0.12h0.039v0.08c0.026,0.01.052,0.03,0.078,0.04l0.078,0.24c0.026,0.01.052,0.03,0.078,0.04l0.078,0.24a0.289,0.289,0,0,1,.078.04v0.08h0.039v0.08a0.289,0.289,0,0,1,.078.04c0.013,0.05.026,0.1,0.039,0.16a0.74,0.74,0,0,1,.157.27,1.93,1.93,0,0,1,1.444.28c0.026,0.04.052,0.08,0.079,0.12h0.078c0.039,0.06.078,0.11,0.117,0.16h0.039v0.08a0.812,0.812,0,0,0,.117.08v0.08a0.289,0.289,0,0,0,.078.04v0.08a1,1,0,0,1,.156.32h1.64c0.042-.09.113-0.16,0.157-0.24,0.012-.05.025-0.11,0.039-0.16a0.289,0.289,0,0,0,.078-0.04l0.078-.24a0.289,0.289,0,0,0,.078-0.04v-0.08h0.039V3611a0.289,0.289,0,0,0,.078-0.04v-0.08h0.039v-0.08h0.039v-0.08a0.289,0.289,0,0,0,.078-0.04c0.026-.08.052-0.15,0.078-0.23a0.289,0.289,0,0,1,.078-0.04l0.078-.24a0.294,0.294,0,0,1,.079-0.04v-0.08a1.3,1.3,0,0,0,.156-0.28,1.35,1.35,0,0,1,.2.04v0.04h0.078c0.013,0.03.026,0.05,0.039,0.08a2.156,2.156,0,0,1,.234.08,0.6,0.6,0,0,1,.039.08,0.9,0.9,0,0,1,.157.04v0.04H809.1a0.6,0.6,0,0,1,.039.08h0.078v0.04a0.54,0.54,0,0,1,.117.04c-0.041.09-.112,0.15-0.156,0.24l-0.039.15a0.289,0.289,0,0,1-.078.04l-0.078.24a0.28,0.28,0,0,1-.079.04l-0.078.24a0.289,0.289,0,0,1-.078.04l-0.078.24c-0.026.01-.052,0.03-0.078,0.04l-0.078.24c-0.026.01-.052,0.03-0.078,0.04v0.08h-0.039v0.08h-0.039v0.08c-0.026.01-.052,0.03-0.078,0.04a0.659,0.659,0,0,1-.156.28l0.039,0.12H808.2v0.08a0.289,0.289,0,0,1,.078.04c0.013,0.05.026,0.1,0.039,0.16a0.289,0.289,0,0,1,.078.04c0.026,0.08.052,0.16,0.078,0.23a0.289,0.289,0,0,0,.078.04l0.078,0.24a0.289,0.289,0,0,0,.078.04l0.078,0.24a0.289,0.289,0,0,0,.078.04c0.013,0.06.027,0.11,0.039,0.16a0.31,0.31,0,0,0,.079.04l0.078,0.24c0.026,0.01.052,0.03,0.078,0.04l0.078,0.24c0.026,0.01.052,0.03,0.078,0.04l0.078,0.24a0.289,0.289,0,0,1,.078.04c0.013,0.05.026,0.1,0.039,0.16a0.289,0.289,0,0,1,.078.04l0.078,0.24a0.31,0.31,0,0,1,.079.04l0.078,0.24a0.289,0.289,0,0,1,.078.04v0.08h0.039v0.07c0.021,0.04.107,0.03,0.078,0.12h-0.039a0.733,0.733,0,0,1-.156.28c-0.013.06-.026,0.11-0.039,0.16a0.321,0.321,0,0,1-.078.04c-0.027.08-.053,0.16-0.079,0.24-0.026.01-.052,0.03-0.078,0.04v0.08h-0.039v0.08c-0.026.01-.052,0.03-0.078,0.04l-0.078.24c-0.026.01-.052,0.03-0.078,0.04l-0.078.24c-0.026.01-.052,0.03-0.078,0.04l-0.078.24a0.289,0.289,0,0,0-.078.04c-0.013.05-.027,0.1-0.04,0.16a0.289,0.289,0,0,0-.078.04l-0.078.24a0.289,0.289,0,0,0-.078.04c-0.026.07-.052,0.15-0.078,0.23a0.289,0.289,0,0,1-.078.04l-0.078.24a1.043,1.043,0,0,0-.273.56c0.094,0.07.024,0.03,0.078,0.12h0.039v0.08c0.026,0.01.052,0.03,0.078,0.04v0.08h0.039v0.08c0.026,0.01.052,0.03,0.078,0.04v0.08h0.039v0.08c0.026,0.01.052,0.03,0.078,0.04,0.013,0.05.026,0.1,0.039,0.16a0.289,0.289,0,0,1,.078.04c0.013,0.05.026,0.1,0.039,0.16a0.289,0.289,0,0,1,.078.04c0.013,0.05.026,0.1,0.039,0.16a0.294,0.294,0,0,1,.079.04c0.013,0.05.026,0.1,0.039,0.16l0.078,0.03v0.08H809.1v0.08a0.289,0.289,0,0,0,.078.04v0.08h0.039v0.08a0.289,0.289,0,0,0,.078.04c0.013,0.06.026,0.11,0.039,0.16a0.289,0.289,0,0,0,.078.04c0.013,0.06.026,0.11,0.039,0.16a0.289,0.289,0,0,0,.078.04v0.04h-0.039v0.04h-0.078c-0.013.03-.026,0.05-0.039,0.08h-0.078v0.04h-0.078c-0.013.03-.026,0.05-0.039,0.08H809.1v0.04h-0.078c-0.013.03-.026,0.05-0.039,0.08-0.052.01-.105,0.03-0.157,0.04-0.013.03-.026,0.05-0.039,0.08h-0.078v0.04h-0.078v0.04c-0.039.01-.078,0.03-0.117,0.04v-0.04c-0.094-.07-0.025-0.03-0.078-0.12h-0.039v-0.08c-0.026-.01-0.052-0.03-0.078-0.04v-0.08h-0.039v-0.08c-0.026-.01-0.052-0.03-0.078-0.04v-0.08h-0.039v-0.08a0.294,0.294,0,0,1-.079-0.04c-0.013-.05-0.026-0.1-0.039-0.16a0.289,0.289,0,0,1-.078-0.04c-0.013-.05-0.026-0.1-0.039-0.16a0.289,0.289,0,0,1-.078-0.04c-0.013-.05-0.026-0.1-0.039-0.16a0.289,0.289,0,0,1-.078-0.04c-0.013-.05-0.026-0.1-0.039-0.16l-0.078-.03c-0.013-.06-0.026-0.11-0.039-0.16a0.289,0.289,0,0,0-.078-0.04v-0.08a0.289,0.289,0,0,0-.078-0.04c-0.013-.06-0.026-0.11-0.039-0.16a0.289,0.289,0,0,0-.078-0.04v-0.08a0.836,0.836,0,0,1-.157-0.28h-1.679a3.054,3.054,0,0,1-.234.52l-0.273.24-0.117.15h-0.079a0.6,0.6,0,0,1-.039.08,0.894,0.894,0,0,1-.156.04,0.6,0.6,0,0,1-.039.08,1.908,1.908,0,0,1-.234.04,1.83,1.83,0,0,1-2.187-.83v-0.08h-0.039v-0.08h-0.039a2.731,2.731,0,0,1-.117-1.12h0.039v-0.16h0.039v-0.12h0.039v-0.08h0.039v-0.12h0.039v-0.08a0.289,0.289,0,0,0,.078-0.04v-0.07a0.289,0.289,0,0,1,.078-0.04v-0.08a0.289,0.289,0,0,1,.078-0.04,1.307,1.307,0,0,0-.156-0.36h-0.039v-0.08h-0.039v-0.08a0.289,0.289,0,0,0-.078-0.04c-0.013-.05-0.026-0.11-0.039-0.16-0.026-.01-0.052-0.03-0.078-0.04l-0.078-.24c-0.026-.01-0.052-0.03-0.078-0.04v-0.08h-0.039v-0.08h-0.039c-0.052-.11-0.105-0.21-0.157-0.32h-3.045c-0.521.87-1.042,1.73-1.562,2.59-0.079-.02-0.034.01-0.078-0.04a0.567,0.567,0,0,1-.118-0.04v-0.04h-0.078a0.6,0.6,0,0,1-.039-0.08,0.894,0.894,0,0,1-.156-0.04,0.6,0.6,0,0,1-.039-0.08,0.894,0.894,0,0,1-.156-0.04,0.6,0.6,0,0,1-.039-0.08c-0.1-.05-0.208-0.1-0.313-0.16l0.039-.12a0.861,0.861,0,0,0,.2-0.31,0.289,0.289,0,0,1,.078-0.04v-0.08h0.039v-0.08a0.289,0.289,0,0,1,.078-0.04c0.013-.06.026-0.11,0.039-0.16h0.039l0.039-.12a0.289,0.289,0,0,1,.078-0.04v-0.08h0.039v-0.08c0.026-.01.052-0.03,0.078-0.04,0.013-.05.026-0.11,0.039-0.16,0.026-.01.052-0.03,0.079-0.04v-0.08c0.026-.01.052-0.03,0.078-0.04,0.013-.05.026-0.11,0.039-0.16h0.039l0.039-.12c0.026-.01.052-0.03,0.078-0.04v-0.08h0.039v-0.08a0.289,0.289,0,0,0,.078-0.04c0.013-.05.026-0.1,0.039-0.16a0.289,0.289,0,0,0,.078-0.04v-0.08a0.289,0.289,0,0,0,.078-0.04v-0.08h0.039v-0.08h0.039l0.039-.12a0.552,0.552,0,0,1-.156-0.27,0.289,0.289,0,0,0-.078-0.04v-0.08h-0.039v-0.08a0.289,0.289,0,0,0-.078-0.04v-0.08h-0.039c-0.013-.06-0.026-0.11-0.039-0.16a0.289,0.289,0,0,0-.078-0.04l-0.078-.24c-0.026-.01-0.052-0.03-0.078-0.04-0.013-.05-0.027-0.11-0.039-0.16-0.027-.01-0.053-0.03-0.079-0.04l-0.078-.24c-0.026-.01-0.052-0.03-0.078-0.04l-0.078-.24a0.289,0.289,0,0,1-.078-0.04l-0.078-.24a0.289,0.289,0,0,1-.078-0.04v-0.08h-0.039v-0.08a0.289,0.289,0,0,1-.078-0.04v-0.08c-0.016-.02-0.138-0.23-0.157-0.24h-1.679a1.231,1.231,0,0,1-.507.76c-0.039.06-.078,0.11-0.117,0.16h-0.079c-0.012.03-.025,0.05-0.039,0.08-0.078.03-.156,0.05-0.234,0.08v0.04H793.2v0.04h-0.117v0.04c-0.208.03-.417,0.05-0.625,0.08v-0.04c-0.156-.01-0.312-0.03-0.468-0.04-0.183-.09-0.365-0.19-0.547-0.28-0.078-.09-0.156-0.18-0.234-0.28l-0.157-.12v-0.08a0.289,0.289,0,0,1-.078-0.04c-0.013-.05-0.026-0.1-0.039-0.16H790.9c-0.013-.05-0.026-0.1-0.039-0.16h-0.039a2.468,2.468,0,0,1-.117-0.91h0.039v-0.2h0.039v-0.16h0.039v-0.12h0.039l0.078-.24h0.039l0.039-.12a0.289,0.289,0,0,0,.078-0.04v-0.08a0.28,0.28,0,0,0,.079-0.04v-0.04h-0.039a1.227,1.227,0,0,0-.157-0.28v-0.08a0.289,0.289,0,0,1-.078-0.04c-0.013-.05-0.026-0.1-0.039-0.16a0.289,0.289,0,0,1-.078-0.04c-0.026-.07-0.052-0.15-0.078-0.23a0.289,0.289,0,0,0-.078-0.04l-0.078-.24a0.289,0.289,0,0,0-.078-0.04l-0.078-.24a0.289,0.289,0,0,0-.078-0.04c-0.014-.05-0.026-0.11-0.039-0.16-0.026-.01-0.053-0.03-0.079-0.04v-0.08a1.038,1.038,0,0,1-.2-0.36h0.039v-0.08c0.026-.01.052-0.03,0.078-0.04,0.013-.05.026-0.1,0.039-0.16a0.289,0.289,0,0,0,.078-0.04v-0.08h0.04v-0.08h0.039v-0.08a0.289,0.289,0,0,0,.078-0.04l0.078-.24a0.289,0.289,0,0,0,.078-0.04c0.026-.08.052-0.16,0.078-0.23a0.289,0.289,0,0,1,.078-0.04c0.013-.06.026-0.11,0.039-0.16a0.289,0.289,0,0,1,.078-0.04l0.078-.24a0.289,0.289,0,0,1,.078-0.04l0.078-.24c0.027-.01.053-0.03,0.079-0.04l0.078-.24c0.026-.01.052-0.03,0.078-0.04v-0.08h0.039v-0.08c0.026-.01.052-0.03,0.078-0.04,0.013-.05.026-0.11,0.039-0.16h0.039v-0.08a0.289,0.289,0,0,0,.078-0.04v-0.08H791.6v-0.08h0.039v-0.08a0.289,0.289,0,0,0,.078-0.04v-0.08a0.37,0.37,0,0,0,.117-0.28H791.8v-0.08a0.289,0.289,0,0,1-.078-0.04v-0.08H791.68v-0.07a0.289,0.289,0,0,0-.078-0.04c-0.013-.06-0.026-0.11-0.039-0.16a0.289,0.289,0,0,0-.078-0.04v-0.08a0.289,0.289,0,0,0-.078-0.04c-0.013-.06-0.026-0.11-0.039-0.16a0.289,0.289,0,0,0-.078-0.04c-0.013-.06-0.026-0.11-0.039-0.16a0.289,0.289,0,0,0-.078-0.04c-0.013-.06-0.026-0.11-0.039-0.16h-0.04c-0.012-.04-0.026-0.08-0.039-0.12-0.026-.01-0.052-0.03-0.078-0.04-0.013-.05-0.026-0.11-0.039-0.16-0.026-.01-0.052-0.03-0.078-0.04-0.013-.05-0.026-0.11-0.039-0.16-0.026-.01-0.052-0.03-0.078-0.04v-0.08c-0.026-.01-0.052-0.03-0.078-0.04v-0.08a0.834,0.834,0,0,1-.156-0.28,0.54,0.54,0,0,0,.117-0.04,0.6,0.6,0,0,0,.039-0.08,0.894,0.894,0,0,0,.156-0.04,0.6,0.6,0,0,0,.039-0.08,0.894,0.894,0,0,0,.156-0.04,0.6,0.6,0,0,0,.039-0.08h0.079a0.6,0.6,0,0,0,.039-0.08h0.078a0.883,0.883,0,0,1,.273-0.15c0.013,0.04.026,0.07,0.039,0.12H791.6v0.07h0.039v0.08a0.289,0.289,0,0,0,.078.04c0.013,0.06.026,0.11,0.039,0.16a0.289,0.289,0,0,0,.078.04c0.013,0.06.026,0.11,0.039,0.16h0.04c0.012,0.04.026,0.08,0.039,0.12a0.289,0.289,0,0,0,.078.04v0.08h0.039v0.08c0.026,0.01.052,0.03,0.078,0.04,0.013,0.05.026,0.11,0.039,0.16h0.039l0.039,0.12c0.026,0.01.052,0.03,0.078,0.04v0.08h0.039v0.08c0.026,0.01.052,0.03,0.078,0.04,0.013,0.05.026,0.11,0.039,0.16a0.289,0.289,0,0,1,.078.04c0.013,0.05.026,0.1,0.039,0.16a0.31,0.31,0,0,1,.079.04c0.052,0.1.1,0.21,0.156,0.32h3.084a0.294,0.294,0,0,1,.079-0.08v-0.08h0.039v-0.08a0.289,0.289,0,0,1,.078-0.04l0.078-.24a0.289,0.289,0,0,1,.078-0.04l0.078-.24c0.026-.01.052-0.03,0.078-0.04l0.078-.24c0.026-.01.052-0.03,0.078-0.04v-0.08h0.039v-0.08c0.026-.01.052-0.03,0.078-0.04,0.027-.08.052-0.16,0.079-0.24a0.289,0.289,0,0,0,.078-0.04l0.078-.24a0.289,0.289,0,0,0,.078-0.04c0.013-.05.026-0.1,0.039-0.16a0.289,0.289,0,0,0,.078-0.04c0.026-.07.052-0.15,0.078-0.23a0.289,0.289,0,0,1,.078-0.04l0.078-.24a0.289,0.289,0,0,1,.078-0.04l0.078-.24a0.294,0.294,0,0,1,.079-0.04v-0.08A0.87,0.87,0,0,0,797.772,3602Zm3.787,1.19h-3.084l-0.039.12a0.28,0.28,0,0,1-.079.04c-0.013.06-.026,0.11-0.039,0.16a0.289,0.289,0,0,1-.078.04l-0.078.24a0.289,0.289,0,0,1-.078.04l-0.078.24c-0.026.01-.052,0.03-0.078,0.04v0.08h-0.039v0.08c-0.026.01-.052,0.03-0.078,0.04l-0.078.24c-0.026.01-.052,0.03-0.078,0.04l-0.078.24a0.28,0.28,0,0,0-.079.04l-0.078.24a0.289,0.289,0,0,0-.078.04v0.08H797.3v0.08a0.289,0.289,0,0,0-.078.04l-0.078.24-0.078.03v0.08H797.03c-0.013.06-.026,0.11-0.039,0.16h-0.039c-0.023.06,0.019,0.02,0.039,0.04a0.442,0.442,0,0,0,.078.2h0.039l0.078,0.24a0.289,0.289,0,0,0,.078.04c0.013,0.06.026,0.11,0.039,0.16,0.026,0.01.052,0.03,0.078,0.04l0.078,0.24c0.026,0.01.052,0.03,0.078,0.04v0.08h0.04v0.08h0.039c0.052,0.11.1,0.21,0.156,0.32h0.156v-0.04c0.208,0.01.417,0.02,0.625,0.04,0.169,0.06.338,0.13,0.507,0.2a0.6,0.6,0,0,1,.039.08h0.078a0.594,0.594,0,0,1,.04.08H799.3c0.052,0.06.1,0.13,0.156,0.2a0.812,0.812,0,0,1,.117.08v0.08c0.039,0.02.078,0.05,0.117,0.07a2.99,2.99,0,0,0,.2.44h1.64a0.758,0.758,0,0,1,.078-0.08v-0.08h0.04v-0.08a0.289,0.289,0,0,0,.078-0.04c0.026-.08.052-0.16,0.078-0.23a0.289,0.289,0,0,1,.078-0.04l0.078-.24a0.289,0.289,0,0,1,.078-0.04l0.078-.24a0.289,0.289,0,0,1,.078-0.04c0.013-.06.026-0.11,0.039-0.16a0.289,0.289,0,0,1,.078-0.04c0.013-.07.026-0.13,0.039-0.2a1.659,1.659,0,0,1-.39-1.51c0.013-.11.026-0.22,0.039-0.32h0.039l0.078-.24h0.039v-0.08a0.289,0.289,0,0,1,.078-0.04v-0.08h0.039a0.31,0.31,0,0,0,.078-0.2H802.3c-0.013-.05-0.026-0.11-0.039-0.16-0.026-.01-0.052-0.03-0.078-0.04-0.013-.05-0.026-0.11-0.039-0.16-0.026-.01-0.052-0.03-0.078-0.04l-0.078-.24a0.289,0.289,0,0,1-.078-0.04l-0.078-.24a0.289,0.289,0,0,1-.078-0.04c-0.013-.05-0.026-0.1-0.039-0.16A0.776,0.776,0,0,1,801.559,3603.19Zm1.953,2.04c-0.061.07-.168,0.09-0.234,0.16l-0.2.27a2.236,2.236,0,0,0,.078.6,0.91,0.91,0,0,0,.274.2,0.739,0.739,0,0,0,.664,0,1.627,1.627,0,0,1,.2-0.2,0.4,0.4,0,0,1,.078-0.16v-0.44c-0.07-.06-0.092-0.17-0.156-0.23-0.091-.07-0.183-0.14-0.274-0.2h-0.429Zm-7.576,1.23h-3.045c-0.046.1-.113,0.16-0.156,0.24-0.014.05-.026,0.11-0.039,0.16-0.027.01-.053,0.03-0.079,0.04-0.013.05-.026,0.11-0.039,0.16-0.026.01-.052,0.03-0.078,0.04l-0.078.24a0.289,0.289,0,0,0-.078.04l-0.078.24a0.289,0.289,0,0,0-.078.04l-0.078.24a0.289,0.289,0,0,0-.078.04l-0.039.15a0.289,0.289,0,0,1-.078.04v0.08h-0.04v0.08h-0.039v0.08a0.289,0.289,0,0,1-.078.04v0.08a3.187,3.187,0,0,0-.39.72h0.039l0.078,0.24c0.026,0.01.052,0.03,0.078,0.04,0.013,0.05.026,0.11,0.039,0.16,0.026,0.01.052,0.03,0.078,0.04l0.078,0.24a0.289,0.289,0,0,1,.078.04c0.026,0.08.052,0.16,0.079,0.24a0.289,0.289,0,0,1,.078.04c0.013,0.05.026,0.1,0.039,0.16,0.043,0.08.11,0.13,0.156,0.23a1.859,1.859,0,0,1,1.484.32c0.078,0.1.156,0.19,0.234,0.28a0.812,0.812,0,0,0,.117.08c0.091,0.19.182,0.37,0.273,0.56h1.64q0.021-.06.039-0.12h0.04v-0.08h0.039v-0.08c0.026-.01.052-0.03,0.078-0.04l0.078-.24a0.289,0.289,0,0,0,.078-0.04l0.078-.24a0.289,0.289,0,0,0,.078-0.04v-0.08h0.039v-0.08a0.289,0.289,0,0,0,.078-0.04c0.026-.08.052-0.16,0.078-0.23h0.039l0.039-.12h0.04c0.02-.12-0.086-0.11-0.118-0.16v-0.08a0.289,0.289,0,0,0-.078-0.04v-0.08h-0.039l-0.078-.24h-0.039v-0.12h-0.039v-0.16h-0.039v-0.28h-0.039v-0.24h0.039v-0.28h0.039v-0.16h0.039v-0.12h0.039l0.078-.24h0.039v-0.08a0.289,0.289,0,0,0,.078-0.04v-0.07c0.032-.05.138-0.05,0.118-0.16h-0.04l-0.039-.12h-0.039v-0.08H796.6v-0.08a0.289,0.289,0,0,0-.078-0.04v-0.08h-0.039v-0.08h-0.039v-0.08a0.289,0.289,0,0,0-.078-0.04l-0.078-.24c-0.026-.01-0.052-0.03-0.078-0.04l-0.078-.24c-0.026-.01-0.052-0.03-0.078-0.04v-0.08h-0.039v-0.08h-0.04Q795.957,3606.52,795.936,3606.46Zm2.07,2.03v0.04a1.35,1.35,0,0,1-.195.04v0.04h-0.078v0.04l-0.156.12a0.374,0.374,0,0,1-.079.16c-0.013.11-.026,0.21-0.039,0.32a0.633,0.633,0,0,0,.352.48,0.6,0.6,0,0,0,.468.12v-0.04H798.4v-0.04h0.079c0.013-.03.026-0.05,0.039-0.08h0.078l0.039-.12c0.026-.01.052-0.03,0.078-0.04v-0.08a0.717,0.717,0,0,0,0-.64c-0.1-.09-0.208-0.18-0.313-0.28C798.266,3608.52,798.136,3608.51,798.006,3608.49Zm3.553,6.66c0.027-.08.052-0.16,0.079-0.24a0.289,0.289,0,0,1,.078-0.04l0.078-.24c0.026-.01.052-0.03,0.078-0.04,0.013-.05.026-0.11,0.039-0.16h0.039v-0.08c0.026-.01.052-0.03,0.078-0.04,0.013-.05.026-0.11,0.039-0.16,0.026-.01.052-0.03,0.078-0.04,0.013-.05.026-0.1,0.039-0.16h0.039v-0.08a0.289,0.289,0,0,0,.078-0.04v-0.08h0.039a0.467,0.467,0,0,0-.117-0.24h-0.039c-0.013-.05-0.026-0.1-0.039-0.16h-0.039l-0.078-.24h-0.039V3613H801.95v-0.2h-0.039a2.6,2.6,0,0,1,.117-1.08h0.039c0.013-.05.026-0.11,0.039-0.16h0.039v-0.08a0.289,0.289,0,0,0,.078-0.04v-0.08a0.491,0.491,0,0,0,.078-0.08h0.039c0.046-.12-0.058-0.12-0.078-0.16l-0.078-.24a0.289,0.289,0,0,1-.078-0.04l-0.078-.24-0.078-.03-0.078-.24a0.289,0.289,0,0,0-.078-0.04c-0.013-.06-0.026-0.11-0.039-0.16a0.289,0.289,0,0,0-.078-0.04v-0.08h-0.039v-0.08H801.6v-0.08h-0.039v-0.04H801.52v-0.04h-1.64a1.839,1.839,0,0,1-2.108,1.23c-0.052.11-.1,0.22-0.156,0.32h-0.039c-0.014.06-.027,0.11-0.04,0.16-0.026.01-.052,0.03-0.078,0.04l-0.078.24c-0.026.01-.052,0.03-0.078,0.04l-0.078.24c-0.026.01-.052,0.03-0.078,0.04-0.013.05-.026,0.11-0.039,0.16a0.289,0.289,0,0,0-.078.04c-0.013.05-.026,0.1-0.039,0.16h-0.039c0.065,0.13.13,0.26,0.2,0.4h0.039c0.013,0.05.026,0.1,0.039,0.16a0.289,0.289,0,0,1,.078.04c0.026,0.07.052,0.15,0.078,0.23a0.289,0.289,0,0,0,.078.04v0.08H797.5v0.08a0.28,0.28,0,0,0,.079.04l0.078,0.24a0.289,0.289,0,0,0,.078.04l0.078,0.24c0.026,0.01.052,0.03,0.078,0.04l0.078,0.24c0.026,0.01.052,0.03,0.078,0.04,0.013,0.05.026,0.11,0.039,0.16,0.026,0.01.052,0.03,0.078,0.04v0.08c0.1,0.17.209,0.34,0.313,0.52h3.084Zm-9.176-3.35v0.04h-0.117a1.84,1.84,0,0,1-.195.16c-0.059.06-.092,0.14-0.156,0.2a1,1,0,0,0,.078.68h0.039c0.039,0.05.078,0.1,0.117,0.16a0.376,0.376,0,0,1,.156.07h0.2a0.057,0.057,0,0,0,.078.04,0.72,0.72,0,0,0,.625-0.83h-0.039v-0.12h-0.039a0.361,0.361,0,0,0-.234-0.28A0.636,0.636,0,0,0,792.383,3611.8Zm11.832,1.16a1.676,1.676,0,0,1,.156-0.28v-0.44a0.865,0.865,0,0,0-.352-0.36c-0.073-.08-0.02,0-0.117-0.04a0.58,0.58,0,0,0-.742.32,0.814,0.814,0,0,0-.078.52,2.415,2.415,0,0,1,.156.24c0.092,0.06.183,0.13,0.274,0.19a0.889,0.889,0,0,0,.429,0v-0.04h0.118v-0.03A0.266,0.266,0,0,1,804.215,3612.96Zm2.928,5.49,0.078-.24a0.31,0.31,0,0,0,.079-0.04c0.026-.08.052-0.15,0.078-0.23a0.289,0.289,0,0,1,.078-0.04l0.078-.24a0.289,0.289,0,0,1,.078-0.04c0.013-.06.026-0.11,0.039-0.16a0.289,0.289,0,0,1,.078-0.04l0.078-.24c0.026-.01.052-0.03,0.078-0.04l0.078-.24c0.026-.01.052-0.03,0.078-0.04,0.026-.08.053-0.16,0.079-0.24,0.026-.01.052-0.03,0.078-0.04,0.013-.05.026-0.1,0.039-0.16a0.289,0.289,0,0,0,.078-0.04l0.078-.24a0.289,0.289,0,0,0,.078-0.04v-0.08h0.039v-0.08h0.039v-0.08h0.039a0.284,0.284,0,0,0,.039-0.16,1.257,1.257,0,0,1-.195-0.27v-0.08a0.289,0.289,0,0,0-.078-0.04v-0.08h-0.039v-0.08h-0.039v-0.08a0.289,0.289,0,0,0-.078-0.04v-0.08h-0.039c-0.013-.06-0.026-0.11-0.039-0.16-0.026-.01-0.053-0.03-0.079-0.04v-0.08H808v-0.08c-0.026-.01-0.052-0.03-0.078-0.04l-0.078-.24c-0.026-.01-0.052-0.03-0.078-0.04l-0.078-.24a0.289,0.289,0,0,1-.078-0.04c-0.013-.05-0.026-0.1-0.039-0.16a0.289,0.289,0,0,1-.078-0.04l-0.078-.24a0.289,0.289,0,0,1-.078-0.04c-0.013-.05-0.026-0.1-0.039-0.16a0.71,0.71,0,0,1-.157-0.28h-1.679a1.964,1.964,0,0,1-1.327,1.24H803.9a0.09,0.09,0,0,0-.078.04c-0.156-.01-0.312-0.03-0.468-0.04q-0.411.735-.82,1.47h0.039c0.013,0.06.026,0.11,0.039,0.16a0.289,0.289,0,0,0,.078.04c0.013,0.06.026,0.11,0.039,0.16a0.289,0.289,0,0,0,.078.04l0.078,0.24c0.026,0.01.052,0.03,0.078,0.04v0.08H803c0.013,0.05.026,0.11,0.039,0.16,0.026,0.01.052,0.03,0.078,0.04v0.08h0.039v0.08H803.2v0.08c0.026,0.01.053,0.03,0.079,0.04a0.792,0.792,0,0,0,.078.2h0.156a0.975,0.975,0,0,1,.586,0,1.5,1.5,0,0,1,.546.24h0.078a0.6,0.6,0,0,1,.039.08h0.079c0.078,0.09.156,0.18,0.234,0.28l0.156,0.12v0.08a0.289,0.289,0,0,1,.078.04v0.07h0.039v0.08h0.039v0.08h0.039a0.284,0.284,0,0,0,.039.16h1.679Zm-3.553-.08v0.04h-0.117a0.34,0.34,0,0,1-.117.08v0.04h-0.078v0.04h-0.04c-0.013.04-.025,0.08-0.039,0.12H803.16a1.188,1.188,0,0,0-.078.56,0.316,0.316,0,0,1,.078.16H803.2v0.08h0.039c0.014,0.03.027,0.05,0.04,0.08h0.078c0.013,0.03.026,0.05,0.039,0.08a0.94,0.94,0,0,0,.468.08,0.724,0.724,0,0,1,.274-0.12,1.885,1.885,0,0,0,.234-0.36,0.662,0.662,0,0,0-.312-0.76A0.6,0.6,0,0,0,803.59,3618.37Z" transform="translate(-790 -3602)"/>
</svg>
