<svg xmlns="http://www.w3.org/2000/svg" width="20" height="18.06" viewBox="0 0 20 18.06">
  <defs>
    <style>
      .cls-1 {
        fill: #6686b3;
        fill-rule: evenodd;
      }
    </style>
  </defs>
  <path id="Фигура_5" data-name="Фигура 5" class="cls-1" d="M410,3606.19V3621H390v-14.81h5.117a2.194,2.194,0,0,0,.039-0.62v-1.13l0.195-.54h0.04v-0.08a0.812,0.812,0,0,0,.117-0.08v-0.07l0.273-.24c0.013-.02.026-0.05,0.039-0.07H395.9c0.013-.03.026-0.05,0.039-0.08h0.079c0.013-.03.026-0.05,0.039-0.08h0.078v-0.04a5.684,5.684,0,0,1,1.953-.15h3.828a4.909,4.909,0,0,1,2.031.19c0.013,0.03.026,0.05,0.039,0.08h0.079c0.012,0.03.025,0.05,0.039,0.08h0.078c0.026,0.04.052,0.07,0.078,0.11,0.078,0.07.156,0.13,0.234,0.2v0.07a0.289,0.289,0,0,0,.078.04l0.039,0.12h0.039l0.2,0.54v1.71a7.6,7.6,0,0,0,1.6.04H410Zm-13.164-2.02v0.04H396.68v0.04a0.4,0.4,0,0,0-.274.27,0.783,0.783,0,0,0-.078.5v1.13a2.912,2.912,0,0,0,.742.04h6.563a7.006,7.006,0,0,0,.039-1.55h-0.039c-0.013-.07-0.026-0.13-0.039-0.2-0.091-.08-0.183-0.15-0.274-0.23h-0.156a1.952,1.952,0,0,0-.508-0.04h-5.82Zm-5.664,3.18v12.45a7.974,7.974,0,0,0,1.64.04h15.977c0.033-.05,0-0.01.039-0.04v-12.45H391.172Zm6.8,2.87h4.062v1.36H403.4v3.99h-1.367v1.36a4.655,4.655,0,0,1-1.25.04h-2.773a5.592,5.592,0,0,1-.039-1.4H396.6v-3.99h1.367v-1.36Zm1.211,1.16v1.36h-1.368a7.786,7.786,0,0,0-.039,1.67h1.368a5.317,5.317,0,0,1,.039,1.35h1.64v-1.31a5.407,5.407,0,0,1,1.407-.04v-1.63a5.884,5.884,0,0,0-1.407-.04v-1.36h-1.64Z" transform="translate(-390 -3602.94)"/>
</svg>
