<svg xmlns="http://www.w3.org/2000/svg" width="30" height="30" viewBox="0 0 30 30">
  <defs>
    <style>
      .cls-1 {
        fill: #72bcb2;
        fill-rule: evenodd;
      }
    </style>
  </defs>
  <path id="instagram_1" data-name="instagram 1" class="cls-1" d="M385.58,139.362v0.116q0.349,0.322.7,0.643v0.117l0.351,0.293v0.116l0.233,0.176c0.02,0.058.04,0.117,0.059,0.175l0.117,0.059v0.117l0.117,0.058v0.117l0.175,0.117v0.116l0.117,0.059c0.019,0.059.039,0.117,0.058,0.175h0.059v0.117l0.117,0.059v0.117h0.058v0.116l0.117,0.059c0.02,0.078.039,0.156,0.059,0.234l0.116,0.058q0.206,0.468.41,0.935H388.5v0.117h0.059v0.117h0.058l0.117,0.351h0.058v0.176h0.059v0.116h0.058l0.7,2.221q0.145,0.877.292,1.754v0.7h0.058a7.794,7.794,0,0,1-.058,1.871v0.7h-0.058c-0.02.273-.039,0.546-0.059,0.819H389.73v0.35h-0.059V153.1h-0.058v0.234h-0.059v0.293c-0.14.434-.306,0.937-0.467,1.344-0.02.117-.039,0.234-0.059,0.351H388.97v0.117h-0.059v0.175h-0.058c-0.02.078-.039,0.156-0.059,0.234h-0.058v0.175h-0.058q-0.06.175-.117,0.351H388.5v0.117h-0.058V156.6h-0.059v0.117h-0.058v0.116h-0.059v0.117H388.21v0.117h-0.059v0.117h-0.058v0.117h-0.059v0.117l-0.116.058c-0.02.078-.039,0.156-0.059,0.234l-0.117.059-0.058.233h-0.059c-0.019.059-.039,0.117-0.058,0.176l-0.117.058v0.117l-0.117.059v0.117l-0.175.116v0.117l-0.117.059v0.116l-0.234.176v0.117l-0.117.058c-0.019.059-.039,0.117-0.058,0.176l-0.351.292v0.117h-0.058l-0.117.175a1.486,1.486,0,0,0-.526.585h-0.117q-0.323.35-.643,0.7H384.7l-0.234.293h-0.117l-0.058.116h-0.059l-0.058.117H384.06l-0.117.175h-0.117l-0.058.117h-0.117l-0.117.176h-0.117l-0.059.117h-0.117c-0.019.039-.038,0.078-0.058,0.117l-0.175.058v0.058l-0.234.059-0.059.117-0.233.058-0.059.117h-0.117v0.059h-0.117v0.058h-0.117v0.059h-0.116v0.058h-0.117l-0.059.117-0.292.058V163.5h-0.117v0.058l-0.351.117v0.059h-0.175v0.058l-0.234.058v0.059h-0.175v0.058h-0.117v0.059l-0.351.058v0.059h-0.175V164.2h-0.175v0.059h-0.176v0.058h-0.175v0.059l-0.409.058V164.5l-0.526.059v0.058H378.1v0.059h-0.292v0.058h-0.293v0.058H377.1v0.059h-0.467v0.059h-0.7v0.058a7.837,7.837,0,0,1-1.87-.058h-0.526l-0.994-.118v-0.058h-0.351v-0.058H371.9v-0.059H371.61v-0.058l-0.468-.059v-0.058l-0.409-.058V164.32h-0.175v-0.058h-0.176V164.2h-0.175v-0.058l-0.351-.059v-0.058h-0.117v-0.059l-0.35-.058v-0.059h-0.117v-0.058H369.1v-0.058l-0.35-.117V163.56h-0.117V163.5h-0.117v-0.059l-0.935-.409-0.059-.117-0.234-.058-0.058-.117h-0.117v-0.059h-0.117c-0.019-.039-0.039-0.077-0.058-0.116h-0.117v-0.059l-0.176-.058-0.058-.117h-0.117l-0.117-.176h-0.117l-0.058-.117h-0.117c-0.059-.077-0.117-0.155-0.175-0.233h-0.117l-0.117-.175h-0.117l-0.292-.351h-0.117l-0.059-.117-0.234-.176a1.071,1.071,0,0,0-.467-0.409v-0.116c-0.214-.2-0.429-0.39-0.643-0.585v-0.117l-0.351-.292v-0.117l-0.234-.176V159.06l-0.175-.118v-0.116l-0.117-.059V158.65l-0.175-.116v-0.117l-0.117-.059v-0.117l-0.117-.058c-0.02-.059-0.039-0.117-0.058-0.176h-0.059l-0.058-.233-0.117-.059c-0.02-.078-0.039-0.156-0.059-0.234l-0.117-.058v-0.117h-0.058v-0.117h-0.059v-0.117H361.79v-0.117h-0.058v-0.117l-0.117-.058v-0.117h-0.059v-0.117H361.5v-0.175h-0.059v-0.117h-0.058l-0.117-.351h-0.058l-0.7-2.045v-0.234c-0.15-.445-0.215-1.047-0.351-1.52v-0.468H360.1v-0.7h-0.058a7.743,7.743,0,0,1,.058-1.871v-0.7h0.058V147.9c0.137-.472.2-1.075,0.351-1.519v-0.234l0.7-2.046h0.058l0.117-.351h0.058v-0.117H361.5c0.058-.175.117-0.35,0.175-0.525l0.117-.059v-0.117h0.058V142.81h0.059v-0.117h0.058v-0.117l0.117-.058c0.02-.078.039-0.156,0.059-0.234l0.117-.059c0.019-.077.039-0.155,0.058-0.233l0.117-.059v-0.117h0.058c0.02-.058.039-0.116,0.059-0.175l0.117-.059v-0.116l0.175-.117v-0.117l0.117-.058v-0.117l0.175-.117v-0.117l0.117-.059v-0.058l0.117-.059v-0.116l0.292-.234V140.18l0.585-.526c0.019-.059.039-0.117,0.058-0.176l0.293-.175,0.584-.643H365.3l0.234-.292h0.117l0.175-.234,0.175-.058,0.059-.117h0.117l0.058-.117h0.117l0.117-.176h0.117l0.058-.117,0.176-.058v-0.058h0.117l0.058-.117,0.234-.058c0.019-.04.039-0.079,0.058-0.117l0.234-.059,0.059-.117h0.117v-0.059h0.116v-0.058h0.117V136.79h0.117v-0.059h0.117l0.059-.117h0.116v-0.058h0.117V136.5a28.932,28.932,0,0,1,3.157-1.111l1.753-.292h0.7v-0.059a7.784,7.784,0,0,1,1.87.059h0.526q0.526,0.057,1.052.117v0.058h0.293v0.059H378.1v0.058h0.292v0.058h0.234V135.5h0.234v0.058h0.175v0.059h0.234v0.058h0.175v0.058h0.176V135.8h0.175v0.059h0.175v0.058l0.351,0.058v0.059h0.117v0.058h0.175v0.059h0.117v0.058H380.9v0.059l0.234,0.058v0.058h0.117v0.059h0.176l0.058,0.117h0.175v0.058h0.117v0.059H381.9l0.059,0.117h0.116v0.058h0.117v0.058h0.117v0.059h0.117l0.059,0.117,0.233,0.059c0.02,0.038.039,0.077,0.059,0.117l0.234,0.058v0.058l0.175,0.059c0.02,0.039.039,0.077,0.058,0.116h0.117v0.059l0.176,0.058,0.058,0.117h0.117l0.059,0.117,0.175,0.059,0.117,0.175h0.117l0.175,0.234a5.42,5.42,0,0,1,.7.526A1.271,1.271,0,0,0,385.58,139.362Zm-13.62,2.045a3.53,3.53,0,0,1-.993.059v0.058H370.5v0.058h-0.292v0.059h-0.234V141.7h-0.234a4.713,4.713,0,0,0-3.039,3.039v0.234a15.676,15.676,0,0,0-.292,4.325v2.4a5.869,5.869,0,0,0,.058,1.286v1.052h0.059V154.5h0.058v0.293h0.058v0.233H366.7v0.234a4.333,4.333,0,0,0,1.578,2.221l0.117,0.176h0.117c0.019,0.039.039,0.077,0.058,0.117l0.234,0.058,0.059,0.117h0.117v0.058H369.1v0.059h0.176v0.058h0.117v0.059l0.35,0.058V158.3h0.234v0.058h0.234v0.059H370.5v0.058h0.468v0.059h1.052a5.928,5.928,0,0,0,1.286.058h2.338a15.916,15.916,0,0,0,4.384-.292l0.584-.117v-0.059l0.234-.058v-0.059l0.292-.058,0.059-.117,0.234-.058c0.019-.04.039-0.078,0.058-0.117h0.117l0.117-.176h0.117l0.409-.468,0.234-.175v-0.116c0.058-.04.117-0.078,0.175-0.117v-0.117l0.117-.059,0.117-.351,0.117-.058v-0.175h0.058c0.02-.078.039-0.156,0.059-0.234h0.058c0.02-.117.039-0.234,0.058-0.351H383.3v-0.234h0.058v-0.233h0.059V154.5h0.058v-0.467h0.059v-1.052h0.058v-5.962h-0.058q-0.03-.761-0.059-1.52h-0.058v-0.292h-0.059v-0.234H383.3v-0.234h-0.059v-0.176h-0.058v-0.175h-0.058v-0.116h-0.059V144.1h-0.058v-0.117h-0.059v-0.117l-0.117-.058c-0.019-.078-0.039-0.156-0.058-0.234l-0.117-.059v-0.117l-0.175-.116v-0.117l-0.351-.292-0.292-.351h-0.117l-0.117-.175h-0.117c-0.019-.039-0.039-0.078-0.058-0.118l-0.234-.058-0.059-.117H381.02v-0.058H380.9v-0.059h-0.175v-0.058h-0.117v-0.059l-0.35-.058V141.7h-0.234v-0.059h-0.234v-0.059H379.5v-0.058h-0.468v-0.058h-1.052a8.916,8.916,0,0,0-1.987-.059H371.96Zm2.865,1.52h0.35v0.059h1.988a6.558,6.558,0,0,1,1.461.058h0.584V143.1H379.5v0.058h0.233l0.936,0.409,0.175,0.234h0.117l0.175,0.234H381.2v0.116l0.234,0.176c0.68,1.019.584,2.8,0.584,4.5v3.1a7.6,7.6,0,0,1-.058,1.695v0.584H381.9V154.5h-0.058v0.234H381.78c-0.019.117-.039,0.234-0.058,0.351h-0.059l-0.117.351h-0.058v0.117l-0.117.058v0.117l-0.234.175v0.117h-0.058l-0.117.175h-0.117l-0.117.176h-0.117c-0.019.038-.039,0.077-0.058,0.117l-0.351.117v0.058h-0.117v0.059H379.91a10.152,10.152,0,0,1-3.332.291,6.154,6.154,0,0,0-1.344.059l-0.643-.059h-1.812a7.85,7.85,0,0,1-1.988-.116H370.5a5.1,5.1,0,0,1-1.461-.7l-0.175-.233H368.8v-0.117l-0.234-.176c-0.019-.078-0.039-0.156-0.058-0.233h-0.059l-0.117-.351h-0.058v-0.176a9.9,9.9,0,0,1-.292-3.273q-0.03-.934-0.059-1.87h0.059v-1.52a9.284,9.284,0,0,1,.292-3.156v-0.175h0.058V144.8H368.4V144.68h0.058v-0.117h0.059v-0.116h0.058V144.33l0.234-.176v-0.116l0.234-.176V143.8h0.117l0.175-.234,0.935-.409,1.111-.175h2.513A2.16,2.16,0,0,0,374.825,142.927Zm4.5,1.461v0.059l-0.292.058v0.058l-0.351.293v0.117a1.121,1.121,0,0,0,0,.993,1.735,1.735,0,0,0,.468.351,1.123,1.123,0,0,0,.994,0,1.764,1.764,0,0,0,.35-0.467,1.12,1.12,0,0,0,0-.994l-0.35-.293v-0.058A1.7,1.7,0,0,0,379.325,144.388Zm-5.027,1.228a1.631,1.631,0,0,1-.526.117v0.058H373.6v0.059h-0.175v0.058h-0.176v0.058h-0.117v0.059h-0.116v0.058H372.9l-0.059.117-0.234.059-0.058.117h-0.117l-0.117.175h-0.117l-0.175.234-0.468.409v0.117l-0.175.117v0.117l-0.117.058v0.117l-0.117.059-0.117.35h-0.058v0.117h-0.059q-0.146.526-.292,1.052a7.058,7.058,0,0,0,.059,1.695h0.058v0.234h0.058c0.02,0.117.039,0.234,0.059,0.351h0.058V151.7h0.059v0.175h0.058v0.117h0.059c0.019,0.078.039,0.156,0.058,0.234l0.117,0.058V152.4l0.117,0.059v0.117l0.175,0.117v0.116l0.468,0.41,0.175,0.233h0.117l0.117,0.176h0.117c0.019,0.038.039,0.077,0.058,0.116l0.234,0.059,0.059,0.117h0.117v0.058h0.116v0.059h0.176v0.058h0.117v0.059H373.6v0.058a4.466,4.466,0,0,0,1.578.175H375.7a6.629,6.629,0,0,0,1.695-.643c0.02-.039.039-0.078,0.059-0.116h0.117l0.117-.176h0.117l0.292-.351,0.351-.292v-0.116c0.058-.039.116-0.079,0.175-0.117v-0.117l0.117-.059c0.019-.078.039-0.156,0.058-0.234l0.117-.058v-0.117h0.059V151.87h0.058l0.351-1.169v-0.468a4.642,4.642,0,0,0-.176-1.636H379.15v-0.176h-0.058V148.3h-0.059v-0.175h-0.058v-0.116h-0.059V147.9l-0.117-.058c-0.019-.078-0.039-0.156-0.058-0.234l-0.117-.058v-0.117l-0.175-.117a4.363,4.363,0,0,0-2.455-1.637A6.458,6.458,0,0,0,374.3,145.616Zm0.293,1.519a2.844,2.844,0,0,1,1.812.41l0.234,0.058,0.116,0.176h0.117l0.234,0.291,0.117,0.059v0.117l0.175,0.117v0.117h0.059V148.6h0.058v0.117h0.059v0.117a2.184,2.184,0,0,1,.234,1.578V150.7h-0.059v0.176h-0.058v0.175H377.63l-0.117.35h-0.058c-0.02.079-.039,0.156-0.059,0.234l-0.233.176v0.117l-0.234.175v0.058h-0.117l-0.175.234-0.351.117-0.059.117h-0.175v0.059h-0.175v0.058H375.7v0.058h-0.292v0.059a3.643,3.643,0,0,1-1.461-.175V152.63h-0.117v-0.058h-0.117v-0.059H373.6v-0.058H373.48V152.4h-0.117l-0.117-.175h-0.117c-0.077-.1-0.155-0.195-0.233-0.292l-0.117-.059v-0.117l-0.176-.117c-0.019-.078-0.039-0.155-0.058-0.234l-0.117-.058v-0.176H372.37v-0.116h-0.059v-0.175h-0.058a3.294,3.294,0,0,1,0-1.754h0.058v-0.175h0.059v-0.117h0.058v-0.176l0.117-.058c0.019-.078.039-0.156,0.058-0.234l0.176-.117v-0.117l0.292-.234,0.058-.116h0.117l0.117-.176,0.234-.058c0.02-.039.039-0.079,0.059-0.117Z" transform="translate(-360 -135)"/>
</svg>
