<svg xmlns="http://www.w3.org/2000/svg" width="30" height="30" viewBox="0 0 30 30">
  <defs>
    <style>
      .cls-1 {
        fill: #72bcb2;
        fill-rule: evenodd;
      }
    </style>
  </defs>
  <path id="telegram" class="cls-1" d="M224.065,135a14.716,14.716,0,0,1,8.709,2.224l0.234,0.058v0.059l0.175,0.058c0.02,0.039.039,0.078,0.058,0.117h0.117v0.059l0.176,0.058c0.019,0.04.039,0.079,0.058,0.118h0.117l0.117,0.175h0.117l0.117,0.175h0.117c0.058,0.079.117,0.157,0.175,0.235h0.117l0.234,0.292h0.117l0.526,0.586,0.175,0.058c0.059,0.1.117,0.195,0.175,0.292l0.643,0.585v0.118l0.293,0.234v0.117c0.078,0.059.156,0.116,0.233,0.175,0.02,0.059.04,0.117,0.059,0.176l0.117,0.058v0.117l0.117,0.059v0.117l0.175,0.117v0.117l0.117,0.058c0.019,0.059.039,0.118,0.058,0.176h0.059v0.117l0.117,0.058c0.019,0.079.039,0.157,0.058,0.234l0.117,0.059c0.02,0.078.039,0.156,0.059,0.234l0.116,0.059v0.117h0.059v0.117h0.058V142.9h0.059v0.117h0.058v0.117l0.117,0.058v0.118h0.059v0.116H238.5V143.6h0.059v0.117h0.058l0.117,0.351h0.058v0.176h0.059v0.117h0.058l0.7,2.223q0.146,0.877.292,1.756v0.7h0.058a7.749,7.749,0,0,1-.058,1.872v0.527l-0.117,1H239.73v0.351h-0.059v0.293h-0.058v0.292l-0.7,2.224h-0.058v0.117h-0.059v0.175h-0.058l-0.117.351h-0.058v0.117H238.5v0.176h-0.058v0.117h-0.059v0.117l-0.117.058v0.117H238.21v0.117h-0.059v0.118h-0.058V157.3h-0.059v0.118l-0.116.058c-0.02.078-.039,0.156-0.059,0.234l-0.117.059c-0.019.078-.039,0.156-0.058,0.233l-0.117.059v0.118h-0.059c-0.019.058-.039,0.116-0.058,0.175l-0.117.058v0.117l-0.175.117v0.117l-0.117.059v0.117l-0.176.117v0.117l-0.233.176v0.116c-0.1.079-.195,0.157-0.293,0.234v0.118l-0.643.585c-0.058.1-.116,0.195-0.175,0.292H235.4l-0.584.644H234.7l-0.234.292h-0.117c-0.058.079-.117,0.157-0.175,0.235H234.06l-0.117.175-0.175.059-0.059.117h-0.117c-0.019.039-.039,0.078-0.058,0.116h-0.117l-0.059.118h-0.117c-0.019.039-.038,0.078-0.058,0.117h-0.117l-0.058.117-0.234.058c-0.02.04-.039,0.079-0.059,0.118H232.6c-0.02.038-.039,0.078-0.059,0.117h-0.117v0.058h-0.117v0.058h-0.117v0.059h-0.117v0.059h-0.116c-0.02.038-.039,0.077-0.059,0.116l-0.234.059v0.059l-0.233.058v0.059h-0.176v0.058h-0.117v0.059l-0.234.058v0.058h-0.175v0.059h-0.117v0.059h-0.175v0.058h-0.117v0.059l-0.351.058v0.059h-0.175V164.2h-0.175v0.059h-0.176v0.058h-0.175v0.059l-0.409.059V164.5h-0.234v0.058H228.39v0.059H228.1v0.059h-0.292v0.058h-0.293v0.058H227.1v0.059h-0.467v0.059h-0.7v0.058a7.837,7.837,0,0,1-1.87-.058h-0.7l-1.753-.293-2.221-.7v-0.059h-0.117v-0.059H219.1v-0.058l-0.35-.117v-0.058h-0.117V163.5h-0.176v-0.058h-0.117v-0.059H218.22l-0.059-.117h-0.117v-0.058h-0.117v-0.059H217.81V163.09h-0.116v-0.058h-0.117l-0.059-.117-0.234-.058c-0.019-.039-0.039-0.078-0.058-0.118l-0.234-.058-0.058-.117h-0.117v-0.058l-0.176-.059c-0.019-.039-0.039-0.078-0.058-0.118h-0.117c-0.039-.057-0.078-0.116-0.117-0.175h-0.117l-0.058-.117h-0.117L216,161.92l-0.175-.058c-0.058-.078-0.117-0.156-0.175-0.235h-0.117l-0.234-.292H215.18l-0.584-.644-0.234-.117v-0.117l-0.117-.058v-0.058l-0.585-.527V159.7l-0.292-.234v-0.116l-0.234-.176v-0.117l-0.175-.117v-0.117l-0.117-.059v-0.117l-0.175-.117v-0.117l-0.117-.058c-0.02-.059-0.039-0.117-0.059-0.175h-0.058v-0.118L212.316,158c-0.019-.077-0.039-0.155-0.058-0.233l-0.117-.059c-0.02-.078-0.039-0.156-0.059-0.234l-0.117-.058V157.3h-0.058v-0.116h-0.059v-0.118H211.79v-0.117l-0.117-.058v-0.117h-0.058c-0.02-.078-0.039-0.156-0.059-0.234H211.5v-0.176h-0.059v-0.117h-0.058l-0.117-.351h-0.058v-0.175h-0.059V155.6h-0.058v-0.176H211.03v-0.117h-0.058c-0.02-.117-0.039-0.234-0.059-0.351h-0.058v-0.176H210.8v-0.175h-0.058V154.43h-0.059v-0.175h-0.058v-0.234h-0.059v-0.176H210.5v-0.234h-0.058v-0.234h-0.059v-0.292h-0.058v-0.293H210.27v-0.351h-0.058V152.09h-0.059v-0.468H210.1v-0.7h-0.058a7.751,7.751,0,0,1,.058-1.872v-0.7h0.058c0.039-.39.078-0.781,0.117-1.17h0.059v-0.293h0.058v-0.293h0.059v-0.234H210.5v-0.234h0.058v-0.175h0.059v-0.234h0.058v-0.176h0.059v-0.175H210.8v-0.176h0.059V145.01h0.058c0.02-.118.039-0.234,0.059-0.352h0.058v-0.117h0.059v-0.175h0.058v-0.117h0.059v-0.176h0.058l0.117-.351h0.058V143.6H211.5v-0.176h0.058c0.02-.077.039-0.155,0.059-0.234h0.058v-0.117l0.117-.058V142.9h0.058v-0.117h0.059v-0.117h0.058v-0.117l0.117-.059c0.02-.078.039-0.156,0.059-0.234l0.117-.059c0.019-.077.039-0.155,0.058-0.234h0.059c0.019-.058.038-0.116,0.058-0.175l0.117-.058v-0.118h0.058c0.02-.058.039-0.117,0.059-0.175l0.117-.058v-0.118l0.175-.117V141.03l0.175-.117V140.8l0.234-.175V140.5l0.292-.234v-0.118q0.323-.291.643-0.585V139.45h0.059l0.058-.117,0.176-.058,0.584-.644H215.3l0.234-.292h0.117c0.058-.078.117-0.156,0.175-0.235h0.117l0.117-.175h0.117l0.058-.117h0.117l0.117-.176h0.117l0.058-.117,0.176-.058V137.4h0.117l0.058-.117,0.234-.058,0.058-.117,0.234-.059,0.059-.117h0.117v-0.058h0.116v-0.059h0.117v-0.058h0.117V136.7h0.117l0.059-.117h0.116v-0.058h0.117v-0.059h0.176v-0.058h0.117v-0.059l0.35-.117v-0.058h0.176v-0.059h0.117v-0.059h0.175V136h0.117v-0.059l0.351-.058v-0.059h0.175v-0.058h0.175v-0.059h0.176v-0.058h0.175v-0.058h0.234V135.53h0.175v-0.059h0.234v-0.058h0.234v-0.059l0.584-.058v-0.059h0.351v-0.058H222.9V135.12h0.467v-0.058A2.252,2.252,0,0,0,224.065,135Zm-1.812,21.826,0.526-.116q0.466-.5.935-1h0.117q0.468-.5.935-0.995L225,154.84l0.058,0.117h0.117l0.117,0.175h0.117l0.058,0.118h0.117c0.059,0.077.117,0.156,0.176,0.233h0.117c0.019,0.039.039,0.078,0.058,0.118h0.117l0.059,0.117,0.175,0.058,0.117,0.176h0.117l0.117,0.175h0.116l0.059,0.117h0.117l0.117,0.176h0.117l0.117,0.175H227.4l0.117,0.176h0.117l0.117,0.175h0.117l0.058,0.117h0.117l0.117,0.176h0.117l0.117,0.176a1.364,1.364,0,0,0,1.111.175,5.227,5.227,0,0,0,.35-0.468l0.117-.761c0.158-.5.249-1.144,0.409-1.638,0.02-.2.039-0.39,0.059-0.585h0.058V153.9h0.059v-0.293h0.058v-0.293h0.059c0.019-.175.039-0.351,0.058-0.526h0.059c0.019-.195.039-0.391,0.058-0.585H230.9v-0.234h0.059V151.68h0.058v-0.293h0.059V151.1c0.36-1.115.465-2.446,0.818-3.569v-0.293c0.188-.59.29-1.327,0.468-1.931a1.484,1.484,0,0,0-.234-1.171h-0.117a0.671,0.671,0,0,0-.526-0.116v0.058h-0.234v0.058h-0.117v0.059h-0.175v0.059h-0.117v0.058l-0.351.059v0.058l-0.292.059v0.058h-0.117V144.6H229.91v0.058h-0.117v0.059l-0.351.059v0.057h-0.117v0.059H229.15v0.059h-0.117v0.059l-0.351.058v0.058h-0.117v0.059H228.39v0.058h-0.117V145.3l-0.351.059v0.058h-0.116v0.059H227.63v0.058h-0.117v0.058l-0.35.059v0.059h-0.117v0.058H226.87v0.058h-0.117v0.059h-0.175v0.059h-0.117V146l-0.35.059v0.058h-0.117v0.059h-0.176v0.058H225.7V146.3l-0.35.059v0.059h-0.117v0.058h-0.176v0.059h-0.175c-1.792.788-3.758,1.436-5.553,2.223l-0.35.059v0.058h-0.117v0.059h-0.176v0.058H218.57v0.059l-0.35.059v0.058H218.1v0.058h-0.176v0.059H217.81v0.059l-0.35.058v0.059l-0.293.058v0.059h-0.116v0.058h-0.176v0.059h-0.117v0.058a0.756,0.756,0,0,0-.584.468h-0.059c0.02,0.117.039,0.234,0.059,0.351l0.175,0.059,0.059,0.117,0.233,0.058v0.059h0.234v0.058h0.176v0.059h0.175v0.059H217.4V151.1h0.176v0.058l0.759,0.176v0.058l0.41,0.059v0.059h0.175v0.058H219.1v0.059h0.176v0.058l0.409,0.059a2.1,2.1,0,0,0,.818.234,1.6,1.6,0,0,1,.468-0.293v-0.058h0.117l0.058-.117h0.117c0.019-.04.039-0.079,0.059-0.118l0.233-.058,0.059-.117h0.117l0.058-.117H221.9c0.02-.039.039-0.078,0.058-0.117h0.117v-0.059h0.117l0.059-.117h0.117l0.058-.117,0.234-.058,0.058-.117h0.117c0.02-.039.039-0.079,0.059-0.117h0.117l0.058-.117h0.117v-0.059h0.117l0.058-.117h0.117l0.059-.117,0.233-.059,0.059-.116h0.117c0.019-.04.039-0.079,0.058-0.117l0.234-.059v-0.058l0.175-.059,0.059-.117,0.234-.058c0.019-.04.039-0.079,0.058-0.118h0.117l0.059-.116h0.116l0.059-.118,0.234-.058,0.058-.117h0.117l0.058-.117,0.234-.059v-0.058l0.176-.059c0.019-.039.039-0.078,0.058-0.116l0.234-.059,0.058-.117h0.117l0.059-.117h0.117l0.058-.117,0.234-.059,0.058-.117H227.1l0.059-.117,0.233-.058c0.02-.039.039-0.079,0.059-0.117h0.117l0.058-.117h0.117c0.02-.04.039-0.079,0.059-0.118h0.116v-0.058h0.117l0.059-.117h0.117l0.058-.117,0.234-.058c0.019-.04.039-0.079,0.058-0.118h0.117a1.164,1.164,0,0,1,.819-0.351,0.1,0.1,0,0,0,.058.059v0.117l-0.994.878c-0.058.078-.116,0.156-0.175,0.233h-0.117l-0.467.527c-0.905.656-1.609,1.51-2.514,2.165-0.175.195-.351,0.39-0.526,0.586h-0.117l-0.058.116-0.234.176-0.175.234h-0.117l-0.526.585h-0.117l-0.409.468H222.9l-0.351.41h-0.058v0.7a2.937,2.937,0,0,0-.059.878H222.37v0.819h-0.059Q222.283,156.127,222.253,156.829Z" transform="translate(-210 -135)"/>
</svg>
