<svg xmlns="http://www.w3.org/2000/svg" width="30" height="30" viewBox="0 0 30 30">
  <defs>
    <style>
      .cls-1 {
        fill: #72bcb2;
        fill-rule: evenodd;
      }
    </style>
  </defs>
  <path id="youtube" class="cls-1" d="M185.58,139.362v0.116q0.349,0.322.7,0.643v0.117l0.351,0.293v0.116l0.234,0.176c0.019,0.058.038,0.117,0.058,0.175l0.117,0.059v0.117l0.117,0.058v0.117l0.175,0.117v0.116l0.117,0.059c0.019,0.059.039,0.117,0.058,0.175h0.059v0.117l0.117,0.059v0.117h0.058v0.116l0.117,0.059c0.02,0.078.039,0.156,0.059,0.234l0.117,0.058q0.2,0.468.409,0.935H188.5v0.117h0.059v0.117h0.058l0.117,0.351h0.058v0.176h0.059v0.116h0.058l0.7,2.221q0.146,0.877.292,1.754v0.7h0.058a7.794,7.794,0,0,1-.058,1.871v0.7h-0.058q-0.03.41-.059,0.819H189.73v0.35h-0.059V153.1h-0.058v0.234h-0.059v0.293c-0.14.434-.306,0.937-0.467,1.344-0.02.117-.039,0.234-0.059,0.351H188.97v0.117h-0.059v0.175h-0.058c-0.02.078-.039,0.156-0.059,0.234h-0.058v0.175h-0.059c-0.039.117-.077,0.234-0.116,0.351H188.5v0.117h-0.058V156.6h-0.059v0.117h-0.058v0.116h-0.059v0.117H188.21v0.117h-0.059v0.117h-0.058v0.117h-0.058v0.117l-0.117.058c-0.02.078-.039,0.156-0.059,0.234l-0.117.059-0.058.233h-0.059c-0.019.059-.039,0.117-0.058,0.176l-0.117.058v0.117l-0.117.059v0.117l-0.175.116v0.117l-0.117.059v0.116l-0.234.176v0.117l-0.117.058c-0.019.059-.039,0.117-0.058,0.176l-0.351.292v0.117h-0.058l-0.117.175a1.486,1.486,0,0,0-.526.585h-0.117q-0.323.35-.643,0.7H184.7l-0.234.293h-0.117c-0.019.038-.039,0.077-0.058,0.116h-0.059l-0.058.117H184.06l-0.117.175h-0.117l-0.058.117h-0.117l-0.117.176h-0.117l-0.059.117h-0.116l-0.059.117-0.175.058v0.058l-0.234.059-0.059.117-0.233.058-0.059.117h-0.117v0.059h-0.117v0.058h-0.116v0.059h-0.117v0.058h-0.117l-0.059.117-0.292.058V163.5h-0.117v0.058l-0.351.117v0.059h-0.175v0.058l-0.234.058v0.059h-0.175v0.058h-0.117v0.059l-0.351.058v0.059h-0.175V164.2h-0.175v0.059h-0.176v0.058h-0.175v0.059l-0.409.058V164.5l-0.526.059v0.058H178.1v0.059h-0.292v0.058h-0.293v0.058H177.1v0.059h-0.467v0.059h-0.7v0.058a7.837,7.837,0,0,1-1.87-.058h-0.526l-0.994-.118v-0.058h-0.351v-0.058H171.9v-0.059H171.61v-0.058l-0.468-.059v-0.058l-0.409-.058V164.32h-0.175v-0.058h-0.176V164.2h-0.175v-0.058l-0.351-.059v-0.058h-0.117v-0.059l-0.35-.058v-0.059h-0.117v-0.058H169.1v-0.058l-0.35-.117V163.56h-0.117V163.5h-0.117v-0.059l-0.935-.409-0.059-.117-0.234-.058-0.058-.117h-0.117v-0.059h-0.117c-0.019-.039-0.039-0.077-0.058-0.116h-0.117v-0.059l-0.176-.058-0.058-.117h-0.117l-0.117-.176h-0.117l-0.058-.117h-0.117l-0.175-.233h-0.117l-0.117-.175h-0.117l-0.292-.351h-0.117l-0.059-.117-0.233-.176a1.08,1.08,0,0,0-.468-0.409v-0.116c-0.214-.2-0.429-0.39-0.643-0.585v-0.117l-0.351-.292v-0.117l-0.234-.176V159.06l-0.175-.118v-0.116l-0.117-.059V158.65l-0.175-.116v-0.117l-0.117-.059v-0.117l-0.117-.058-0.059-.176h-0.058l-0.058-.233-0.117-.059c-0.02-.078-0.039-0.156-0.059-0.234l-0.117-.058v-0.117h-0.058v-0.117h-0.059v-0.117H161.79v-0.117h-0.058v-0.117l-0.117-.058c-0.02-.1-0.039-0.195-0.059-0.292H161.5v-0.117h-0.059v-0.117h-0.058l-0.117-.351h-0.059q-0.35-1.021-.7-2.045v-0.234c-0.15-.445-0.215-1.047-0.351-1.52v-0.468H160.1v-0.7h-0.059a7.792,7.792,0,0,1,.059-1.871v-0.7h0.058V147.9c0.137-.472.2-1.075,0.351-1.519v-0.234q0.351-1.023.7-2.046h0.059l0.117-.351h0.058v-0.117H161.5c0.058-.175.117-0.35,0.175-0.525l0.117-.059v-0.117h0.058V142.81h0.059v-0.117h0.058v-0.117l0.117-.058c0.02-.078.039-0.156,0.059-0.234l0.117-.059c0.019-.077.039-0.155,0.058-0.233l0.117-.059v-0.117h0.058c0.02-.058.039-0.116,0.059-0.175l0.117-.059v-0.116l0.175-.117v-0.117l0.117-.058v-0.117l0.175-.117v-0.117l0.117-.059v-0.058l0.117-.059v-0.116l0.292-.234V140.18l0.585-.526c0.019-.059.039-0.117,0.058-0.176l0.293-.175q0.291-.322.584-0.643H165.3l0.234-.292h0.117l0.175-.234,0.176-.058c0.019-.039.038-0.078,0.058-0.117h0.117l0.058-.117h0.117l0.117-.176h0.117l0.058-.117,0.176-.058v-0.058h0.117l0.058-.117,0.234-.058c0.019-.04.039-0.079,0.058-0.117l0.234-.059,0.059-.117h0.117v-0.059h0.116v-0.058h0.117V136.79h0.117v-0.059h0.117l0.059-.117h0.117v-0.058h0.116V136.5a29.006,29.006,0,0,1,3.157-1.111l1.753-.292h0.7v-0.059a7.784,7.784,0,0,1,1.87.059h0.526q0.526,0.057,1.052.117v0.058h0.293v0.059H178.1v0.058h0.292v0.058h0.234V135.5h0.234v0.058h0.175v0.059h0.234v0.058h0.175v0.058h0.176V135.8h0.175v0.059h0.175v0.058l0.351,0.058v0.059h0.117v0.058h0.175v0.059h0.117v0.058H180.9v0.059l0.233,0.058v0.058h0.117v0.059h0.175l0.059,0.117h0.175v0.058h0.117v0.059H181.9l0.059,0.117h0.117v0.058h0.116v0.058h0.117v0.059h0.117l0.059,0.117,0.233,0.059c0.02,0.038.039,0.077,0.059,0.117l0.234,0.058v0.058l0.175,0.059,0.059,0.116h0.116v0.059l0.176,0.058,0.058,0.117h0.117l0.059,0.117,0.175,0.059,0.117,0.175h0.117l0.175,0.234a5.42,5.42,0,0,1,.7.526A1.271,1.271,0,0,0,185.58,139.362Zm-12.918,4.091c-0.272.232-1.437-.063-1.871,0.058v0.059h-1.052v0.058h-0.818v0.059H168.4v0.058h-0.409V143.8h-0.292v0.058a2.759,2.759,0,0,0-.468.117c-0.02.039-.039,0.078-0.058,0.117l-0.234.058-0.351.409-0.175.117V144.8l-0.117.059-0.117.351h-0.059v0.116h-0.058q-0.147.847-.292,1.7v0.7h-0.059v1.052a6.916,6.916,0,0,0-.058,1.52q0.029,0.993.058,1.987h0.059v0.7h0.058v0.526h0.059v0.409h0.058v0.292H166v0.234h0.058v0.234h0.058v0.117h0.059l0.117,0.35,0.584,0.644h0.117c0.02,0.038.039,0.077,0.059,0.116h0.117v0.059l0.233,0.058v0.058l0.351,0.059V156.2h0.292v0.059h0.409v0.058h0.585v0.059h0.818v0.058h1.052a6.454,6.454,0,0,0,1.4.059h0.468v0.058h4.5v-0.058h0.292a7.455,7.455,0,0,0,1.578-.059c0.321-.09.826,0.022,1.11-0.058l1.345-.059v-0.058h0.409V156.2h0.292v-0.058h0.176v-0.059h0.175V156.02h0.117v-0.058h0.117l0.058-.117h0.117l0.176-.234h0.116c0.02-.058.039-0.117,0.059-0.175l0.234-.176v-0.117l0.117-.058c0.019-.078.039-0.156,0.058-0.234h0.058q0.147-.672.293-1.344v-0.526h0.058c0.02-.371.039-0.741,0.059-1.111v-0.643a8.78,8.78,0,0,0,0-2.513V147.6h-0.059V146.96h-0.058v-0.526h-0.059v-0.351H184.06v-0.292H184v-0.234h-0.058v-0.234h-0.059v-0.116h-0.058l-0.117-.351-0.584-.643h-0.117l-0.059-.117h-0.117v-0.058l-0.233-.059v-0.058l-0.351-.059V143.8h-0.292v-0.059h-0.41v-0.058h-0.584v-0.059H180.2V143.57l-2.046-.059H177.28a7.211,7.211,0,0,0-1.579-.058h-3.039Zm5.319,6.489v0.116l-0.351.117-0.058.117-0.351.117-0.058.117-0.234.058-0.059.117-0.35.117-0.059.117-0.234.058v0.059h-0.116l-0.059.116c-0.117.039-.234,0.079-0.351,0.117-0.019.04-.039,0.079-0.058,0.117-0.117.039-.234,0.079-0.351,0.117l-0.058.117h-0.117V151.7H175c-0.02.039-.039,0.077-0.058,0.117-0.117.039-.234,0.077-0.351,0.117l-0.059.117-0.35.116-0.059.117-0.351.117-0.058.117-0.234.059v0.058h-0.117l-0.058.117-0.175.058v-5.611h0.058a1.9,1.9,0,0,0,.409.292h0.117l0.058,0.117h0.117v0.059h0.117v0.058h0.117l0.059,0.117H174.3V147.9l0.233,0.059,0.059,0.116,0.351,0.118c0.019,0.039.038,0.078,0.058,0.116l0.234,0.059,0.058,0.117,0.351,0.117,0.058,0.117,0.351,0.117,0.059,0.117h0.116v0.058h0.117v0.058h0.117l0.059,0.117,0.35,0.117,0.059,0.117,0.234,0.058c0.019,0.04.039,0.079,0.058,0.117l0.234,0.059v0.058A1.844,1.844,0,0,0,177.981,149.942Z" transform="translate(-160 -135)"/>
</svg>
